<svg xmlns="http://www.w3.org/2000/svg" width="650" height="650" fill="none" viewBox="0 0 650 650"><path fill="#266DD3" d="M0 325C0 81.25 81.25 0 325 0C568.75 0 650 81.25 650 325C650 568.75 568.75 650 325 650C81.25 650 0 568.75 0 325Z"/><path stroke="#fff" stroke-linecap="round" stroke-miterlimit="10" stroke-width="14" d="M507.492 330.644C507.362 359.384 494.227 393.833 457.044 433.639"/><path stroke="#fff" stroke-linecap="round" stroke-miterlimit="10" stroke-width="14" d="M507.259 336.733C507.718 325.496 550.163 325.733 539.233 360.342C529.782 390.266 505.341 389.575 496.339 379.692"/><path stroke="#fff" stroke-linecap="round" stroke-miterlimit="10" stroke-width="14" d="M206.233 392.698C159.296 398.936 132.534 431.047 127.946 455.743C127.421 458.568 128.383 461.444 130.433 463.456C138.165 471.039 159.468 487.554 182.975 467.775C193.41 463.506 228.033 451.124 250.492 446.748C254.623 445.943 258.91 446.84 262.393 449.2C300.872 475.278 328.396 477.961 363.42 480.226C368.394 480.548 373.095 482.599 376.703 486.039C392.308 500.92 439.88 541.298 486.726 530.507C488.638 530.066 490.192 528.663 490.934 526.846L504.457 493.714C504.457 493.714 449.321 445.262 442.704 402.957"/><path stroke="#fff" stroke-linecap="round" stroke-miterlimit="10" stroke-width="14" d="M128.743 385.657C128.743 385.657 123.496 388.424 117.856 392.698C111.354 397.623 104.329 404.547 104.2 411.544C103.958 424.614 127.145 440.969 131.526 442.472"/><path stroke="#fff" stroke-linecap="round" stroke-miterlimit="10" stroke-width="14" d="M117.855 392.698C117.855 392.698 146.362 415.968 145.329 422.122C145.329 422.122 183.837 459.771 182.975 467.775"/><path stroke="#fff" stroke-linecap="round" stroke-miterlimit="10" stroke-width="14" d="M461.818 530.818C461.818 530.818 475.583 475.691 487.448 476.983C487.448 476.983 505.711 444.134 513.798 444.134"/><path stroke="#fff" stroke-linecap="round" stroke-miterlimit="10" stroke-width="14" d="M482.268 406.095C482.268 406.095 520.391 448.273 520.63 456.221C520.739 459.829 516.219 490.038 504.457 493.713"/><path stroke="#fff" stroke-linecap="round" stroke-miterlimit="10" stroke-width="14" d="M209.645 165.636C196.926 169.218 187.525 170.953 180.105 171.618C169.994 172.525 163.561 171.449 157.421 170.361C154.213 169.793 152.743 166.005 154.72 163.416C209.202 92.0342 230.383 155.914 230.383 155.914L232.202 162.099"/><path stroke="#fff" stroke-linecap="round" stroke-miterlimit="10" stroke-width="14" d="M181.397 204.335C181.397 204.335 184.751 171.285 178.223 171.619"/><path stroke="#fff" stroke-linecap="round" stroke-linejoin="round" stroke-miterlimit="10" stroke-width="14" d="M94.5667 248.842C94.5667 248.842 118.267 260.002 118.267 299.379"/><path fill="#fff" stroke="#fff" d="M85.3277 288.943C85.6159 288.943 85.9581 288.799 86.3395 288.396C86.7223 287.991 87.0978 287.369 87.4272 286.546C88.0844 284.902 88.5059 282.586 88.5059 279.994C88.5059 277.402 88.0844 275.086 87.4272 273.442C87.0978 272.619 86.7223 271.997 86.3395 271.592C85.9581 271.189 85.6159 271.045 85.3277 271.045C85.0387 271.045 84.6961 271.189 84.3145 271.592C83.9314 271.997 83.5558 272.619 83.2263 273.442C82.5689 275.086 82.1474 277.402 82.1474 279.994C82.1474 282.586 82.5689 284.902 83.2263 286.546C83.5558 287.369 83.9314 287.991 84.3145 288.396C84.6961 288.799 85.0387 288.943 85.3277 288.943Z"/><path fill="#fff" stroke="#fff" d="M97.5356 296.586C98.0357 296.586 98.5794 296.336 99.1439 295.739C99.7097 295.141 100.25 294.239 100.718 293.07C101.652 290.735 102.244 287.464 102.244 283.816C102.244 280.168 101.652 276.897 100.718 274.562C100.25 273.393 99.7097 272.491 99.1439 271.893C98.5793 271.296 98.0356 271.045 97.5356 271.045C97.0361 271.045 96.4928 271.296 95.9284 271.893C95.3627 272.491 94.8225 273.393 94.3548 274.562C93.4209 276.897 92.8283 280.168 92.8283 283.816C92.8283 287.464 93.4209 290.735 94.3548 293.07C94.8225 294.239 95.3627 295.141 95.9284 295.739C96.4928 296.336 97.0361 296.586 97.5356 296.586Z"/><path stroke="#fff" stroke-linecap="round" stroke-miterlimit="10" stroke-width="14" d="M101.145 355.337C101.145 355.337 147.04 373.329 170.711 340.866"/><path stroke="#fff" stroke-linecap="round" stroke-miterlimit="10" stroke-width="14" d="M226.76 180.371C226.76 180.371 168.11 197.586 165.738 229.955C164.024 253.366 132.32 271.021 99.7693 249.64C79.192 236.124 34.6461 328.535 101.145 355.337C102.592 355.92 103.244 357.583 102.507 358.957C102.507 358.957 101.766 367.127 120.138 379.855C120.138 379.855 135.254 391.471 162.637 407.705"/><path stroke="#fff" stroke-linecap="round" stroke-miterlimit="10" stroke-width="14" d="M357.606 215.298C351.416 209.67 348.014 206.043 348.014 206.043C341.852 200.281 338.075 196.027 334.511 188.85C317.727 155.055 295.222 90.7891 233.717 160.256C230.602 163.773 228.204 167.959 227.235 172.556C219.834 207.672 301.418 176.21 301.418 176.21"/><path stroke="#fff" stroke-linecap="round" stroke-miterlimit="10" stroke-width="14" d="M507.492 330.644C507.453 326.457 506.913 321.953 506.06 317.395"/><path stroke="#fff" stroke-linecap="round" stroke-miterlimit="10" stroke-width="14" d="M290.479 312.282C290.479 312.282 403.604 114.976 516.062 117.016C528.531 117.241 536.32 130.674 530.316 141.603C511.921 175.092 473.957 226.67 442.103 229.796"/><path stroke="#fff" stroke-linecap="round" stroke-miterlimit="10" stroke-width="14" d="M514.704 168.086C524.919 167.288 533.371 167.711 539.818 168.499C549.842 169.724 557.612 178.298 557.473 188.395C557.243 205.048 547.543 220.151 534.253 233.069C504.589 261.905 457.043 279.854 457.043 279.854"/><path stroke="#fff" stroke-linecap="round" stroke-miterlimit="10" stroke-width="14" d="M528.368 238.457C548.023 230.464 562.18 228.873 571.423 229.28C579.55 229.638 585.679 236.941 584.876 245.037C576.189 332.759 405.677 330.231 405.677 330.231"/><path stroke="#fff" stroke-linecap="round" stroke-miterlimit="10" stroke-width="14" d="M182.989 256.526C182.989 256.526 212.391 216.557 206.69 268.964"/></svg>