<svg width="2690" height="725" viewBox="0 0 2690 725" fill="none" xmlns="http://www.w3.org/2000/svg">
<rect width="2690" height="725" fill="#266DD3"/>
<path d="M284.092 495C273.159 495 264.759 492.067 258.892 486.2C253.026 480.333 250.092 471.933 250.092 461V247C250.092 236.067 253.026 227.667 258.892 221.8C264.759 215.933 273.159 213 284.092 213H422.492C433.959 213 442.626 215.4 448.492 220.2C454.359 225 457.292 231.933 457.292 241C457.292 260.2 445.692 269.8 422.492 269.8H321.692V323.4H414.492C437.692 323.4 449.292 332.867 449.292 351.8C449.292 360.867 446.359 367.8 440.492 372.6C434.626 377.4 425.959 379.8 414.492 379.8H321.692V438.2H422.492C445.692 438.2 457.292 447.8 457.292 467C457.292 476.067 454.359 483 448.492 487.8C442.626 492.6 433.959 495 422.492 495H284.092Z" fill="white"/>
<path d="M665.164 443.4C671.831 450.067 675.164 457.667 675.164 466.2C675.164 474.467 671.964 481.8 665.564 488.2C659.164 494.6 651.697 497.8 643.164 497.8C634.364 497.8 626.498 494.2 619.564 487L572.764 438.2L526.364 487C519.431 494.2 511.564 497.8 502.764 497.8C494.231 497.8 486.764 494.6 480.364 488.2C473.964 481.8 470.764 474.467 470.764 466.2C470.764 457.667 474.097 450.067 480.764 443.4L530.364 393.8L484.764 349C478.097 342.333 474.764 334.733 474.764 326.2C474.764 317.667 477.831 310.2 483.964 303.8C490.364 297.4 497.831 294.2 506.364 294.2C515.431 294.2 523.298 297.933 529.964 305.4L572.764 349L615.964 305.4C622.898 298.2 630.764 294.6 639.564 294.6C648.098 294.6 655.431 297.8 661.564 304.2C667.964 310.333 671.164 317.533 671.164 325.8C671.164 334.333 667.831 342.067 661.164 349L615.564 393.8L665.164 443.4Z" fill="white"/>
<path d="M859.589 431.8C865.723 431.8 870.656 434.2 874.389 439C878.389 443.8 880.389 450.067 880.389 457.8C880.389 468.467 875.189 476.6 864.789 482.2C855.723 486.733 844.922 490.6 832.389 493.8C820.123 496.733 808.789 498.2 798.389 498.2C776.522 498.2 757.456 494.067 741.189 485.8C724.922 477.533 712.389 465.667 703.589 450.2C694.789 434.733 690.389 416.6 690.389 395.8C690.389 376.067 694.522 358.467 702.789 343C711.322 327.267 723.056 315.133 737.989 306.6C753.189 297.8 770.256 293.4 789.189 293.4C807.589 293.4 823.723 297.4 837.589 305.4C851.456 313.4 862.123 324.733 869.589 339.4C877.323 354.067 881.189 371.267 881.189 391C881.189 397.133 879.723 401.933 876.789 405.4C874.123 408.6 870.123 410.2 864.789 410.2H759.189C761.056 423 765.189 432.2 771.589 437.8C777.989 443.4 787.456 446.2 799.989 446.2C806.656 446.2 812.789 445.533 818.389 444.2C823.989 442.6 830.256 440.467 837.189 437.8C841.189 436.2 845.056 434.867 848.789 433.8C852.789 432.467 856.389 431.8 859.589 431.8ZM791.189 341.4C781.856 341.4 774.389 344.467 768.789 350.6C763.189 356.467 759.856 365.133 758.789 376.6H821.589C819.989 353.133 809.856 341.4 791.189 341.4Z" fill="white"/>
<path d="M1008.45 498.2C976.452 498.2 951.118 489.133 932.452 471C913.785 452.867 904.452 428.2 904.452 397C904.452 376.467 908.985 358.333 918.052 342.6C927.118 326.867 939.785 314.733 956.052 306.2C972.585 297.667 991.385 293.4 1012.45 293.4C1023.65 293.4 1034.85 294.867 1046.05 297.8C1057.25 300.733 1067.12 304.867 1075.65 310.2C1083.92 315.267 1088.05 323 1088.05 333.4C1088.05 341.667 1086.05 348.467 1082.05 353.8C1078.32 358.867 1073.38 361.4 1067.25 361.4C1063.25 361.4 1059.39 360.867 1055.65 359.8C1051.92 358.467 1047.78 356.6 1043.25 354.2C1037.92 351.8 1033.39 350.067 1029.65 349C1025.92 347.667 1021.78 347 1017.25 347C990.852 347 977.652 363.133 977.652 395.4C977.652 411.4 980.985 423.667 987.652 432.2C994.585 440.467 1004.45 444.6 1017.25 444.6C1021.78 444.6 1025.92 444.067 1029.65 443C1033.65 441.667 1038.05 439.8 1042.85 437.4C1048.19 435 1052.45 433.267 1055.65 432.2C1059.12 430.867 1062.85 430.2 1066.85 430.2C1072.99 430.2 1077.92 432.867 1081.65 438.2C1085.65 443.267 1087.65 449.933 1087.65 458.2C1087.65 463.267 1086.58 467.933 1084.45 472.2C1082.32 476.2 1079.39 479.267 1075.65 481.4C1057.25 492.6 1034.85 498.2 1008.45 498.2Z" fill="white"/>
<path d="M1276.45 294.2C1287.38 294.2 1296.05 297.133 1302.45 303C1308.85 308.867 1312.05 316.867 1312.05 327V465.4C1312.05 474.733 1308.72 482.467 1302.05 488.6C1295.38 494.467 1286.72 497.4 1276.05 497.4C1266.45 497.4 1258.58 494.867 1252.45 489.8C1246.32 484.467 1243.12 477.4 1242.85 468.6C1236.72 478.2 1228.85 485.533 1219.25 490.6C1209.92 495.667 1199.12 498.2 1186.85 498.2C1161.52 498.2 1142.72 491.267 1130.45 477.4C1118.18 463.267 1112.05 441.933 1112.05 413.4V327C1112.05 316.867 1115.25 308.867 1121.65 303C1128.05 297.133 1136.72 294.2 1147.65 294.2C1158.59 294.2 1167.25 297.133 1173.65 303C1180.05 308.867 1183.25 316.867 1183.25 327V415C1183.25 434.2 1191.52 443.8 1208.05 443.8C1217.65 443.8 1225.52 440.333 1231.65 433.4C1237.79 426.467 1240.85 417.4 1240.85 406.2V327C1240.85 316.867 1244.05 308.867 1250.45 303C1256.85 297.133 1265.52 294.2 1276.45 294.2Z" fill="white"/>
<path d="M1469.9 446.6C1487.76 447.667 1496.7 455.667 1496.7 470.6C1496.7 479.933 1493.1 486.867 1485.9 491.4C1478.7 495.933 1468.43 497.8 1455.1 497L1443.9 496.2C1419.9 494.333 1401.63 487.133 1389.1 474.6C1376.83 461.8 1370.7 444.067 1370.7 421.4V350.6H1359.1C1337.76 350.6 1327.1 341.8 1327.1 324.2C1327.1 306.867 1337.76 298.2 1359.1 298.2H1370.7V272.2C1370.7 262.067 1373.9 254.067 1380.3 248.2C1386.7 242.067 1395.36 239 1406.3 239C1417.23 239 1425.9 242.067 1432.3 248.2C1438.7 254.067 1441.9 262.067 1441.9 272.2V298.2H1463.9C1485.23 298.2 1495.9 306.867 1495.9 324.2C1495.9 341.8 1485.23 350.6 1463.9 350.6H1441.9V427.4C1441.9 432.467 1443.36 436.733 1446.3 440.2C1449.5 443.667 1453.5 445.533 1458.3 445.8L1469.9 446.6Z" fill="white"/>
<path d="M1675.6 431.8C1681.74 431.8 1686.67 434.2 1690.4 439C1694.4 443.8 1696.4 450.067 1696.4 457.8C1696.4 468.467 1691.2 476.6 1680.8 482.2C1671.74 486.733 1660.94 490.6 1648.4 493.8C1636.14 496.733 1624.8 498.2 1614.4 498.2C1592.54 498.2 1573.47 494.067 1557.2 485.8C1540.94 477.533 1528.4 465.667 1519.6 450.2C1510.8 434.733 1506.4 416.6 1506.4 395.8C1506.4 376.067 1510.54 358.467 1518.8 343C1527.34 327.267 1539.07 315.133 1554 306.6C1569.2 297.8 1586.27 293.4 1605.2 293.4C1623.6 293.4 1639.74 297.4 1653.6 305.4C1667.47 313.4 1678.14 324.733 1685.6 339.4C1693.34 354.067 1697.2 371.267 1697.2 391C1697.2 397.133 1695.74 401.933 1692.8 405.4C1690.14 408.6 1686.14 410.2 1680.8 410.2H1575.2C1577.07 423 1581.2 432.2 1587.6 437.8C1594 443.4 1603.47 446.2 1616 446.2C1622.67 446.2 1628.8 445.533 1634.4 444.2C1640 442.6 1646.27 440.467 1653.2 437.8C1657.2 436.2 1661.07 434.867 1664.8 433.8C1668.8 432.467 1672.4 431.8 1675.6 431.8ZM1607.2 341.4C1597.87 341.4 1590.4 344.467 1584.8 350.6C1579.2 356.467 1575.87 365.133 1574.8 376.6H1637.6C1636 353.133 1625.87 341.4 1607.2 341.4Z" fill="white"/>
<path d="M2038.12 348.6C2054.65 353.667 2067.32 362.2 2076.12 374.2C2084.92 385.933 2089.32 400.467 2089.32 417.8C2089.32 433.267 2085.19 446.867 2076.92 458.6C2068.92 470.067 2057.32 479 2042.12 485.4C2027.19 491.8 2009.59 495 1989.32 495H1882.92C1871.99 495 1863.59 492.067 1857.72 486.2C1851.85 480.333 1848.92 471.933 1848.92 461V247C1848.92 236.067 1851.85 227.667 1857.72 221.8C1863.59 215.933 1871.99 213 1882.92 213H1985.32C2014.92 213 2038.39 219.667 2055.72 233C2073.32 246.067 2082.12 263.8 2082.12 286.2C2082.12 300.6 2078.25 313.4 2070.52 324.6C2062.79 335.533 2051.99 343.533 2038.12 348.6ZM1920.52 323.8H1972.92C1986.79 323.8 1996.92 321.667 2003.32 317.4C2009.72 313.133 2012.92 306.333 2012.92 297C2012.92 287.133 2009.72 279.933 2003.32 275.4C1996.92 270.867 1986.79 268.6 1972.92 268.6H1920.52V323.8ZM1980.12 439.4C1994.79 439.4 2005.19 437.133 2011.32 432.6C2017.72 427.8 2020.92 420.067 2020.92 409.4C2020.92 398.733 2017.72 391.133 2011.32 386.6C2005.19 381.8 1994.79 379.4 1980.12 379.4H1920.52V439.4H1980.12Z" fill="white"/>
<path d="M2157.85 497.4C2147.71 497.4 2139.18 494.733 2132.25 489.4C2125.58 483.8 2122.25 475.533 2122.25 464.6V327C2122.25 316.067 2125.58 307.933 2132.25 302.6C2139.18 297 2147.71 294.2 2157.85 294.2C2167.98 294.2 2176.38 297 2183.05 302.6C2189.98 307.933 2193.45 316.067 2193.45 327V464.6C2193.45 475.533 2189.98 483.8 2183.05 489.4C2176.38 494.733 2167.98 497.4 2157.85 497.4ZM2157.85 266.2C2145.85 266.2 2136.25 263.133 2129.05 257C2122.11 250.6 2118.65 242.2 2118.65 231.8C2118.65 221.4 2122.11 213.133 2129.05 207C2136.25 200.867 2145.85 197.8 2157.85 197.8C2169.58 197.8 2179.05 200.867 2186.25 207C2193.45 213.133 2197.05 221.4 2197.05 231.8C2197.05 242.2 2193.45 250.6 2186.25 257C2179.31 263.133 2169.85 266.2 2157.85 266.2Z" fill="white"/>
<path d="M2409.55 294.2C2420.21 294.2 2428.75 297.267 2435.15 303.4C2441.55 309.267 2444.75 317.133 2444.75 327V471C2444.75 503.533 2434.88 528.2 2415.15 545C2395.68 561.8 2367.01 570.2 2329.15 570.2C2314.48 570.2 2300.61 568.867 2287.55 566.2C2274.48 563.533 2263.41 559.667 2254.35 554.6C2249.55 551.933 2245.68 548.467 2242.75 544.2C2240.08 539.933 2238.75 535.133 2238.75 529.8C2238.75 522.067 2240.61 515.8 2244.35 511C2248.35 506.2 2253.41 503.8 2259.55 503.8C2264.35 503.8 2273.01 505.8 2285.55 509.8C2293.81 512.467 2301.15 514.467 2307.55 515.8C2313.95 517.4 2320.48 518.2 2327.15 518.2C2343.41 518.2 2355.28 514.733 2362.75 507.8C2370.48 501.133 2374.35 490.467 2374.35 475.8V460.6C2368.48 469.4 2360.08 476.467 2349.15 481.8C2338.21 486.867 2326.35 489.4 2313.55 489.4C2296.48 489.4 2281.28 485.4 2267.95 477.4C2254.61 469.4 2244.21 458.067 2236.75 443.4C2229.28 428.467 2225.55 411.267 2225.55 391.8C2225.55 372.333 2229.28 355.133 2236.75 340.2C2244.21 325.267 2254.61 313.8 2267.95 305.8C2281.28 297.533 2296.48 293.4 2313.55 293.4C2326.61 293.4 2338.61 296.067 2349.55 301.4C2360.48 306.733 2368.88 314.067 2374.75 323.4C2375.28 314.333 2378.61 307.267 2384.75 302.2C2391.15 296.867 2399.41 294.2 2409.55 294.2ZM2335.15 436.2C2347.68 436.2 2357.41 432.333 2364.35 424.6C2371.28 416.867 2374.75 405.933 2374.75 391.8C2374.75 377.667 2371.28 366.6 2364.35 358.6C2357.41 350.6 2347.68 346.6 2335.15 346.6C2322.88 346.6 2313.28 350.6 2306.35 358.6C2299.41 366.333 2295.95 377.4 2295.95 391.8C2295.95 405.667 2299.41 416.6 2306.35 424.6C2313.55 432.333 2323.15 436.2 2335.15 436.2Z" fill="white"/>
</svg>
