<svg width="3001" height="729" viewBox="0 0 3001 729" fill="none" xmlns="http://www.w3.org/2000/svg">
<path d="M395.4 214C400.866 214 405.2 215.667 408.4 219C411.733 222.2 413.4 226.533 413.4 232V339C413.4 344.467 411.733 348.867 408.4 352.2C405.2 355.533 400.866 357.2 395.4 357.2C389.933 357.2 385.533 355.6 382.2 352.4C379 349.067 377.4 344.6 377.4 339V299H319.8V339C319.8 344.467 318.133 348.867 314.8 352.2C311.6 355.533 307.266 357.2 301.8 357.2C296.333 357.2 291.933 355.6 288.6 352.4C285.4 349.067 283.8 344.6 283.8 339V232C283.8 226.533 285.4 222.2 288.6 219C291.933 215.667 296.333 214 301.8 214C307.266 214 311.6 215.667 314.8 219C318.133 222.2 319.8 226.533 319.8 232V269.8H377.4V232C377.4 226.533 379 222.2 382.2 219C385.533 215.667 389.933 214 395.4 214Z" fill="#266DD3"/>
<path d="M454.473 357.2C449.407 357.2 445.14 355.867 441.673 353.2C438.34 350.4 436.673 346.267 436.673 340.8V272C436.673 266.533 438.34 262.467 441.673 259.8C445.14 257 449.407 255.6 454.473 255.6C459.54 255.6 463.74 257 467.073 259.8C470.54 262.467 472.273 266.533 472.273 272V340.8C472.273 346.267 470.54 350.4 467.073 353.2C463.74 355.867 459.54 357.2 454.473 357.2ZM454.473 241.6C448.473 241.6 443.673 240.067 440.073 237C436.607 233.8 434.873 229.6 434.873 224.4C434.873 219.2 436.607 215.067 440.073 212C443.673 208.933 448.473 207.4 454.473 207.4C460.34 207.4 465.073 208.933 468.673 212C472.273 215.067 474.073 219.2 474.073 224.4C474.073 229.6 472.273 233.8 468.673 237C465.207 240.067 460.473 241.6 454.473 241.6Z" fill="#266DD3"/>
<path d="M509.123 318.4C514.99 318.4 519.723 320.533 523.323 324.8C527.057 329.067 528.923 335.133 528.923 343C528.923 358.467 523.39 371.933 512.323 383.4C510.323 385.4 507.99 386.4 505.323 386.4C502.657 386.4 500.323 385.467 498.323 383.6C496.323 381.867 495.323 379.867 495.323 377.6C495.323 375.467 496.19 373.533 497.923 371.8C502.59 366.867 505.79 361.533 507.523 355.8C502.457 355.4 498.323 353.6 495.123 350.4C491.923 347.067 490.323 342.867 490.323 337.8C490.323 332.333 492.123 327.733 495.723 324C499.323 320.267 503.79 318.4 509.123 318.4Z" fill="#266DD3"/>
<path d="M736.042 265.6C737.375 262.267 739.242 259.8 741.642 258.2C744.175 256.467 746.909 255.6 749.842 255.6C754.242 255.6 758.175 257.133 761.642 260.2C765.109 263.133 766.842 266.733 766.842 271C766.842 273 766.309 275.2 765.242 277.6L732.842 347C731.375 350.333 729.109 352.933 726.042 354.8C723.109 356.533 719.842 357.4 716.242 357.4C712.642 357.4 709.375 356.533 706.442 354.8C703.509 352.933 701.309 350.333 699.842 347L680.842 304.8L663.042 347C661.709 350.333 659.509 352.933 656.442 354.8C653.509 356.533 650.242 357.4 646.642 357.4C643.042 357.4 639.709 356.533 636.642 354.8C633.709 352.933 631.442 350.333 629.842 347L597.642 277.6C596.709 275.6 596.242 273.467 596.242 271.2C596.242 266.8 598.042 263.133 601.642 260.2C605.375 257.133 609.509 255.6 614.042 255.6C617.242 255.6 620.109 256.467 622.642 258.2C625.309 259.8 627.309 262.333 628.642 265.8L647.642 312L667.042 266C668.375 262.667 670.442 260.133 673.242 258.4C676.042 256.667 679.042 255.8 682.242 255.8C685.442 255.8 688.442 256.667 691.242 258.4C694.042 260.133 696.109 262.667 697.442 266L717.442 312.2L736.042 265.6Z" fill="#266DD3"/>
<path d="M856.908 324.4C859.974 324.4 862.441 325.6 864.308 328C866.308 330.4 867.308 333.533 867.308 337.4C867.308 342.733 864.708 346.8 859.508 349.6C854.974 351.867 849.574 353.8 843.308 355.4C837.174 356.867 831.508 357.6 826.308 357.6C815.374 357.6 805.841 355.533 797.708 351.4C789.574 347.267 783.308 341.333 778.908 333.6C774.508 325.867 772.308 316.8 772.308 306.4C772.308 296.533 774.374 287.733 778.508 280C782.774 272.133 788.641 266.067 796.108 261.8C803.708 257.4 812.241 255.2 821.708 255.2C830.908 255.2 838.974 257.2 845.908 261.2C852.841 265.2 858.174 270.867 861.908 278.2C865.774 285.533 867.708 294.133 867.708 304C867.708 307.067 866.974 309.467 865.508 311.2C864.174 312.8 862.174 313.6 859.508 313.6H806.708C807.641 320 809.708 324.6 812.908 327.4C816.108 330.2 820.841 331.6 827.108 331.6C830.441 331.6 833.508 331.267 836.308 330.6C839.108 329.8 842.241 328.733 845.708 327.4C847.708 326.6 849.641 325.933 851.508 325.4C853.508 324.733 855.308 324.4 856.908 324.4ZM822.708 279.2C818.041 279.2 814.308 280.733 811.508 283.8C808.708 286.733 807.041 291.067 806.508 296.8H837.908C837.108 285.067 832.041 279.2 822.708 279.2Z" fill="#266DD3"/>
<path d="M895.256 214C901.123 214 905.856 216.133 909.456 220.4C913.189 224.667 915.056 230.733 915.056 238.6C915.056 246.6 913.656 253.933 910.856 260.6C908.056 267.133 903.923 273.267 898.456 279C896.456 281 894.123 282 891.456 282C888.789 282 886.456 281.133 884.456 279.4C882.456 277.533 881.456 275.467 881.456 273.2C881.456 271.067 882.323 269.133 884.056 267.4C888.723 262.467 891.856 257.2 893.456 251.6C888.389 251.2 884.256 249.333 881.056 246C877.989 242.667 876.456 238.467 876.456 233.4C876.456 227.933 878.256 223.333 881.856 219.6C885.456 215.867 889.923 214 895.256 214Z" fill="#266DD3"/>
<path d="M995.948 255.6C1000.48 255.2 1004.08 256.267 1006.75 258.8C1009.41 261.2 1010.75 264.8 1010.75 269.6C1010.75 274.933 1009.48 278.8 1006.95 281.2C1004.55 283.6 1000.15 285.133 993.748 285.8L987.748 286.4C981.082 287.2 976.282 289.333 973.348 292.8C970.548 296.133 969.148 300.733 969.148 306.6V340.8C969.148 346.267 967.415 350.4 963.948 353.2C960.615 355.867 956.415 357.2 951.348 357.2C946.282 357.2 942.015 355.867 938.548 353.2C935.215 350.4 933.548 346.267 933.548 340.8V271.6C933.548 266.533 935.215 262.6 938.548 259.8C942.015 257 946.148 255.6 950.948 255.6C955.882 255.6 959.815 256.933 962.748 259.6C965.815 262.267 967.348 266 967.348 270.8V274.6C969.482 268.733 972.948 264.2 977.748 261C982.682 257.8 987.815 256.067 993.148 255.8L995.948 255.6Z" fill="#266DD3"/>
<path d="M1095.38 324.4C1098.45 324.4 1100.92 325.6 1102.78 328C1104.78 330.4 1105.78 333.533 1105.78 337.4C1105.78 342.733 1103.18 346.8 1097.98 349.6C1093.45 351.867 1088.05 353.8 1081.78 355.4C1075.65 356.867 1069.98 357.6 1064.78 357.6C1053.85 357.6 1044.32 355.533 1036.18 351.4C1028.05 347.267 1021.78 341.333 1017.38 333.6C1012.98 325.867 1010.78 316.8 1010.78 306.4C1010.78 296.533 1012.85 287.733 1016.98 280C1021.25 272.133 1027.12 266.067 1034.58 261.8C1042.18 257.4 1050.72 255.2 1060.18 255.2C1069.38 255.2 1077.45 257.2 1084.38 261.2C1091.32 265.2 1096.65 270.867 1100.38 278.2C1104.25 285.533 1106.18 294.133 1106.18 304C1106.18 307.067 1105.45 309.467 1103.98 311.2C1102.65 312.8 1100.65 313.6 1097.98 313.6H1045.18C1046.12 320 1048.18 324.6 1051.38 327.4C1054.58 330.2 1059.32 331.6 1065.58 331.6C1068.92 331.6 1071.98 331.267 1074.78 330.6C1077.58 329.8 1080.72 328.733 1084.18 327.4C1086.18 326.6 1088.12 325.933 1089.98 325.4C1091.98 324.733 1093.78 324.4 1095.38 324.4ZM1061.18 279.2C1056.52 279.2 1052.78 280.733 1049.98 283.8C1047.18 286.733 1045.52 291.067 1044.98 296.8H1076.38C1075.58 285.067 1070.52 279.2 1061.18 279.2Z" fill="#266DD3"/>
<path d="M1199.04 356C1193.58 356 1189.38 354.533 1186.44 351.6C1183.51 348.667 1182.04 344.467 1182.04 339V232C1182.04 226.533 1183.51 222.333 1186.44 219.4C1189.38 216.467 1193.58 215 1199.04 215H1268.24C1273.98 215 1278.31 216.2 1281.24 218.6C1284.18 221 1285.64 224.467 1285.64 229C1285.64 238.6 1279.84 243.4 1268.24 243.4H1217.84V270.2H1264.24C1275.84 270.2 1281.64 274.933 1281.64 284.4C1281.64 288.933 1280.18 292.4 1277.24 294.8C1274.31 297.2 1269.98 298.4 1264.24 298.4H1217.84V327.6H1268.24C1279.84 327.6 1285.64 332.4 1285.64 342C1285.64 346.533 1284.18 350 1281.24 352.4C1278.31 354.8 1273.98 356 1268.24 356H1199.04Z" fill="#266DD3"/>
<path d="M1389.58 330.2C1392.91 333.533 1394.58 337.333 1394.58 341.6C1394.58 345.733 1392.98 349.4 1389.78 352.6C1386.58 355.8 1382.84 357.4 1378.58 357.4C1374.18 357.4 1370.24 355.6 1366.78 352L1343.38 327.6L1320.18 352C1316.71 355.6 1312.78 357.4 1308.38 357.4C1304.11 357.4 1300.38 355.8 1297.18 352.6C1293.98 349.4 1292.38 345.733 1292.38 341.6C1292.38 337.333 1294.04 333.533 1297.38 330.2L1322.18 305.4L1299.38 283C1296.04 279.667 1294.38 275.867 1294.38 271.6C1294.38 267.333 1295.91 263.6 1298.98 260.4C1302.18 257.2 1305.91 255.6 1310.18 255.6C1314.71 255.6 1318.64 257.467 1321.98 261.2L1343.38 283L1364.98 261.2C1368.44 257.6 1372.38 255.8 1376.78 255.8C1381.04 255.8 1384.71 257.4 1387.78 260.6C1390.98 263.667 1392.58 267.267 1392.58 271.4C1392.58 275.667 1390.91 279.533 1387.58 283L1364.78 305.4L1389.58 330.2Z" fill="#266DD3"/>
<path d="M1486.79 324.4C1489.86 324.4 1492.32 325.6 1494.19 328C1496.19 330.4 1497.19 333.533 1497.19 337.4C1497.19 342.733 1494.59 346.8 1489.39 349.6C1484.86 351.867 1479.46 353.8 1473.19 355.4C1467.06 356.867 1461.39 357.6 1456.19 357.6C1445.26 357.6 1435.72 355.533 1427.59 351.4C1419.46 347.267 1413.19 341.333 1408.79 333.6C1404.39 325.867 1402.19 316.8 1402.19 306.4C1402.19 296.533 1404.26 287.733 1408.39 280C1412.66 272.133 1418.52 266.067 1425.99 261.8C1433.59 257.4 1442.12 255.2 1451.59 255.2C1460.79 255.2 1468.86 257.2 1475.79 261.2C1482.72 265.2 1488.06 270.867 1491.79 278.2C1495.66 285.533 1497.59 294.133 1497.59 304C1497.59 307.067 1496.86 309.467 1495.39 311.2C1494.06 312.8 1492.06 313.6 1489.39 313.6H1436.59C1437.52 320 1439.59 324.6 1442.79 327.4C1445.99 330.2 1450.72 331.6 1456.99 331.6C1460.32 331.6 1463.39 331.267 1466.19 330.6C1468.99 329.8 1472.12 328.733 1475.59 327.4C1477.59 326.6 1479.52 325.933 1481.39 325.4C1483.39 324.733 1485.19 324.4 1486.79 324.4ZM1452.59 279.2C1447.92 279.2 1444.19 280.733 1441.39 283.8C1438.59 286.733 1436.92 291.067 1436.39 296.8H1467.79C1466.99 285.067 1461.92 279.2 1452.59 279.2Z" fill="#266DD3"/>
<path d="M1561.22 357.6C1545.22 357.6 1532.56 353.067 1523.22 344C1513.89 334.933 1509.22 322.6 1509.22 307C1509.22 296.733 1511.49 287.667 1516.02 279.8C1520.56 271.933 1526.89 265.867 1535.02 261.6C1543.29 257.333 1552.69 255.2 1563.22 255.2C1568.82 255.2 1574.42 255.933 1580.02 257.4C1585.62 258.867 1590.55 260.933 1594.82 263.6C1598.95 266.133 1601.02 270 1601.02 275.2C1601.02 279.333 1600.02 282.733 1598.02 285.4C1596.16 287.933 1593.69 289.2 1590.62 289.2C1588.62 289.2 1586.69 288.933 1584.82 288.4C1582.95 287.733 1580.89 286.8 1578.62 285.6C1575.96 284.4 1573.69 283.533 1571.82 283C1569.95 282.333 1567.89 282 1565.62 282C1552.42 282 1545.82 290.067 1545.82 306.2C1545.82 314.2 1547.49 320.333 1550.82 324.6C1554.29 328.733 1559.22 330.8 1565.62 330.8C1567.89 330.8 1569.95 330.533 1571.82 330C1573.82 329.333 1576.02 328.4 1578.42 327.2C1581.09 326 1583.22 325.133 1584.82 324.6C1586.55 323.933 1588.42 323.6 1590.42 323.6C1593.49 323.6 1595.95 324.933 1597.82 327.6C1599.82 330.133 1600.82 333.467 1600.82 337.6C1600.82 340.133 1600.29 342.467 1599.22 344.6C1598.16 346.6 1596.69 348.133 1594.82 349.2C1585.62 354.8 1574.42 357.6 1561.22 357.6Z" fill="#266DD3"/>
<path d="M1695.22 255.6C1700.69 255.6 1705.02 257.067 1708.22 260C1711.42 262.933 1713.02 266.933 1713.02 272V341.2C1713.02 345.867 1711.36 349.733 1708.02 352.8C1704.69 355.733 1700.36 357.2 1695.02 357.2C1690.22 357.2 1686.29 355.933 1683.22 353.4C1680.16 350.733 1678.55 347.2 1678.42 342.8C1675.35 347.6 1671.42 351.267 1666.62 353.8C1661.96 356.333 1656.55 357.6 1650.42 357.6C1637.75 357.6 1628.36 354.133 1622.22 347.2C1616.09 340.133 1613.02 329.467 1613.02 315.2V272C1613.02 266.933 1614.62 262.933 1617.82 260C1621.02 257.067 1625.35 255.6 1630.82 255.6C1636.29 255.6 1640.62 257.067 1643.82 260C1647.02 262.933 1648.62 266.933 1648.62 272V316C1648.62 325.6 1652.76 330.4 1661.02 330.4C1665.82 330.4 1669.75 328.667 1672.82 325.2C1675.89 321.733 1677.42 317.2 1677.42 311.6V272C1677.42 266.933 1679.02 262.933 1682.22 260C1685.42 257.067 1689.76 255.6 1695.22 255.6Z" fill="#266DD3"/>
<path d="M1791.94 331.8C1800.88 332.333 1805.34 336.333 1805.34 343.8C1805.34 348.467 1803.54 351.933 1799.94 354.2C1796.34 356.467 1791.21 357.4 1784.54 357L1778.94 356.6C1766.94 355.667 1757.81 352.067 1751.54 345.8C1745.41 339.4 1742.34 330.533 1742.34 319.2V283.8H1736.54C1725.88 283.8 1720.54 279.4 1720.54 270.6C1720.54 261.933 1725.88 257.6 1736.54 257.6H1742.34V244.6C1742.34 239.533 1743.94 235.533 1747.14 232.6C1750.34 229.533 1754.68 228 1760.14 228C1765.61 228 1769.94 229.533 1773.14 232.6C1776.34 235.533 1777.94 239.533 1777.94 244.6V257.6H1788.94C1799.61 257.6 1804.94 261.933 1804.94 270.6C1804.94 279.4 1799.61 283.8 1788.94 283.8H1777.94V322.2C1777.94 324.733 1778.68 326.867 1780.14 328.6C1781.74 330.333 1783.74 331.267 1786.14 331.4L1791.94 331.8Z" fill="#266DD3"/>
<path d="M1894.8 324.4C1897.86 324.4 1900.33 325.6 1902.2 328C1904.2 330.4 1905.2 333.533 1905.2 337.4C1905.2 342.733 1902.6 346.8 1897.4 349.6C1892.86 351.867 1887.46 353.8 1881.2 355.4C1875.06 356.867 1869.4 357.6 1864.2 357.6C1853.26 357.6 1843.73 355.533 1835.6 351.4C1827.46 347.267 1821.2 341.333 1816.8 333.6C1812.4 325.867 1810.2 316.8 1810.2 306.4C1810.2 296.533 1812.26 287.733 1816.4 280C1820.66 272.133 1826.53 266.067 1834 261.8C1841.6 257.4 1850.13 255.2 1859.6 255.2C1868.8 255.2 1876.86 257.2 1883.8 261.2C1890.73 265.2 1896.06 270.867 1899.8 278.2C1903.66 285.533 1905.6 294.133 1905.6 304C1905.6 307.067 1904.86 309.467 1903.4 311.2C1902.06 312.8 1900.06 313.6 1897.4 313.6H1844.6C1845.53 320 1847.6 324.6 1850.8 327.4C1854 330.2 1858.73 331.6 1865 331.6C1868.33 331.6 1871.4 331.267 1874.2 330.6C1877 329.8 1880.13 328.733 1883.6 327.4C1885.6 326.6 1887.53 325.933 1889.4 325.4C1891.4 324.733 1893.2 324.4 1894.8 324.4ZM1860.6 279.2C1855.93 279.2 1852.2 280.733 1849.4 283.8C1846.6 286.733 1844.93 291.067 1844.4 296.8H1875.8C1875 285.067 1869.93 279.2 1860.6 279.2Z" fill="#266DD3"/>
<path d="M2076.06 282.8C2084.32 285.333 2090.66 289.6 2095.06 295.6C2099.46 301.467 2101.66 308.733 2101.66 317.4C2101.66 325.133 2099.59 331.933 2095.46 337.8C2091.46 343.533 2085.66 348 2078.06 351.2C2070.59 354.4 2061.79 356 2051.66 356H1998.46C1992.99 356 1988.79 354.533 1985.86 351.6C1982.92 348.667 1981.46 344.467 1981.46 339V232C1981.46 226.533 1982.92 222.333 1985.86 219.4C1988.79 216.467 1992.99 215 1998.46 215H2049.66C2064.46 215 2076.19 218.333 2084.86 225C2093.66 231.533 2098.06 240.4 2098.06 251.6C2098.06 258.8 2096.12 265.2 2092.26 270.8C2088.39 276.267 2082.99 280.267 2076.06 282.8ZM2017.26 270.4H2043.46C2050.39 270.4 2055.46 269.333 2058.66 267.2C2061.86 265.067 2063.46 261.667 2063.46 257C2063.46 252.067 2061.86 248.467 2058.66 246.2C2055.46 243.933 2050.39 242.8 2043.46 242.8H2017.26V270.4ZM2047.06 328.2C2054.39 328.2 2059.59 327.067 2062.66 324.8C2065.86 322.4 2067.46 318.533 2067.46 313.2C2067.46 307.867 2065.86 304.067 2062.66 301.8C2059.59 299.4 2054.39 298.2 2047.06 298.2H2017.26V328.2H2047.06Z" fill="#266DD3"/>
<path d="M2135.92 357.2C2130.85 357.2 2126.59 355.867 2123.12 353.2C2119.79 350.4 2118.12 346.267 2118.12 340.8V272C2118.12 266.533 2119.79 262.467 2123.12 259.8C2126.59 257 2130.85 255.6 2135.92 255.6C2140.99 255.6 2145.19 257 2148.52 259.8C2151.99 262.467 2153.72 266.533 2153.72 272V340.8C2153.72 346.267 2151.99 350.4 2148.52 353.2C2145.19 355.867 2140.99 357.2 2135.92 357.2ZM2135.92 241.6C2129.92 241.6 2125.12 240.067 2121.52 237C2118.05 233.8 2116.32 229.6 2116.32 224.4C2116.32 219.2 2118.05 215.067 2121.52 212C2125.12 208.933 2129.92 207.4 2135.92 207.4C2141.79 207.4 2146.52 208.933 2150.12 212C2153.72 215.067 2155.52 219.2 2155.52 224.4C2155.52 229.6 2153.72 233.8 2150.12 237C2146.65 240.067 2141.92 241.6 2135.92 241.6Z" fill="#266DD3"/>
<path d="M2261.77 255.6C2267.1 255.6 2271.37 257.133 2274.57 260.2C2277.77 263.133 2279.37 267.067 2279.37 272V344C2279.37 360.267 2274.44 372.6 2264.57 381C2254.84 389.4 2240.5 393.6 2221.57 393.6C2214.24 393.6 2207.3 392.933 2200.77 391.6C2194.24 390.267 2188.7 388.333 2184.17 385.8C2181.77 384.467 2179.84 382.733 2178.37 380.6C2177.04 378.467 2176.37 376.067 2176.37 373.4C2176.37 369.533 2177.3 366.4 2179.17 364C2181.17 361.6 2183.7 360.4 2186.77 360.4C2189.17 360.4 2193.5 361.4 2199.77 363.4C2203.9 364.733 2207.57 365.733 2210.77 366.4C2213.97 367.2 2217.24 367.6 2220.57 367.6C2228.7 367.6 2234.64 365.867 2238.37 362.4C2242.24 359.067 2244.17 353.733 2244.17 346.4V338.8C2241.24 343.2 2237.04 346.733 2231.57 349.4C2226.1 351.933 2220.17 353.2 2213.77 353.2C2205.24 353.2 2197.64 351.2 2190.97 347.2C2184.3 343.2 2179.1 337.533 2175.37 330.2C2171.64 322.733 2169.77 314.133 2169.77 304.4C2169.77 294.667 2171.64 286.067 2175.37 278.6C2179.1 271.133 2184.3 265.4 2190.97 261.4C2197.64 257.267 2205.24 255.2 2213.77 255.2C2220.3 255.2 2226.3 256.533 2231.77 259.2C2237.24 261.867 2241.44 265.533 2244.37 270.2C2244.64 265.667 2246.3 262.133 2249.37 259.6C2252.57 256.933 2256.7 255.6 2261.77 255.6ZM2224.57 326.6C2230.84 326.6 2235.7 324.667 2239.17 320.8C2242.64 316.933 2244.37 311.467 2244.37 304.4C2244.37 297.333 2242.64 291.8 2239.17 287.8C2235.7 283.8 2230.84 281.8 2224.57 281.8C2218.44 281.8 2213.64 283.8 2210.17 287.8C2206.7 291.667 2204.97 297.2 2204.97 304.4C2204.97 311.333 2206.7 316.8 2210.17 320.8C2213.77 324.667 2218.57 326.6 2224.57 326.6Z" fill="#266DD3"/>
<path d="M2316.95 357.2C2311.35 357.2 2306.68 355.333 2302.95 351.6C2299.35 347.867 2297.55 343.267 2297.55 337.8C2297.55 332.333 2299.35 327.733 2302.95 324C2306.68 320.267 2311.35 318.4 2316.95 318.4C2322.42 318.4 2326.95 320.267 2330.55 324C2334.28 327.733 2336.15 332.333 2336.15 337.8C2336.15 343.267 2334.28 347.867 2330.55 351.6C2326.95 355.333 2322.42 357.2 2316.95 357.2Z" fill="#266DD3"/>
<path d="M340.792 512.861C341.304 514.013 341.56 515.037 341.56 515.933C341.56 517.725 340.824 519.261 339.352 520.541C337.944 521.757 336.312 522.365 334.456 522.365C333.24 522.365 332.088 522.045 331 521.405C329.912 520.701 329.08 519.677 328.504 518.333L323.416 507.005H290.872L285.784 518.333C285.208 519.677 284.376 520.701 283.288 521.405C282.264 522.045 281.112 522.365 279.832 522.365C277.976 522.365 276.312 521.757 274.84 520.541C273.368 519.261 272.632 517.725 272.632 515.933C272.632 515.037 272.888 514.013 273.4 512.861L299.32 458.428C300.024 456.892 301.08 455.74 302.488 454.972C303.896 454.14 305.4 453.724 307 453.724C308.664 453.724 310.2 454.14 311.608 454.972C313.016 455.804 314.104 456.956 314.872 458.428L340.792 512.861ZM295.96 495.676H318.328L307.192 470.716L295.96 495.676Z" fill="#2F2F41"/>
<path d="M378.23 473.692C383.862 473.692 388.054 475.356 390.806 478.684C393.558 481.948 394.934 486.908 394.934 493.564V515.741C394.934 517.853 394.262 519.516 392.918 520.732C391.638 521.948 389.878 522.557 387.638 522.557C385.398 522.557 383.638 521.948 382.358 520.732C381.078 519.516 380.438 517.853 380.438 515.741V494.236C380.438 491.036 379.83 488.701 378.614 487.229C377.462 485.757 375.638 485.021 373.142 485.021C370.134 485.021 367.702 485.98 365.846 487.9C364.054 489.82 363.158 492.381 363.158 495.581V515.741C363.158 517.853 362.518 519.516 361.238 520.732C359.958 521.948 358.198 522.557 355.958 522.557C353.718 522.557 351.926 521.948 350.582 520.732C349.302 519.516 348.662 517.853 348.662 515.741V480.508C348.662 478.524 349.334 476.924 350.678 475.708C352.086 474.492 353.878 473.884 356.054 473.884C358.038 473.884 359.638 474.492 360.854 475.708C362.134 476.861 362.774 478.364 362.774 480.22V481.564C364.438 479.004 366.582 477.052 369.206 475.708C371.894 474.365 374.902 473.692 378.23 473.692Z" fill="#2F2F41"/>
<path d="M445.979 453.82C448.219 453.82 450.011 454.428 451.355 455.644C452.763 456.86 453.467 458.46 453.467 460.444V515.741C453.467 517.789 452.795 519.452 451.451 520.732C450.171 521.948 448.443 522.557 446.267 522.557C444.091 522.557 442.331 521.948 440.987 520.732C439.707 519.452 439.067 517.789 439.067 515.741V514.972C437.659 517.405 435.643 519.324 433.019 520.732C430.459 522.076 427.547 522.749 424.283 522.749C420.251 522.749 416.635 521.724 413.435 519.676C410.299 517.564 407.835 514.653 406.043 510.941C404.315 507.165 403.451 502.844 403.451 497.98C403.451 493.116 404.315 488.861 406.043 485.213C407.835 481.501 410.299 478.653 413.435 476.668C416.571 474.684 420.187 473.692 424.283 473.692C427.483 473.692 430.363 474.365 432.923 475.708C435.547 477.052 437.563 478.941 438.971 481.373V460.156C438.971 458.236 439.611 456.7 440.891 455.548C442.171 454.396 443.867 453.82 445.979 453.82ZM428.507 511.708C431.899 511.708 434.491 510.557 436.283 508.253C438.139 505.885 439.067 502.525 439.067 498.173C439.067 493.821 438.139 490.493 436.283 488.188C434.491 485.885 431.899 484.732 428.507 484.732C425.115 484.732 422.491 485.885 420.635 488.188C418.779 490.429 417.851 493.692 417.851 497.98C417.851 502.332 418.779 505.725 420.635 508.157C422.491 510.525 425.115 511.708 428.507 511.708Z" fill="#2F2F41"/>
<path d="M498.739 522.557C496.627 522.557 494.867 521.98 493.459 520.828C492.115 519.676 491.443 517.981 491.443 515.741V480.701C491.443 478.46 492.147 476.764 493.555 475.612C494.963 474.46 496.691 473.884 498.739 473.884C500.787 473.884 502.483 474.46 503.827 475.612C505.235 476.764 505.939 478.46 505.939 480.701V515.741C505.939 517.981 505.235 519.676 503.827 520.828C502.483 521.98 500.787 522.557 498.739 522.557ZM498.739 466.204C496.179 466.204 494.163 465.564 492.691 464.285C491.219 462.94 490.483 461.148 490.483 458.909C490.483 456.668 491.219 454.908 492.691 453.628C494.163 452.348 496.179 451.708 498.739 451.708C501.235 451.708 503.219 452.38 504.691 453.724C506.227 455.004 506.995 456.732 506.995 458.909C506.995 461.148 506.259 462.94 504.787 464.285C503.315 465.564 501.299 466.204 498.739 466.204Z" fill="#2F2F41"/>
<path d="M546.057 511.997C547.977 512.125 549.385 512.605 550.281 513.437C551.177 514.269 551.625 515.485 551.625 517.085C551.625 518.941 550.889 520.349 549.417 521.309C547.945 522.269 545.833 522.653 543.081 522.461L540.393 522.269C529.193 521.373 523.593 515.517 523.593 504.701V485.692H519.753C517.641 485.692 516.041 485.244 514.953 484.348C513.865 483.389 513.321 482.045 513.321 480.316C513.321 478.524 513.865 477.181 514.953 476.285C516.041 475.324 517.641 474.844 519.753 474.844H523.593V467.357C523.593 465.244 524.233 463.58 525.513 462.364C526.857 461.148 528.649 460.54 530.889 460.54C533.129 460.54 534.889 461.148 536.169 462.364C537.449 463.58 538.089 465.244 538.089 467.357V474.844H544.809C549.161 474.844 551.337 476.668 551.337 480.316C551.337 482.045 550.793 483.389 549.705 484.348C548.617 485.244 546.985 485.692 544.809 485.692H538.089V505.757C538.089 507.677 538.537 509.148 539.433 510.173C540.329 511.133 541.641 511.677 543.369 511.805L546.057 511.997Z" fill="#2F2F41"/>
<path d="M564.442 453.82C567.002 453.82 569.05 454.748 570.586 456.604C572.122 458.396 572.89 461.02 572.89 464.476C572.89 471.132 570.49 476.956 565.69 481.948C564.858 482.844 563.866 483.292 562.714 483.292C561.626 483.292 560.666 482.94 559.834 482.236C559.002 481.468 558.586 480.572 558.586 479.548C558.586 478.652 558.938 477.82 559.642 477.052C561.754 474.812 563.162 472.412 563.866 469.852C561.69 469.66 559.93 468.861 558.586 467.452C557.242 466.044 556.57 464.252 556.57 462.076C556.57 459.708 557.306 457.756 558.778 456.22C560.314 454.62 562.202 453.82 564.442 453.82Z" fill="#2F2F41"/>
<path d="M598.174 522.749C594.27 522.749 590.878 522.428 587.998 521.788C585.118 521.148 582.59 520.124 580.414 518.716C579.454 518.14 578.718 517.372 578.206 516.412C577.694 515.452 577.438 514.364 577.438 513.148C577.438 511.676 577.854 510.461 578.686 509.5C579.518 508.476 580.542 507.965 581.758 507.965C582.59 507.965 583.422 508.124 584.254 508.444C585.086 508.7 585.95 509.02 586.846 509.404C588.638 510.236 590.398 510.909 592.126 511.421C593.854 511.869 595.998 512.092 598.558 512.092C600.798 512.092 602.526 511.74 603.742 511.036C605.022 510.332 605.662 509.373 605.662 508.157C605.662 507.261 605.374 506.557 604.798 506.045C604.286 505.469 603.294 504.956 601.822 504.508C600.35 504.06 598.014 503.516 594.814 502.876C589.118 501.788 585.022 500.156 582.526 497.98C580.03 495.804 578.782 492.764 578.782 488.86C578.782 485.98 579.646 483.389 581.374 481.084C583.166 478.781 585.598 476.989 588.67 475.708C591.742 474.365 595.198 473.692 599.038 473.692C601.79 473.692 604.478 474.045 607.102 474.749C609.726 475.452 612.062 476.444 614.11 477.724C616.094 478.94 617.086 480.732 617.086 483.1C617.086 484.636 616.67 485.916 615.838 486.94C615.006 487.964 613.982 488.477 612.766 488.477C611.294 488.477 609.534 487.901 607.486 486.749C605.886 485.917 604.414 485.308 603.07 484.924C601.79 484.476 600.254 484.253 598.462 484.253C596.478 484.253 594.91 484.636 593.758 485.404C592.606 486.108 592.03 487.101 592.03 488.381C592.03 489.725 592.702 490.748 594.046 491.452C595.39 492.156 597.982 492.86 601.822 493.564C606.11 494.396 609.47 495.42 611.902 496.637C614.334 497.789 616.094 499.261 617.182 501.053C618.27 502.845 618.814 505.116 618.814 507.868C618.814 512.412 616.926 516.028 613.15 518.716C609.438 521.404 604.446 522.749 598.174 522.749Z" fill="#2F2F41"/>
<path d="M671.768 522.749C667.864 522.749 664.472 522.428 661.592 521.788C658.712 521.148 656.184 520.124 654.008 518.716C653.048 518.14 652.312 517.372 651.8 516.412C651.288 515.452 651.032 514.364 651.032 513.148C651.032 511.676 651.448 510.461 652.28 509.5C653.112 508.476 654.136 507.965 655.352 507.965C656.184 507.965 657.016 508.124 657.848 508.444C658.68 508.7 659.544 509.02 660.44 509.404C662.232 510.236 663.992 510.909 665.72 511.421C667.448 511.869 669.592 512.092 672.152 512.092C674.392 512.092 676.12 511.74 677.336 511.036C678.616 510.332 679.256 509.373 679.256 508.157C679.256 507.261 678.968 506.557 678.392 506.045C677.88 505.469 676.888 504.956 675.416 504.508C673.944 504.06 671.608 503.516 668.408 502.876C662.712 501.788 658.616 500.156 656.12 497.98C653.624 495.804 652.376 492.764 652.376 488.86C652.376 485.98 653.24 483.389 654.968 481.084C656.76 478.781 659.192 476.989 662.264 475.708C665.336 474.365 668.792 473.692 672.632 473.692C675.384 473.692 678.072 474.045 680.696 474.749C683.32 475.452 685.656 476.444 687.704 477.724C689.688 478.94 690.68 480.732 690.68 483.1C690.68 484.636 690.264 485.916 689.432 486.94C688.6 487.964 687.576 488.477 686.36 488.477C684.888 488.477 683.128 487.901 681.08 486.749C679.48 485.917 678.008 485.308 676.664 484.924C675.384 484.476 673.848 484.253 672.056 484.253C670.072 484.253 668.504 484.636 667.352 485.404C666.2 486.108 665.624 487.101 665.624 488.381C665.624 489.725 666.296 490.748 667.64 491.452C668.984 492.156 671.576 492.86 675.416 493.564C679.704 494.396 683.064 495.42 685.496 496.637C687.928 497.789 689.688 499.261 690.776 501.053C691.864 502.845 692.408 505.116 692.408 507.868C692.408 512.412 690.52 516.028 686.744 518.716C683.032 521.404 678.04 522.749 671.768 522.749Z" fill="#2F2F41"/>
<path d="M723.349 522.749C718.357 522.749 713.973 521.756 710.197 519.772C706.421 517.724 703.509 514.877 701.461 511.229C699.413 507.517 698.389 503.165 698.389 498.173C698.389 493.181 699.413 488.861 701.461 485.213C703.509 481.501 706.421 478.653 710.197 476.668C713.973 474.684 718.357 473.692 723.349 473.692C728.341 473.692 732.725 474.684 736.501 476.668C740.277 478.653 743.189 481.501 745.237 485.213C747.285 488.861 748.309 493.181 748.309 498.173C748.309 503.165 747.285 507.517 745.237 511.229C743.189 514.877 740.277 517.724 736.501 519.772C732.725 521.756 728.341 522.749 723.349 522.749ZM723.349 511.708C730.389 511.708 733.909 507.197 733.909 498.173C733.909 493.629 732.981 490.237 731.125 487.997C729.333 485.757 726.741 484.636 723.349 484.636C716.309 484.636 712.789 489.148 712.789 498.173C712.789 507.197 716.309 511.708 723.349 511.708Z" fill="#2F2F41"/>
<path d="M824.839 473.884C827.015 473.884 828.743 474.524 830.023 475.804C831.367 477.02 832.039 478.653 832.039 480.701V516.893C832.039 524.509 829.831 530.269 825.415 534.173C820.999 538.077 814.535 540.029 806.023 540.029C798.855 540.029 792.967 538.748 788.359 536.188C787.207 535.549 786.311 534.748 785.671 533.788C785.031 532.892 784.711 531.868 784.711 530.716C784.711 529.116 785.095 527.805 785.863 526.781C786.631 525.757 787.655 525.244 788.935 525.244C789.639 525.244 790.471 525.373 791.431 525.629C792.391 525.949 793.383 526.301 794.407 526.685C796.455 527.453 798.343 528.06 800.071 528.508C801.799 528.956 803.655 529.181 805.639 529.181C809.735 529.181 812.775 528.252 814.759 526.396C816.743 524.54 817.735 521.725 817.735 517.949V512.764C816.391 515.196 814.375 517.116 811.687 518.524C808.999 519.932 805.991 520.636 802.663 520.636C798.567 520.636 794.919 519.677 791.719 517.757C788.583 515.837 786.119 513.117 784.327 509.597C782.535 506.013 781.639 501.885 781.639 497.213C781.639 492.541 782.535 488.444 784.327 484.924C786.119 481.34 788.583 478.588 791.719 476.668C794.919 474.684 798.567 473.692 802.663 473.692C805.927 473.692 808.871 474.396 811.495 475.804C814.183 477.148 816.231 479.036 817.639 481.468V480.508C817.639 478.46 818.279 476.861 819.559 475.708C820.903 474.492 822.663 473.884 824.839 473.884ZM806.887 509.597C810.279 509.597 812.903 508.509 814.759 506.333C816.679 504.156 817.639 501.117 817.639 497.213C817.639 493.309 816.679 490.268 814.759 488.092C812.903 485.852 810.279 484.732 806.887 484.732C803.495 484.732 800.839 485.852 798.919 488.092C796.999 490.268 796.039 493.309 796.039 497.213C796.039 501.117 796.999 504.156 798.919 506.333C800.839 508.509 803.495 509.597 806.887 509.597Z" fill="#2F2F41"/>
<path d="M871.321 473.884C873.241 473.756 874.745 474.205 875.833 475.229C876.985 476.188 877.561 477.66 877.561 479.645C877.561 481.757 877.049 483.324 876.025 484.348C875.001 485.372 873.177 486.013 870.553 486.269L867.673 486.556C864.153 486.941 861.593 488.093 859.993 490.013C858.457 491.933 857.689 494.396 857.689 497.404V515.741C857.689 517.981 856.985 519.676 855.577 520.828C854.233 521.98 852.537 522.557 850.489 522.557C848.377 522.557 846.617 521.98 845.209 520.828C843.865 519.676 843.193 517.981 843.193 515.741V480.508C843.193 478.396 843.897 476.764 845.305 475.612C846.713 474.46 848.409 473.884 850.393 473.884C852.313 473.884 853.913 474.46 855.193 475.612C856.473 476.7 857.113 478.236 857.113 480.22V482.812C858.265 480.06 859.993 477.948 862.297 476.476C864.665 475.004 867.225 474.173 869.977 473.981L871.321 473.884Z" fill="#2F2F41"/>
<path d="M918.611 507.965C919.891 507.965 920.915 508.476 921.683 509.5C922.515 510.524 922.931 511.837 922.931 513.437C922.931 514.525 922.611 515.548 921.971 516.508C921.331 517.404 920.435 518.172 919.283 518.812C917.107 519.964 914.579 520.925 911.699 521.693C908.819 522.397 906.163 522.749 903.731 522.749C898.611 522.749 894.131 521.756 890.291 519.772C886.515 517.788 883.603 514.973 881.555 511.325C879.507 507.613 878.483 503.261 878.483 498.269C878.483 493.469 879.475 489.212 881.459 485.5C883.443 481.788 886.195 478.908 889.715 476.86C893.235 474.748 897.235 473.692 901.715 473.692C906.003 473.692 909.747 474.652 912.947 476.572C916.211 478.428 918.739 481.116 920.531 484.636C922.323 488.092 923.219 492.156 923.219 496.828C923.219 498.236 922.867 499.324 922.163 500.092C921.523 500.796 920.595 501.148 919.379 501.148H892.499C892.947 504.924 894.099 507.676 895.955 509.404C897.811 511.068 900.467 511.901 903.923 511.901C905.779 511.901 907.443 511.677 908.915 511.229C910.387 510.781 912.019 510.172 913.811 509.404C914.707 509.02 915.571 508.7 916.403 508.444C917.235 508.124 917.971 507.965 918.611 507.965ZM902.099 483.676C899.347 483.676 897.139 484.572 895.475 486.364C893.811 488.092 892.819 490.62 892.499 493.948H911.027C910.835 490.556 909.971 487.997 908.435 486.269C906.963 484.541 904.851 483.676 902.099 483.676Z" fill="#2F2F41"/>
<path d="M953.19 473.692C960.102 473.692 965.222 475.388 968.55 478.78C971.878 482.108 973.542 487.228 973.542 494.14V515.837C973.542 517.949 972.934 519.612 971.718 520.828C970.502 521.98 968.806 522.557 966.63 522.557C964.582 522.557 962.918 521.948 961.638 520.732C960.422 519.452 959.814 517.821 959.814 515.837V515.165C958.854 517.533 957.254 519.388 955.014 520.732C952.774 522.076 950.15 522.749 947.142 522.749C943.942 522.749 941.03 522.108 938.406 520.828C935.846 519.548 933.798 517.756 932.262 515.452C930.79 513.148 930.054 510.588 930.054 507.772C930.054 504.316 930.918 501.596 932.646 499.612C934.438 497.628 937.286 496.189 941.19 495.292C945.094 494.396 950.438 493.948 957.222 493.948H959.718V492.221C959.718 489.532 959.11 487.58 957.894 486.364C956.742 485.148 954.79 484.541 952.038 484.541C949.286 484.541 945.318 485.501 940.134 487.421C938.662 488.125 937.414 488.477 936.39 488.477C934.982 488.477 933.862 487.997 933.03 487.036C932.198 486.012 931.782 484.7 931.782 483.1C931.782 481.82 932.07 480.764 932.646 479.932C933.222 479.1 934.15 478.332 935.43 477.628C937.67 476.412 940.39 475.452 943.59 474.749C946.854 474.045 950.054 473.692 953.19 473.692ZM950.31 512.764C953.126 512.764 955.398 511.836 957.126 509.98C958.854 508.06 959.718 505.597 959.718 502.589V500.957H958.086C952.902 500.957 949.254 501.372 947.142 502.204C945.094 503.036 944.07 504.54 944.07 506.716C944.07 508.508 944.646 509.98 945.798 511.132C947.014 512.22 948.518 512.764 950.31 512.764Z" fill="#2F2F41"/>
<path d="M1010.59 511.997C1012.51 512.125 1013.92 512.605 1014.81 513.437C1015.71 514.269 1016.16 515.485 1016.16 517.085C1016.16 518.941 1015.42 520.349 1013.95 521.309C1012.48 522.269 1010.36 522.653 1007.61 522.461L1004.92 522.269C993.724 521.373 988.124 515.517 988.124 504.701V485.692H984.284C982.172 485.692 980.572 485.244 979.484 484.348C978.396 483.389 977.852 482.045 977.852 480.316C977.852 478.524 978.396 477.181 979.484 476.285C980.572 475.324 982.172 474.844 984.284 474.844H988.124V467.357C988.124 465.244 988.764 463.58 990.044 462.364C991.388 461.148 993.18 460.54 995.42 460.54C997.66 460.54 999.42 461.148 1000.7 462.364C1001.98 463.58 1002.62 465.244 1002.62 467.357V474.844H1009.34C1013.69 474.844 1015.87 476.668 1015.87 480.316C1015.87 482.045 1015.32 483.389 1014.24 484.348C1013.15 485.244 1011.52 485.692 1009.34 485.692H1002.62V505.757C1002.62 507.677 1003.07 509.148 1003.96 510.173C1004.86 511.133 1006.17 511.677 1007.9 511.805L1010.59 511.997Z" fill="#2F2F41"/>
<path d="M1074.53 511.997C1076.45 512.125 1077.85 512.605 1078.75 513.437C1079.65 514.269 1080.09 515.485 1080.09 517.085C1080.09 518.941 1079.36 520.349 1077.89 521.309C1076.41 522.269 1074.3 522.653 1071.55 522.461L1068.86 522.269C1057.66 521.373 1052.06 515.517 1052.06 504.701V485.692H1048.22C1046.11 485.692 1044.51 485.244 1043.42 484.348C1042.33 483.389 1041.79 482.045 1041.79 480.316C1041.79 478.524 1042.33 477.181 1043.42 476.285C1044.51 475.324 1046.11 474.844 1048.22 474.844H1052.06V467.357C1052.06 465.244 1052.7 463.58 1053.98 462.364C1055.33 461.148 1057.12 460.54 1059.36 460.54C1061.6 460.54 1063.36 461.148 1064.64 462.364C1065.92 463.58 1066.56 465.244 1066.56 467.357V474.844H1073.28C1077.63 474.844 1079.81 476.668 1079.81 480.316C1079.81 482.045 1079.26 483.389 1078.17 484.348C1077.09 485.244 1075.45 485.692 1073.28 485.692H1066.56V505.757C1066.56 507.677 1067.01 509.148 1067.9 510.173C1068.8 511.133 1070.11 511.677 1071.84 511.805L1074.53 511.997Z" fill="#2F2F41"/>
<path d="M1108.1 522.749C1103.11 522.749 1098.72 521.756 1094.95 519.772C1091.17 517.724 1088.26 514.877 1086.21 511.229C1084.16 507.517 1083.14 503.165 1083.14 498.173C1083.14 493.181 1084.16 488.861 1086.21 485.213C1088.26 481.501 1091.17 478.653 1094.95 476.668C1098.72 474.684 1103.11 473.692 1108.1 473.692C1113.09 473.692 1117.47 474.684 1121.25 476.668C1125.03 478.653 1127.94 481.501 1129.99 485.213C1132.03 488.861 1133.06 493.181 1133.06 498.173C1133.06 503.165 1132.03 507.517 1129.99 511.229C1127.94 514.877 1125.03 517.724 1121.25 519.772C1117.47 521.756 1113.09 522.749 1108.1 522.749ZM1108.1 511.708C1115.14 511.708 1118.66 507.197 1118.66 498.173C1118.66 493.629 1117.73 490.237 1115.87 487.997C1114.08 485.757 1111.49 484.636 1108.1 484.636C1101.06 484.636 1097.54 489.148 1097.54 498.173C1097.54 507.197 1101.06 511.708 1108.1 511.708Z" fill="#2F2F41"/>
<path d="M1211.99 466.204C1209.49 466.204 1207.51 465.564 1206.04 464.285C1204.56 462.94 1203.83 461.148 1203.83 458.909C1203.83 456.732 1204.56 455.004 1206.04 453.724C1207.51 452.38 1209.49 451.708 1211.99 451.708C1214.48 451.708 1216.47 452.38 1217.94 453.724C1219.48 455.004 1220.24 456.732 1220.24 458.909C1220.24 461.148 1219.51 462.94 1218.04 464.285C1216.56 465.564 1214.55 466.204 1211.99 466.204ZM1212.76 474.844C1214.93 474.844 1216.56 475.324 1217.65 476.285C1218.74 477.244 1219.28 478.588 1219.28 480.316V515.741C1219.28 517.981 1218.58 519.676 1217.17 520.828C1215.83 521.98 1214.1 522.557 1211.99 522.557C1209.94 522.557 1208.21 521.98 1206.8 520.828C1205.46 519.676 1204.79 517.981 1204.79 515.741V485.692H1186.93V515.645C1186.93 517.885 1186.23 519.58 1184.82 520.732C1183.48 521.884 1181.78 522.461 1179.73 522.461C1177.62 522.461 1175.86 521.884 1174.45 520.732C1173.11 519.58 1172.44 517.885 1172.44 515.645V485.692H1168.6C1164.31 485.692 1162.16 483.9 1162.16 480.316C1162.16 476.668 1164.31 474.844 1168.6 474.844H1172.44C1172.5 468.828 1174.23 464.06 1177.62 460.54C1181.01 457.02 1185.65 454.972 1191.54 454.396L1193.56 454.204C1193.94 454.14 1194.52 454.108 1195.28 454.108C1199.25 454.108 1201.24 455.804 1201.24 459.196C1201.24 460.86 1200.76 462.172 1199.8 463.132C1198.9 464.028 1197.75 464.54 1196.34 464.669L1194.32 464.86C1191.7 465.116 1189.81 465.948 1188.66 467.357C1187.51 468.7 1186.93 470.652 1186.93 473.212V474.844H1212.76Z" fill="#2F2F41"/>
<path d="M1259.95 473.692C1265.58 473.692 1269.77 475.356 1272.52 478.684C1275.28 481.948 1276.65 486.908 1276.65 493.564V515.741C1276.65 517.853 1275.98 519.516 1274.64 520.732C1273.36 521.948 1271.6 522.557 1269.36 522.557C1267.12 522.557 1265.36 521.948 1264.08 520.732C1262.8 519.516 1262.16 517.853 1262.16 515.741V494.236C1262.16 491.036 1261.55 488.701 1260.33 487.229C1259.18 485.757 1257.36 485.021 1254.86 485.021C1251.85 485.021 1249.42 485.98 1247.56 487.9C1245.77 489.82 1244.88 492.381 1244.88 495.581V515.741C1244.88 517.853 1244.24 519.516 1242.96 520.732C1241.68 521.948 1239.92 522.557 1237.68 522.557C1235.44 522.557 1233.64 521.948 1232.3 520.732C1231.02 519.516 1230.38 517.853 1230.38 515.741V480.508C1230.38 478.524 1231.05 476.924 1232.4 475.708C1233.8 474.492 1235.6 473.884 1237.77 473.884C1239.76 473.884 1241.36 474.492 1242.57 475.708C1243.85 476.861 1244.49 478.364 1244.49 480.22V481.564C1246.16 479.004 1248.3 477.052 1250.92 475.708C1253.61 474.365 1256.62 473.692 1259.95 473.692Z" fill="#2F2F41"/>
<path d="M1308.69 473.692C1315.6 473.692 1320.72 475.388 1324.05 478.78C1327.38 482.108 1329.04 487.228 1329.04 494.14V515.837C1329.04 517.949 1328.43 519.612 1327.22 520.828C1326 521.98 1324.31 522.557 1322.13 522.557C1320.08 522.557 1318.42 521.948 1317.14 520.732C1315.92 519.452 1315.31 517.821 1315.31 515.837V515.165C1314.35 517.533 1312.75 519.388 1310.51 520.732C1308.27 522.076 1305.65 522.749 1302.64 522.749C1299.44 522.749 1296.53 522.108 1293.91 520.828C1291.35 519.548 1289.3 517.756 1287.76 515.452C1286.29 513.148 1285.55 510.588 1285.55 507.772C1285.55 504.316 1286.42 501.596 1288.15 499.612C1289.94 497.628 1292.79 496.189 1296.69 495.292C1300.59 494.396 1305.94 493.948 1312.72 493.948H1315.22V492.221C1315.22 489.532 1314.61 487.58 1313.39 486.364C1312.24 485.148 1310.29 484.541 1307.54 484.541C1304.79 484.541 1300.82 485.501 1295.63 487.421C1294.16 488.125 1292.91 488.477 1291.89 488.477C1290.48 488.477 1289.36 487.997 1288.53 487.036C1287.7 486.012 1287.28 484.7 1287.28 483.1C1287.28 481.82 1287.57 480.764 1288.15 479.932C1288.72 479.1 1289.65 478.332 1290.93 477.628C1293.17 476.412 1295.89 475.452 1299.09 474.749C1302.35 474.045 1305.55 473.692 1308.69 473.692ZM1305.81 512.764C1308.63 512.764 1310.9 511.836 1312.63 509.98C1314.35 508.06 1315.22 505.597 1315.22 502.589V500.957H1313.59C1308.4 500.957 1304.75 501.372 1302.64 502.204C1300.59 503.036 1299.57 504.54 1299.57 506.716C1299.57 508.508 1300.15 509.98 1301.3 511.132C1302.51 512.22 1304.02 512.764 1305.81 512.764Z" fill="#2F2F41"/>
<path d="M1347.18 522.557C1345.06 522.557 1343.3 521.98 1341.9 520.828C1340.55 519.676 1339.88 517.981 1339.88 515.741V460.636C1339.88 458.396 1340.55 456.7 1341.9 455.548C1343.3 454.396 1345.06 453.82 1347.18 453.82C1349.22 453.82 1350.92 454.396 1352.26 455.548C1353.67 456.7 1354.38 458.396 1354.38 460.636V515.741C1354.38 517.981 1353.67 519.676 1352.26 520.828C1350.92 521.98 1349.22 522.557 1347.18 522.557Z" fill="#2F2F41"/>
<path d="M1372.77 522.557C1370.66 522.557 1368.9 521.98 1367.49 520.828C1366.15 519.676 1365.47 517.981 1365.47 515.741V460.636C1365.47 458.396 1366.15 456.7 1367.49 455.548C1368.9 454.396 1370.66 453.82 1372.77 453.82C1374.82 453.82 1376.51 454.396 1377.86 455.548C1379.27 456.7 1379.97 458.396 1379.97 460.636V515.741C1379.97 517.981 1379.27 519.676 1377.86 520.828C1376.51 521.98 1374.82 522.557 1372.77 522.557Z" fill="#2F2F41"/>
<path d="M1423.23 478.012C1423.8 476.668 1424.6 475.676 1425.63 475.036C1426.72 474.396 1427.87 474.076 1429.08 474.076C1430.94 474.076 1432.57 474.684 1433.98 475.9C1435.39 477.052 1436.09 478.461 1436.09 480.125C1436.09 481.021 1435.87 481.917 1435.42 482.812L1409.6 535.805C1408.96 537.149 1408.09 538.141 1407 538.781C1405.92 539.485 1404.76 539.837 1403.55 539.837C1401.76 539.837 1400.19 539.261 1398.84 538.109C1397.5 536.957 1396.83 535.548 1396.83 533.884C1396.83 532.86 1397.05 531.901 1397.5 531.005L1403.84 517.853L1386.75 482.812C1386.36 481.917 1386.17 481.052 1386.17 480.22C1386.17 478.492 1386.91 477.02 1388.38 475.804C1389.92 474.588 1391.64 473.981 1393.56 473.981C1394.84 473.981 1396.03 474.333 1397.12 475.036C1398.2 475.676 1399.07 476.668 1399.71 478.012L1411.61 503.932L1423.23 478.012Z" fill="#2F2F41"/>
<path d="M1527.24 473.692C1532.36 473.692 1536.3 475.26 1539.05 478.396C1541.8 481.469 1543.18 486.524 1543.18 493.564V515.741C1543.18 517.981 1542.51 519.676 1541.16 520.828C1539.82 521.98 1538.09 522.557 1535.98 522.557C1533.93 522.557 1532.2 521.98 1530.79 520.828C1529.39 519.676 1528.68 517.981 1528.68 515.741V493.373C1528.68 490.301 1528.14 488.156 1527.05 486.94C1526.03 485.66 1524.43 485.021 1522.25 485.021C1519.56 485.021 1517.42 485.948 1515.82 487.805C1514.22 489.66 1513.42 492.253 1513.42 495.581V515.741C1513.42 517.981 1512.75 519.676 1511.4 520.828C1510.06 521.98 1508.33 522.557 1506.22 522.557C1504.17 522.557 1502.44 521.98 1501.03 520.828C1499.63 519.676 1498.92 517.981 1498.92 515.741V493.373C1498.92 490.301 1498.38 488.156 1497.29 486.94C1496.27 485.66 1494.67 485.021 1492.49 485.021C1489.8 485.021 1487.66 485.948 1486.06 487.805C1484.46 489.66 1483.66 492.253 1483.66 495.581V515.741C1483.66 517.981 1482.95 519.676 1481.55 520.828C1480.2 521.98 1478.51 522.557 1476.46 522.557C1474.41 522.557 1472.68 521.98 1471.27 520.828C1469.87 519.676 1469.16 517.981 1469.16 515.741V480.508C1469.16 478.396 1469.87 476.764 1471.27 475.612C1472.75 474.46 1474.51 473.884 1476.55 473.884C1478.47 473.884 1480.07 474.46 1481.35 475.612C1482.63 476.7 1483.27 478.236 1483.27 480.22V481.181C1484.81 478.748 1486.79 476.892 1489.23 475.612C1491.72 474.332 1494.54 473.692 1497.67 473.692C1501.07 473.692 1503.91 474.396 1506.22 475.804C1508.59 477.148 1510.41 479.356 1511.69 482.428C1513.16 479.74 1515.24 477.628 1517.93 476.092C1520.68 474.492 1523.79 473.692 1527.24 473.692Z" fill="#2F2F41"/>
<path d="M1591.92 507.965C1593.2 507.965 1594.23 508.476 1595 509.5C1595.83 510.524 1596.24 511.837 1596.24 513.437C1596.24 514.525 1595.92 515.548 1595.28 516.508C1594.64 517.404 1593.75 518.172 1592.6 518.812C1590.42 519.964 1587.89 520.925 1585.01 521.693C1582.13 522.397 1579.48 522.749 1577.04 522.749C1571.92 522.749 1567.44 521.756 1563.6 519.772C1559.83 517.788 1556.92 514.973 1554.87 511.325C1552.82 507.613 1551.8 503.261 1551.8 498.269C1551.8 493.469 1552.79 489.212 1554.77 485.5C1556.76 481.788 1559.51 478.908 1563.03 476.86C1566.55 474.748 1570.55 473.692 1575.03 473.692C1579.32 473.692 1583.06 474.652 1586.26 476.572C1589.52 478.428 1592.05 481.116 1593.84 484.636C1595.64 488.092 1596.53 492.156 1596.53 496.828C1596.53 498.236 1596.18 499.324 1595.48 500.092C1594.84 500.796 1593.91 501.148 1592.69 501.148H1565.81C1566.26 504.924 1567.41 507.676 1569.27 509.404C1571.12 511.068 1573.78 511.901 1577.24 511.901C1579.09 511.901 1580.76 511.677 1582.23 511.229C1583.7 510.781 1585.33 510.172 1587.12 509.404C1588.02 509.02 1588.88 508.7 1589.72 508.444C1590.55 508.124 1591.28 507.965 1591.92 507.965ZM1575.41 483.676C1572.66 483.676 1570.45 484.572 1568.79 486.364C1567.12 488.092 1566.13 490.62 1565.81 493.948H1584.34C1584.15 490.556 1583.28 487.997 1581.75 486.269C1580.28 484.541 1578.16 483.676 1575.41 483.676Z" fill="#2F2F41"/>
<path d="M1643.11 507.965C1644.39 507.965 1645.41 508.476 1646.18 509.5C1647.01 510.524 1647.43 511.837 1647.43 513.437C1647.43 514.525 1647.11 515.548 1646.47 516.508C1645.83 517.404 1644.93 518.172 1643.78 518.812C1641.61 519.964 1639.08 520.925 1636.2 521.693C1633.32 522.397 1630.66 522.749 1628.23 522.749C1623.11 522.749 1618.63 521.756 1614.79 519.772C1611.01 517.788 1608.1 514.973 1606.05 511.325C1604.01 507.613 1602.98 503.261 1602.98 498.269C1602.98 493.469 1603.97 489.212 1605.96 485.5C1607.94 481.788 1610.69 478.908 1614.21 476.86C1617.73 474.748 1621.73 473.692 1626.21 473.692C1630.5 473.692 1634.25 474.652 1637.45 476.572C1640.71 478.428 1643.24 481.116 1645.03 484.636C1646.82 488.092 1647.72 492.156 1647.72 496.828C1647.72 498.236 1647.37 499.324 1646.66 500.092C1646.02 500.796 1645.09 501.148 1643.88 501.148H1617C1617.45 504.924 1618.6 507.676 1620.45 509.404C1622.31 511.068 1624.97 511.901 1628.42 511.901C1630.28 511.901 1631.94 511.677 1633.41 511.229C1634.89 510.781 1636.52 510.172 1638.31 509.404C1639.21 509.02 1640.07 508.7 1640.9 508.444C1641.73 508.124 1642.47 507.965 1643.11 507.965ZM1626.6 483.676C1623.85 483.676 1621.64 484.572 1619.97 486.364C1618.31 488.092 1617.32 490.62 1617 493.948H1635.53C1635.33 490.556 1634.47 487.997 1632.93 486.269C1631.46 484.541 1629.35 483.676 1626.6 483.676Z" fill="#2F2F41"/>
<path d="M1681.74 511.997C1683.66 512.125 1685.07 512.605 1685.97 513.437C1686.86 514.269 1687.31 515.485 1687.31 517.085C1687.31 518.941 1686.58 520.349 1685.1 521.309C1683.63 522.269 1681.52 522.653 1678.77 522.461L1676.08 522.269C1664.88 521.373 1659.28 515.517 1659.28 504.701V485.692H1655.44C1653.33 485.692 1651.73 485.244 1650.64 484.348C1649.55 483.389 1649.01 482.045 1649.01 480.316C1649.01 478.524 1649.55 477.181 1650.64 476.285C1651.73 475.324 1653.33 474.844 1655.44 474.844H1659.28V467.357C1659.28 465.244 1659.92 463.58 1661.2 462.364C1662.54 461.148 1664.34 460.54 1666.58 460.54C1668.82 460.54 1670.58 461.148 1671.86 462.364C1673.14 463.58 1673.78 465.244 1673.78 467.357V474.844H1680.5C1684.85 474.844 1687.02 476.668 1687.02 480.316C1687.02 482.045 1686.48 483.389 1685.39 484.348C1684.3 485.244 1682.67 485.692 1680.5 485.692H1673.78V505.757C1673.78 507.677 1674.22 509.148 1675.12 510.173C1676.02 511.133 1677.33 511.677 1679.06 511.805L1681.74 511.997Z" fill="#2F2F41"/>
<path d="M1751.63 478.012C1752.21 476.668 1753.01 475.676 1754.03 475.036C1755.12 474.396 1756.27 474.076 1757.49 474.076C1759.35 474.076 1760.98 474.684 1762.39 475.9C1763.79 477.052 1764.5 478.461 1764.5 480.125C1764.5 481.021 1764.27 481.917 1763.83 482.812L1738 535.805C1737.36 537.149 1736.5 538.141 1735.41 538.781C1734.32 539.485 1733.17 539.837 1731.95 539.837C1730.16 539.837 1728.59 539.261 1727.25 538.109C1725.91 536.957 1725.23 535.548 1725.23 533.884C1725.23 532.86 1725.46 531.901 1725.91 531.005L1732.24 517.853L1715.15 482.812C1714.77 481.917 1714.58 481.052 1714.58 480.22C1714.58 478.492 1715.31 477.02 1716.79 475.804C1718.32 474.588 1720.05 473.981 1721.97 473.981C1723.25 473.981 1724.43 474.333 1725.52 475.036C1726.61 475.676 1727.47 476.668 1728.11 478.012L1740.02 503.932L1751.63 478.012Z" fill="#2F2F41"/>
<path d="M1792.47 522.749C1787.48 522.749 1783.1 521.756 1779.32 519.772C1775.55 517.724 1772.63 514.877 1770.59 511.229C1768.54 507.517 1767.51 503.165 1767.51 498.173C1767.51 493.181 1768.54 488.861 1770.59 485.213C1772.63 481.501 1775.55 478.653 1779.32 476.668C1783.1 474.684 1787.48 473.692 1792.47 473.692C1797.47 473.692 1801.85 474.684 1805.63 476.668C1809.4 478.653 1812.31 481.501 1814.36 485.213C1816.41 488.861 1817.43 493.181 1817.43 498.173C1817.43 503.165 1816.41 507.517 1814.36 511.229C1812.31 514.877 1809.4 517.724 1805.63 519.772C1801.85 521.756 1797.47 522.749 1792.47 522.749ZM1792.47 511.708C1799.51 511.708 1803.03 507.197 1803.03 498.173C1803.03 493.629 1802.11 490.237 1800.25 487.997C1798.46 485.757 1795.87 484.636 1792.47 484.636C1785.43 484.636 1781.91 489.148 1781.91 498.173C1781.91 507.197 1785.43 511.708 1792.47 511.708Z" fill="#2F2F41"/>
<path d="M1864.37 473.884C1866.61 473.884 1868.37 474.492 1869.65 475.708C1870.99 476.924 1871.66 478.588 1871.66 480.701V515.933C1871.66 517.917 1870.96 519.516 1869.55 520.732C1868.21 521.948 1866.45 522.557 1864.27 522.557C1862.22 522.557 1860.59 521.98 1859.38 520.828C1858.16 519.676 1857.55 518.141 1857.55 516.221V515.261C1856.08 517.693 1854.13 519.548 1851.7 520.828C1849.33 522.108 1846.64 522.749 1843.63 522.749C1837.68 522.749 1833.23 521.117 1830.29 517.853C1827.41 514.525 1825.97 509.532 1825.97 502.876V480.701C1825.97 478.588 1826.61 476.924 1827.89 475.708C1829.23 474.492 1831.02 473.884 1833.26 473.884C1835.5 473.884 1837.26 474.492 1838.54 475.708C1839.82 476.924 1840.46 478.588 1840.46 480.701V503.165C1840.46 505.981 1841.04 508.06 1842.19 509.404C1843.41 510.748 1845.23 511.421 1847.66 511.421C1850.48 511.421 1852.75 510.461 1854.48 508.541C1856.27 506.621 1857.17 504.093 1857.17 500.957V480.701C1857.17 478.588 1857.81 476.924 1859.09 475.708C1860.37 474.492 1862.13 473.884 1864.37 473.884Z" fill="#2F2F41"/>
<path d="M1889.7 522.557C1887.33 522.557 1885.38 521.789 1883.84 520.253C1882.31 518.653 1881.54 516.668 1881.54 514.3C1881.54 511.932 1882.31 509.98 1883.84 508.444C1885.38 506.844 1887.33 506.045 1889.7 506.045C1892.07 506.045 1894.02 506.844 1895.55 508.444C1897.09 509.98 1897.86 511.932 1897.86 514.3C1897.86 516.668 1897.09 518.653 1895.55 520.253C1894.02 521.789 1892.07 522.557 1889.7 522.557Z" fill="#2F2F41"/>
</svg>
