<svg width="539" height="435" fill="none" xmlns="http://www.w3.org/2000/svg"><path d="M451.492 223.644c-.13 28.74-13.265 63.189-50.448 102.995M451.259 229.733c.459-11.237 42.904-11 31.974 23.609-9.451 29.924-33.892 29.233-42.894 19.35" stroke="#266DD3" stroke-width="14" stroke-miterlimit="10" stroke-linecap="round"/><path d="M150.233 285.698c-46.937 6.238-73.699 38.349-78.287 63.045-.525 2.825.438 5.701 2.487 7.713 7.732 7.583 29.035 24.098 52.542 4.319 10.435-4.269 45.058-16.651 67.517-21.027a15.843 15.843 0 0111.902 2.452c38.478 26.078 66.002 28.761 101.026 31.026a21.224 21.224 0 0113.283 5.813c15.605 14.881 63.177 55.259 110.023 44.468 1.912-.441 3.467-1.844 4.208-3.661l13.523-33.132s-55.135-48.452-61.753-90.757" stroke="#266DD3" stroke-width="14" stroke-miterlimit="10" stroke-linecap="round"/><path d="M72.743 278.657s-5.247 2.767-10.887 7.041c-6.502 4.925-13.527 11.849-13.656 18.846-.242 13.07 22.945 29.425 27.325 30.928" stroke="#266DD3" stroke-width="14" stroke-miterlimit="10" stroke-linecap="round"/><path d="M61.855 285.698s28.507 23.27 27.474 29.424c0 0 38.508 37.649 37.646 45.653M405.818 423.818s13.765-55.127 25.63-53.835c0 0 18.263-32.849 26.35-32.849" stroke="#266DD3" stroke-width="14" stroke-miterlimit="10" stroke-linecap="round"/><path d="M426.268 299.095s38.123 42.178 38.362 50.126c.109 3.608-4.411 33.817-16.173 37.492M153.645 58.636c-12.719 3.582-22.12 5.317-29.54 5.982-10.111.907-16.544-.17-22.684-1.257-3.208-.568-4.678-4.356-2.701-6.945 54.482-71.382 75.663-7.502 75.663-7.502l1.819 6.185M125.397 97.335s3.354-33.05-3.173-32.716" stroke="#266DD3" stroke-width="14" stroke-miterlimit="10" stroke-linecap="round"/><path d="M38.567 141.842s23.7 11.16 23.7 50.537" stroke="#266DD3" stroke-width="14" stroke-miterlimit="10" stroke-linecap="round" stroke-linejoin="round"/><path d="M29.328 181.943c.288 0 .63-.144 1.012-.547.383-.405.758-1.027 1.087-1.85.657-1.644 1.079-3.96 1.079-6.552 0-2.592-.422-4.908-1.079-6.552-.33-.823-.704-1.445-1.087-1.85-.382-.403-.724-.547-1.012-.547-.29 0-.632.144-1.013.547-.384.405-.76 1.027-1.089 1.85-.657 1.644-1.078 3.96-1.078 6.552 0 2.592.421 4.908 1.078 6.551.33.824.706 1.446 1.089 1.851.381.403.724.547 1.013.547zM41.535 189.586c.5 0 1.044-.25 1.609-.847.566-.598 1.106-1.5 1.574-2.669.933-2.335 1.526-5.606 1.526-9.254 0-3.648-.593-6.919-1.526-9.254-.468-1.169-1.008-2.071-1.574-2.669-.565-.597-1.108-.848-1.609-.848-.499 0-1.042.251-1.607.848-.565.598-1.106 1.5-1.573 2.669-.934 2.335-1.527 5.606-1.527 9.254 0 3.648.593 6.919 1.527 9.254.467 1.169 1.008 2.071 1.573 2.669.565.597 1.108.847 1.607.847z" fill="#266DD3" stroke="#266DD3"/><path d="M45.145 248.337s45.895 17.992 69.566-14.471M170.76 73.37s-58.65 17.216-61.022 49.585c-1.714 23.411-33.418 41.066-65.969 19.685-20.577-13.516-65.123 78.895 1.377 105.697 1.446.583 2.098 2.246 1.36 3.62 0 0-.74 8.17 17.632 20.898 0 0 15.116 11.616 42.499 27.85" stroke="#266DD3" stroke-width="14" stroke-miterlimit="10" stroke-linecap="round"/><path d="M301.606 108.298c-6.19-5.628-9.592-9.255-9.592-9.255-6.162-5.762-9.939-10.016-13.503-17.193-16.784-33.795-39.289-98.061-100.794-28.594-3.115 3.517-5.513 7.703-6.482 12.3-7.401 35.116 74.183 3.654 74.183 3.654M451.492 223.644c-.039-4.187-.579-8.691-1.432-13.249" stroke="#266DD3" stroke-width="14" stroke-miterlimit="10" stroke-linecap="round"/><path d="M234.479 205.282S347.604 7.976 460.062 10.016c12.469.226 20.258 13.658 14.254 24.587-18.395 33.488-56.359 85.067-88.213 88.193M458.704 61.086c10.215-.798 18.667-.375 25.114.413 10.024 1.225 17.794 9.798 17.655 19.896-.23 16.653-9.93 31.756-23.22 44.674-29.664 28.836-77.209 46.785-77.209 46.785" stroke="#266DD3" stroke-width="14" stroke-miterlimit="10" stroke-linecap="round"/><path d="M472.369 131.457c19.654-7.993 33.811-9.584 43.054-9.177 8.127.358 14.256 7.661 13.453 15.757-8.687 87.722-179.199 85.194-179.199 85.194M126.989 149.526s29.402-39.969 23.7 12.438" stroke="#266DD3" stroke-width="14" stroke-miterlimit="10" stroke-linecap="round"/></svg>