<svg width="539" height="435" viewBox="0 0 539 435" fill="none" xmlns="http://www.w3.org/2000/svg">
<path d="M451.492 223.644C451.362 252.384 438.227 286.833 401.044 326.639" stroke="#266DD3" stroke-width="14" stroke-miterlimit="10" stroke-linecap="round"/>
<path d="M451.259 229.733C451.718 218.496 494.163 218.733 483.233 253.342C473.782 283.266 449.341 282.575 440.339 272.692" stroke="#266DD3" stroke-width="14" stroke-miterlimit="10" stroke-linecap="round"/>
<path d="M150.233 285.698C103.296 291.936 76.5342 324.047 71.9459 348.743C71.4207 351.568 72.3835 354.444 74.4335 356.456C82.1654 364.039 103.468 380.554 126.975 360.775C137.41 356.506 172.033 344.124 194.492 339.748C198.623 338.943 202.91 339.84 206.394 342.2C244.872 368.278 272.396 370.961 307.42 373.226C312.394 373.548 317.095 375.599 320.703 379.039C336.308 393.92 383.88 434.298 430.726 423.507C432.638 423.066 434.193 421.663 434.934 419.846L448.457 386.714C448.457 386.714 393.322 338.262 386.704 295.957" stroke="#266DD3" stroke-width="14" stroke-miterlimit="10" stroke-linecap="round"/>
<path d="M72.7426 278.657C72.7426 278.657 67.4963 281.424 61.8555 285.698C55.3543 290.623 48.3289 297.547 48.2003 304.544C47.9577 317.614 71.145 333.969 75.5255 335.472" stroke="#266DD3" stroke-width="14" stroke-miterlimit="10" stroke-linecap="round"/>
<path d="M61.8553 285.698C61.8553 285.698 90.3617 308.968 89.3293 315.122C89.3293 315.122 127.837 352.771 126.975 360.775" stroke="#266DD3" stroke-width="14" stroke-miterlimit="10" stroke-linecap="round"/>
<path d="M405.818 423.818C405.818 423.818 419.583 368.691 431.448 369.983C431.448 369.983 449.711 337.134 457.798 337.134" stroke="#266DD3" stroke-width="14" stroke-miterlimit="10" stroke-linecap="round"/>
<path d="M426.268 299.095C426.268 299.095 464.391 341.273 464.63 349.221C464.739 352.829 460.219 383.038 448.457 386.713" stroke="#266DD3" stroke-width="14" stroke-miterlimit="10" stroke-linecap="round"/>
<path d="M153.645 58.636C140.926 62.2183 131.525 63.953 124.105 64.6184C113.994 65.5253 107.561 64.4486 101.421 63.3614C98.2128 62.793 96.7428 59.0051 98.72 56.4162C153.202 -14.9657 174.383 48.9142 174.383 48.9142L176.202 55.0991" stroke="#266DD3" stroke-width="14" stroke-miterlimit="10" stroke-linecap="round"/>
<path d="M125.397 97.3347C125.397 97.3347 128.751 64.2854 122.224 64.6186" stroke="#266DD3" stroke-width="14" stroke-miterlimit="10" stroke-linecap="round"/>
<path d="M38.5668 141.842C38.5668 141.842 62.2676 153.002 62.2676 192.379" stroke="#266DD3" stroke-width="14" stroke-miterlimit="10" stroke-linecap="round" stroke-linejoin="round"/>
<path d="M29.3278 181.943C29.616 181.943 29.9582 181.799 30.3397 181.396C30.7225 180.991 31.0979 180.369 31.4273 179.546C32.0845 177.902 32.506 175.586 32.506 172.994C32.506 170.402 32.0845 168.086 31.4273 166.442C31.0979 165.619 30.7225 164.997 30.3397 164.592C29.9582 164.189 29.616 164.045 29.3278 164.045C29.0389 164.045 28.6963 164.189 28.3146 164.592C27.9315 164.997 27.5559 165.619 27.2264 166.442C26.569 168.086 26.1475 170.402 26.1475 172.994C26.1475 175.586 26.569 177.902 27.2264 179.545C27.5559 180.369 27.9315 180.991 28.3146 181.396C28.6963 181.799 29.0389 181.943 29.3278 181.943Z" fill="#266DD3" stroke="#266DD3"/>
<path d="M41.5354 189.586C42.0356 189.586 42.5793 189.336 43.1438 188.739C43.7096 188.141 44.2499 187.239 44.7175 186.07C45.6514 183.735 46.2438 180.464 46.2438 176.816C46.2438 173.168 45.6514 169.897 44.7175 167.562C44.2499 166.393 43.7096 165.491 43.1437 164.893C42.5792 164.296 42.0355 164.045 41.5354 164.045C41.036 164.045 40.4927 164.296 39.9283 164.893C39.3626 165.491 38.8223 166.393 38.3547 167.562C37.4208 169.897 36.8282 173.168 36.8282 176.816C36.8282 180.464 37.4208 183.735 38.3547 186.07C38.8223 187.239 39.3625 188.141 39.9283 188.739C40.4926 189.336 41.036 189.586 41.5354 189.586Z" fill="#266DD3" stroke="#266DD3"/>
<path d="M45.1453 248.337C45.1453 248.337 91.04 266.329 114.711 233.866" stroke="#266DD3" stroke-width="14" stroke-miterlimit="10" stroke-linecap="round"/>
<path d="M170.76 73.3707C170.76 73.3707 112.11 90.5861 109.738 122.955C108.024 146.366 76.3198 164.021 43.7693 142.64C23.192 129.124 -21.3539 221.535 45.1455 248.337C46.5923 248.92 47.244 250.583 46.5069 251.957C46.5069 251.957 45.7655 260.127 64.1378 272.855C64.1378 272.855 79.2536 284.471 106.637 300.705" stroke="#266DD3" stroke-width="14" stroke-miterlimit="10" stroke-linecap="round"/>
<path d="M301.606 108.298C295.416 102.67 292.014 99.0431 292.014 99.0431C285.852 93.2811 282.075 89.027 278.511 81.8498C261.727 48.0549 239.222 -16.211 177.717 53.2559C174.602 56.7728 172.204 60.9594 171.235 65.5561C163.834 100.672 245.418 69.2101 245.418 69.2101" stroke="#266DD3" stroke-width="14" stroke-miterlimit="10" stroke-linecap="round"/>
<path d="M451.492 223.644C451.453 219.457 450.913 214.953 450.06 210.395" stroke="#266DD3" stroke-width="14" stroke-miterlimit="10" stroke-linecap="round"/>
<path d="M234.479 205.282C234.479 205.282 347.604 7.97631 460.062 10.0158C472.531 10.2415 480.32 23.6742 474.316 34.6035C455.921 68.0915 417.957 119.67 386.103 122.796" stroke="#266DD3" stroke-width="14" stroke-miterlimit="10" stroke-linecap="round"/>
<path d="M458.704 61.0864C468.919 60.2881 477.371 60.711 483.818 61.4988C493.842 62.7241 501.612 71.2975 501.473 81.3948C501.243 98.0481 491.543 113.151 478.253 126.069C448.589 154.905 401.044 172.854 401.044 172.854" stroke="#266DD3" stroke-width="14" stroke-miterlimit="10" stroke-linecap="round"/>
<path d="M472.369 131.457C492.023 123.464 506.18 121.873 515.423 122.28C523.55 122.638 529.679 129.941 528.876 138.037C520.189 225.759 349.677 223.231 349.677 223.231" stroke="#266DD3" stroke-width="14" stroke-miterlimit="10" stroke-linecap="round"/>
<path d="M126.989 149.526C126.989 149.526 156.391 109.557 150.689 161.964" stroke="#266DD3" stroke-width="14" stroke-miterlimit="10" stroke-linecap="round"/>
</svg>
