<svg width="2639" height="725" fill="none" xmlns="http://www.w3.org/2000/svg"><path d="M125.979 511c-12.3 0-21.75-3.3-28.35-9.9-6.6-6.6-9.9-16.05-9.9-28.35V232c0-12.3 3.3-21.75 9.9-28.35 6.6-6.6 16.05-9.9 28.35-9.9h155.7c12.9 0 22.65 2.7 29.25 8.1 6.6 5.4 9.9 13.2 9.9 23.4 0 21.6-13.05 32.4-39.15 32.4h-113.4v60.3h104.4c26.1 0 39.15 10.65 39.15 31.95 0 10.2-3.3 18-9.9 23.4-6.6 5.4-16.35 8.1-29.25 8.1h-104.4v65.7h113.4c26.1 0 39.15 10.8 39.15 32.4 0 10.2-3.3 18-9.9 23.4-6.6 5.4-16.35 8.1-29.25 8.1h-155.7zm428.706-58.05c7.5 7.5 11.25 16.05 11.25 25.65 0 9.3-3.6 17.55-10.8 24.75-7.2 7.2-15.6 10.8-25.2 10.8-9.9 0-18.75-4.05-26.55-12.15l-52.65-54.9-52.2 54.9c-7.8 8.1-16.65 12.15-26.55 12.15-9.6 0-18-3.6-25.2-10.8-7.2-7.2-10.8-15.45-10.8-24.75 0-9.6 3.75-18.15 11.25-25.65l55.8-55.8-51.3-50.4c-7.5-7.5-11.25-16.05-11.25-25.65 0-9.6 3.45-18 10.35-25.2 7.2-7.2 15.6-10.8 25.2-10.8 10.2 0 19.05 4.2 26.55 12.6l48.15 49.05 48.6-49.05c7.8-8.1 16.65-12.15 26.55-12.15 9.6 0 17.85 3.6 24.75 10.8 7.2 6.9 10.8 15 10.8 24.3 0 9.6-3.75 18.3-11.25 26.1l-51.3 50.4 55.8 55.8zm218.728-13.05c6.9 0 12.45 2.7 16.65 8.1 4.5 5.4 6.75 12.45 6.75 21.15 0 12-5.85 21.15-17.55 27.45-10.2 5.1-22.35 9.45-36.45 13.05-13.8 3.3-26.55 4.95-38.25 4.95-24.6 0-46.05-4.65-64.35-13.95-18.3-9.3-32.4-22.65-42.3-40.05-9.9-17.4-14.85-37.8-14.85-61.2 0-22.2 4.65-42 13.95-59.4 9.6-17.7 22.8-31.35 39.6-40.95 17.1-9.9 36.3-14.85 57.6-14.85 20.7 0 38.85 4.5 54.45 13.5 15.6 9 27.6 21.75 36 38.25 8.7 16.5 13.05 35.85 13.05 58.05 0 6.9-1.65 12.3-4.95 16.2-3 3.6-7.5 5.4-13.5 5.4h-118.8c2.1 14.4 6.75 24.75 13.95 31.05 7.2 6.3 17.85 9.45 31.95 9.45 7.5 0 14.4-.75 20.7-2.25 6.3-1.8 13.35-4.2 21.15-7.2 4.5-1.8 8.85-3.3 13.05-4.5 4.5-1.5 8.55-2.25 12.15-2.25zm-76.95-101.7c-10.5 0-18.9 3.45-25.2 10.35-6.3 6.6-10.05 16.35-11.25 29.25h70.65c-1.8-26.4-13.2-39.6-34.2-39.6zm244.42 176.4c-36 0-64.5-10.2-85.5-30.6-21-20.4-31.5-48.15-31.5-83.25 0-23.1 5.1-43.5 15.3-61.2 10.2-17.7 24.45-31.35 42.75-40.95 18.6-9.6 39.75-14.4 63.45-14.4 12.6 0 25.2 1.65 37.8 4.95 12.6 3.3 23.697 7.95 33.297 13.95 9.3 5.7 13.95 14.4 13.95 26.1 0 9.3-2.25 16.95-6.75 22.95-4.2 5.7-9.75 8.55-16.65 8.55-4.5 0-8.847-.6-13.047-1.8-4.2-1.5-8.85-3.6-13.95-6.3-6-2.7-11.1-4.65-15.3-5.85-4.2-1.5-8.85-2.25-13.95-2.25-29.7 0-44.55 18.15-44.55 54.45 0 18 3.75 31.8 11.25 41.4 7.8 9.3 18.9 13.95 33.3 13.95 5.1 0 9.75-.6 13.95-1.8 4.5-1.5 9.45-3.6 14.85-6.3 6-2.7 10.8-4.65 14.4-5.85 3.9-1.5 8.097-2.25 12.597-2.25 6.9 0 12.45 3 16.65 9 4.5 5.7 6.75 13.2 6.75 22.5 0 5.7-1.2 10.95-3.6 15.75-2.4 4.5-5.7 7.95-9.9 10.35-20.697 12.6-45.897 18.9-75.597 18.9zm301.497-229.5c12.3 0 22.05 3.3 29.25 9.9 7.2 6.6 10.8 15.6 10.8 27v155.7c0 10.5-3.75 19.2-11.25 26.1-7.5 6.6-17.25 9.9-29.25 9.9-10.8 0-19.65-2.85-26.55-8.55-6.9-6-10.5-13.95-10.8-23.85-6.9 10.8-15.75 19.05-26.55 24.75-10.5 5.7-22.65 8.55-36.45 8.55-28.5 0-49.65-7.8-63.45-23.4-13.8-15.9-20.7-39.9-20.7-72V322c0-11.4 3.6-20.4 10.8-27 7.2-6.6 16.95-9.9 29.25-9.9s22.05 3.3 29.25 9.9c7.2 6.6 10.8 15.6 10.8 27v99c0 21.6 9.3 32.4 27.9 32.4 10.8 0 19.65-3.9 26.55-11.7 6.9-7.8 10.35-18 10.35-30.6V322c0-11.4 3.6-20.4 10.8-27 7.2-6.6 16.95-9.9 29.25-9.9zm217.63 171.45c20.1 1.2 30.15 10.2 30.15 27 0 10.5-4.05 18.3-12.15 23.4-8.1 5.1-19.65 7.2-34.65 6.3l-12.6-.9c-27-2.1-47.55-10.2-61.65-24.3-13.8-14.4-20.7-34.35-20.7-59.85v-79.65h-13.05c-24 0-36-9.9-36-29.7 0-19.5 12-29.25 36-29.25h13.05v-29.25c0-11.4 3.6-20.4 10.8-27 7.2-6.9 16.95-10.35 29.25-10.35s22.05 3.45 29.25 10.35c7.2 6.6 10.8 15.6 10.8 27v29.25h24.75c24 0 36 9.75 36 29.25 0 19.8-12 29.7-36 29.7h-24.75v86.4c0 5.7 1.65 10.5 4.95 14.4 3.6 3.9 8.1 6 13.5 6.3l13.05.9zm231.42-16.65c6.9 0 12.45 2.7 16.65 8.1 4.5 5.4 6.75 12.45 6.75 21.15 0 12-5.85 21.15-17.55 27.45-10.2 5.1-22.35 9.45-36.45 13.05-13.8 3.3-26.55 4.95-38.25 4.95-24.6 0-46.05-4.65-64.35-13.95-18.3-9.3-32.4-22.65-42.3-40.05-9.9-17.4-14.85-37.8-14.85-61.2 0-22.2 4.65-42 13.95-59.4 9.6-17.7 22.8-31.35 39.6-40.95 17.1-9.9 36.3-14.85 57.6-14.85 20.7 0 38.85 4.5 54.45 13.5 15.6 9 27.6 21.75 36 38.25 8.7 16.5 13.05 35.85 13.05 58.05 0 6.9-1.65 12.3-4.95 16.2-3 3.6-7.5 5.4-13.5 5.4h-118.8c2.1 14.4 6.75 24.75 13.95 31.05 7.2 6.3 17.85 9.45 31.95 9.45 7.5 0 14.4-.75 20.7-2.25 6.3-1.8 13.35-4.2 21.15-7.2 4.5-1.8 8.85-3.3 13.05-4.5 4.5-1.5 8.55-2.25 12.15-2.25zm-76.95-101.7c-10.5 0-18.9 3.45-25.2 10.35-6.3 6.6-10.05 16.35-11.25 29.25h70.65c-1.8-26.4-13.2-39.6-34.2-39.6zm484.78 8.1c18.6 5.7 32.85 15.3 42.75 28.8 9.9 13.2 14.85 29.55 14.85 49.05 0 17.4-4.65 32.7-13.95 45.9-9 12.9-22.05 22.95-39.15 30.15-16.8 7.2-36.6 10.8-59.4 10.8h-119.7c-12.3 0-21.75-3.3-28.35-9.9-6.6-6.6-9.9-16.05-9.9-28.35V232c0-12.3 3.3-21.75 9.9-28.35 6.6-6.6 16.05-9.9 28.35-9.9h115.2c33.3 0 59.7 7.5 79.2 22.5 19.8 14.7 29.7 34.65 29.7 59.85 0 16.2-4.35 30.6-13.05 43.2-8.7 12.3-20.85 21.3-36.45 27zm-132.3-27.9h58.95c15.6 0 27-2.4 34.2-7.2 7.2-4.8 10.8-12.45 10.8-22.95 0-11.1-3.6-19.2-10.8-24.3-7.2-5.1-18.6-7.65-34.2-7.65h-58.95v62.1zm67.05 130.05c16.5 0 28.2-2.55 35.1-7.65 7.2-5.4 10.8-14.1 10.8-26.1 0-12-3.6-20.55-10.8-25.65-6.9-5.4-18.6-8.1-35.1-8.1h-67.05v67.5h67.05zm199.94 65.25c-11.4 0-21-3-28.8-9-7.5-6.3-11.25-15.6-11.25-27.9V322c0-12.3 3.75-21.45 11.25-27.45 7.8-6.3 17.4-9.45 28.8-9.45 11.4 0 20.85 3.15 28.35 9.45 7.8 6 11.7 15.15 11.7 27.45v154.8c0 12.3-3.9 21.6-11.7 27.9-7.5 6-16.95 9-28.35 9zm0-260.1c-13.5 0-24.3-3.45-32.4-10.35-7.8-7.2-11.7-16.65-11.7-28.35 0-11.7 3.9-21 11.7-27.9 8.1-6.9 18.9-10.35 32.4-10.35 13.2 0 23.85 3.45 31.95 10.35 8.1 6.9 12.15 16.2 12.15 27.9s-4.05 21.15-12.15 28.35c-7.8 6.9-18.45 10.35-31.95 10.35zm283.16 31.5c12 0 21.6 3.45 28.8 10.35 7.2 6.6 10.8 15.45 10.8 26.55v162c0 36.6-11.1 64.35-33.3 83.25-21.9 18.9-54.15 28.35-96.75 28.35-16.5 0-32.1-1.5-46.8-4.5-14.7-3-27.15-7.35-37.35-13.05-5.4-3-9.75-6.9-13.05-11.7-3-4.8-4.5-10.2-4.5-16.2 0-8.7 2.1-15.75 6.3-21.15 4.5-5.4 10.2-8.1 17.1-8.1 5.4 0 15.15 2.25 29.25 6.75 9.3 3 17.55 5.25 24.75 6.75 7.2 1.8 14.55 2.7 22.05 2.7 18.3 0 31.65-3.9 40.05-11.7 8.7-7.5 13.05-19.5 13.05-36v-17.1c-6.6 9.9-16.05 17.85-28.35 23.85-12.3 5.7-25.65 8.55-40.05 8.55-19.2 0-36.3-4.5-51.3-13.5s-26.7-21.75-35.1-38.25c-8.4-16.8-12.6-36.15-12.6-58.05s4.2-41.25 12.6-58.05c8.4-16.8 20.1-29.7 35.1-38.7 15-9.3 32.1-13.95 51.3-13.95 14.7 0 28.2 3 40.5 9s21.75 14.25 28.35 24.75c.6-10.2 4.35-18.15 11.25-23.85 7.2-6 16.5-9 27.9-9zm-83.7 159.75c14.1 0 25.05-4.35 32.85-13.05 7.8-8.7 11.7-21 11.7-36.9 0-15.9-3.9-28.35-11.7-37.35-7.8-9-18.75-13.5-32.85-13.5-13.8 0-24.6 4.5-32.4 13.5-7.8 8.7-11.7 21.15-11.7 37.35 0 15.6 3.9 27.9 11.7 36.9 8.1 8.7 18.9 13.05 32.4 13.05z" fill="#266DD3"/></svg>