<svg xmlns="http://www.w3.org/2000/svg" width="119" height="26"><path fill-rule="evenodd" opacity=".349" fill="#424770" d="M113 26H6a6 6 0 01-6-6V6a6 6 0 016-6h107a6 6 0 016 6v14a6 6 0 01-6 6zm5-20a5 5 0 00-5-5H6a5 5 0 00-5 5v14a5 5 0 005 5h107a5 5 0 005-5V6z"/><path fill-rule="evenodd" opacity=".502" fill="#424770" d="M60.7 18.437h-1.305l1.01-2.494-2.01-5.072h1.379l1.263 3.452 1.273-3.452h1.379L60.7 18.437zm-5.01-2.178c-.452 0-.916-.168-1.336-.495v.369h-1.347V8.566h1.347v2.663c.42-.316.884-.484 1.336-.484 1.41 0 2.378 1.136 2.378 2.757 0 1.62-.968 2.757-2.378 2.757zm-.284-4.357c-.368 0-.737.158-1.052.474v2.252c.315.315.684.473 1.052.473.758 0 1.284-.652 1.284-1.599s-.526-1.6-1.284-1.6zm-7.852 3.862c-.41.327-.873.495-1.336.495-1.4 0-2.378-1.137-2.378-2.757 0-1.621.978-2.757 2.378-2.757.463 0 .926.168 1.336.484V8.566h1.358v7.567h-1.358v-.369zm0-3.388c-.305-.316-.673-.474-1.041-.474-.769 0-1.295.653-1.295 1.6 0 .947.526 1.599 1.295 1.599.368 0 .736-.158 1.041-.473v-2.252zm-8.019 1.494c.084.8.716 1.347 1.599 1.347.485 0 1.021-.179 1.568-.495v1.127a4.298 4.298 0 01-1.789.41c-1.589 0-2.704-1.158-2.704-2.799 0-1.589 1.094-2.715 2.599-2.715 1.379 0 2.315 1.084 2.315 2.63 0 .148 0 .316-.021.495h-3.567zm1.221-2.084c-.653 0-1.158.485-1.221 1.211h2.294c-.042-.716-.473-1.211-1.073-1.211zm-4.768.832v3.515h-1.347v-5.262h1.347v.526c.379-.421.842-.652 1.294-.652.148 0 .295.01.442.052v1.2a1.77 1.77 0 00-.473-.063c-.442 0-.916.242-1.263.684zm-6.009 1.252c.084.8.715 1.347 1.599 1.347.484 0 1.021-.179 1.568-.495v1.127c-.6.273-1.2.41-1.789.41-1.589 0-2.704-1.158-2.704-2.799 0-1.589 1.094-2.715 2.599-2.715 1.378 0 2.315 1.084 2.315 2.63 0 .148 0 .316-.021.495h-3.567zm1.22-2.084c-.652 0-1.157.485-1.22 1.211h2.294c-.042-.716-.474-1.211-1.074-1.211zm-5.925 4.347L24.2 12.555l-1.063 3.578h-1.21l-1.81-5.262h1.347l1.063 3.578 1.063-3.578h1.22l1.063 3.578 1.063-3.578h1.347l-1.799 5.262h-1.21zm-8.231.126c-1.589 0-2.715-1.147-2.715-2.757 0-1.621 1.126-2.757 2.715-2.757s2.705 1.136 2.705 2.757c0 1.61-1.116 2.757-2.705 2.757zm0-4.388c-.789 0-1.336.663-1.336 1.631s.547 1.631 1.336 1.631c.779 0 1.326-.663 1.326-1.631s-.547-1.631-1.326-1.631zm-5.915 1.662h-1.21v2.6H8.571V8.892h2.557c1.474 0 2.526.958 2.526 2.326s-1.052 2.315-2.526 2.315zm-.189-3.546H9.918v2.452h1.021c.779 0 1.326-.495 1.326-1.221 0-.736-.547-1.231-1.326-1.231zM111.116 14.051h-5.559c.127 1.331 1.102 1.723 2.209 1.723 1.127 0 2.015-.238 2.789-.628v2.287c-.771.428-1.79.736-3.147.736-2.766 0-4.704-1.732-4.704-5.156 0-2.892 1.644-5.188 4.345-5.188 2.697 0 4.105 2.295 4.105 5.203 0 .275-.025.87-.038 1.023zm-4.085-3.911c-.71 0-1.499.536-1.499 1.815h2.936c0-1.278-.74-1.815-1.437-1.815zm-8.923 8.029c-.994 0-1.601-.419-2.009-.718l-.006 3.213-2.839.604-.001-13.254h2.5l.148.701a3.18 3.18 0 012.224-.89c1.994 0 3.872 1.796 3.872 5.102 0 3.608-1.858 5.242-3.889 5.242zm-.662-7.829c-.651 0-1.06.238-1.356.563l.017 4.219c.276.299.673.539 1.339.539 1.05 0 1.754-1.143 1.754-2.672 0-1.485-.715-2.649-1.754-2.649zm-8.297-2.326h2.85v9.952h-2.85V8.014zm0-3.178l2.85-.606v2.313l-2.85.606V4.836zm-3.039 6.383v6.747h-2.838V8.014h2.455l.178.839c.665-1.222 1.992-.974 2.37-.838v2.61c-.361-.117-1.494-.287-2.165.594zm-6.086 3.256c0 1.673 1.792 1.152 2.155 1.007v2.311c-.378.208-1.064.376-1.992.376-1.685 0-2.95-1.241-2.95-2.922l.013-9.109 2.772-.59.002 2.466h2.156v2.421h-2.156v4.04zm-3.539.484c0 2.044-1.627 3.21-3.988 3.21-.979 0-2.049-.19-3.105-.644v-2.711c.953.518 2.167.907 3.108.907.633 0 1.089-.17 1.089-.695 0-1.355-4.316-.845-4.316-3.988 0-2.01 1.535-3.213 3.838-3.213.941 0 1.881.144 2.822.519v2.675c-.864-.467-1.961-.731-2.824-.731-.595 0-.965.172-.965.615 0 1.278 4.341.67 4.341 4.056z"/></svg>