<svg width="650" height="650" fill="none" xmlns="http://www.w3.org/2000/svg"><path d="M0 325C0 81.25 81.25 0 325 0s325 81.25 325 325-81.25 325-325 325S0 568.75 0 325z" fill="#266DD3"/><path fill-rule="evenodd" clip-rule="evenodd" d="M463.25 241.25c15.318 0 27.75 12.432 27.75 27.75v166.5c0 15.318-12.432 27.75-27.75 27.75h-277.5c-15.318 0-27.75-12.432-27.75-27.75V269c0-15.318 12.432-27.75 27.75-27.75h69.375V213.5c0-15.318 12.432-27.75 27.75-27.75h83.25c15.318 0 27.75 12.432 27.75 27.75v27.75h69.375zm0 34.688a6.94 6.94 0 00-6.938-6.938H192.688a6.94 6.94 0 00-6.938 6.938v152.625a6.94 6.94 0 006.938 6.937h263.624a6.94 6.94 0 006.938-6.937V275.938zm-124.875 62.437H380v27.75h-41.625v41.625h-27.75v-41.625H269v-27.75h41.625V296.75h27.75v41.625zM359.188 213.5h-69.376a6.94 6.94 0 00-6.937 6.938v20.812h83.25v-20.812a6.94 6.94 0 00-6.937-6.938z" fill="#fff"/></svg>