<svg width="650" height="650" viewBox="0 0 650 650" fill="none" xmlns="http://www.w3.org/2000/svg">
<path d="M0 325C0 81.25 81.25 0 325 0C568.75 0 650 81.25 650 325C650 568.75 568.75 650 325 650C81.25 650 0 568.75 0 325Z" fill="#266DD3"/>
<path d="M460.531 249.965C467.18 246.643 475 251.478 475 258.911V362.812C475 370.244 467.18 375.079 460.531 371.758L393.182 338.111V283.611L460.531 249.965ZM393.182 208.688C393.182 235.025 371.814 256.375 345.455 256.375C319.095 256.375 297.727 235.025 297.727 208.688C297.727 182.35 319.095 161 345.455 161C371.814 161 393.182 182.35 393.182 208.688ZM222.727 161C196.368 161 175 182.35 175 208.688C175 235.025 196.368 256.375 222.727 256.375C249.086 256.375 270.455 235.025 270.455 208.688C270.455 182.35 249.086 161 222.727 161ZM345.455 283.625C320.118 283.625 297.673 271.008 284.091 251.729C270.509 271.008 248.064 283.625 222.727 283.625C215.623 283.625 208.791 282.562 202.273 280.723V344.938C202.273 356.233 211.436 365.375 222.727 365.375H345.455C356.745 365.375 365.909 356.233 365.909 344.938V280.723C359.391 282.562 352.559 283.625 345.455 283.625ZM302.95 392.625H265.232L196.114 461.66C192.204 465.566 192.203 471.903 196.113 475.81L201.246 480.939C205.151 484.84 211.477 484.84 215.382 480.939L270.455 425.924V477.959C270.455 483.482 274.932 487.959 280.455 487.959H287.727C293.25 487.959 297.727 483.482 297.727 477.959V425.924L352.8 480.939C356.705 484.84 363.031 484.84 366.936 480.939L372.069 475.81C375.978 471.903 375.978 465.566 372.068 461.66L302.95 392.625Z" fill="white"/>
</svg>
