<svg width="650" height="650" fill="none" xmlns="http://www.w3.org/2000/svg"><path d="M0 325C0 81.25 81.25 0 325 0s325 81.25 325 325-81.25 325-325 325S0 568.75 0 325z" fill="#266DD3"/><path d="M402.265 331.3c39.412 0 71.485 25.148 71.485 56.079 0 15.832-6.545 24.668-15.612 35.468-.297 10.545-.694 14.899 1.97 26.378-12.623-4.326-13.969-5.598-23.602-11.493-12.665 3.082-21.094 5.372-34.921 5.372-43.732 0-70.805-28.923-70.805-55.725 0-30.931 32.073-56.079 71.485-56.079zm0-21.205c-48.677 0-92.735 32.401-92.735 77.284 0 39.567 37.301 76.93 92.055 76.93 9.903 0 20.4-1.23 31.351-3.888 12.948 7.931 41.551 15.946 61.653 19.579-7.508-14.758-15.824-35.044-15.413-49.18C489.291 418.761 495 403.211 495 387.379c0-44.643-43.761-77.284-92.735-77.284zM282.061 375.32c-16.122-1.555-22.823-3.491-36.989-6.941-13.742 8.426-17.85 11.521-42.614 19.424 5.922-21.403 5.157-30.86 4.718-44.996-11.815-14.137-23.843-29.263-23.843-55.74 0-49.506 50.845-89.794 113.334-89.794 60.406 0 109.763 37.659 113.021 84.874 9.889.538 19.508 1.98 28.631 4.453-.311-68.335-67.461-117.6-141.652-117.6C221.852 169 155 218.859 155 287.067c0 24.173 8.713 47.936 24.154 66.37.666 21.586-12.056 52.559-23.531 75.107 30.714-5.528 74.404-17.784 94.194-29.899a208.709 208.709 0 0033.009 5.287c-1.913-10.588-2.097-18.617-.765-28.612z" fill="#fff"/></svg>