<svg width="650" height="650" fill="none" xmlns="http://www.w3.org/2000/svg"><path d="M0 325C0 81.25 81.25 0 325 0s325 81.25 325 325-81.25 325-325 325S0 568.75 0 325z" fill="#266DD3"/><path d="M353 384.333h-44.5V369.5H353v14.833zm4.702-74.166l12.801-14.834H308.5v44.5h38.047l2.863-14.225.208-.608h-26.285v-14.833h34.369zm65.623 60.876l-44.723-39.709-.104.133-5.026 38.197c-.924 7.021 5.541 12.752 12.401 10.991l37.452-9.612zm9.627-11.274l91.602-107.401c3.567-4.182 3.09-10.458-1.067-14.053l-29.415-25.435c-4.181-3.614-10.501-3.153-14.112 1.031L388.303 320.12l44.649 39.649zM278.833 325h-44.5v14.833h44.5V325zm178 89H204.667V265.667h191.439L421.708 236H185c-5.523 0-10 4.477-10 10v187.667c0 5.523 4.477 10 10 10h291.5c5.523 0 10-4.477 10-10v-91.253l-29.667 34.666V414zm-178-118.667h-44.5v14.834h44.5v-14.834zm-44.5 89h44.5V369.5h-44.5v14.833z" fill="#fff"/></svg>