<svg width="650" height="650" viewBox="0 0 650 650" fill="none" xmlns="http://www.w3.org/2000/svg">
<path d="M0 325C0 81.25 81.25 0 325 0C568.75 0 650 81.25 650 325C650 568.75 568.75 650 325 650C81.25 650 0 568.75 0 325Z" fill="#266DD3"/>
<path d="M353 384.333H308.5V369.5H353V384.333ZM357.702 310.167L370.503 295.333H308.5V339.833H346.547L349.41 325.608L349.618 325H323.333V310.167H357.702ZM423.325 371.043L378.602 331.334L378.498 331.467L373.472 369.664C372.548 376.685 379.013 382.416 385.873 380.655L423.325 371.043ZM432.952 359.769L524.554 252.368C528.121 248.186 527.644 241.91 523.487 238.315L494.072 212.88C489.891 209.266 483.571 209.727 479.96 213.911L388.303 320.12L432.952 359.769ZM278.833 325H234.333V339.833H278.833V325ZM456.833 414H204.667V265.667H396.106L421.708 236H185C179.477 236 175 240.477 175 246V433.667C175 439.19 179.477 443.667 185 443.667H476.5C482.023 443.667 486.5 439.19 486.5 433.667V342.414L456.833 377.08V414ZM278.833 295.333H234.333V310.167H278.833V295.333ZM234.333 384.333H278.833V369.5H234.333V384.333Z" fill="white"/>
</svg>
