<svg width="650" height="650" fill="none" xmlns="http://www.w3.org/2000/svg"><path d="M0 325C0 81.25 81.25 0 325 0s325 81.25 325 325-81.25 325-325 325S0 568.75 0 325z" fill="#266DD3"/><path d="M519 373.829C407.859 437.761 318.033 350.728 202.938 471L130 309.264l22.724-23.733 61.705 136.364-.032.114c120.671-90.763 181.452-19.077 293.517-74.022 4.765 10.512 9.157 21.608 11.086 25.842zm-144.319-100.74c-7.618-17.763-28.899-29.638-47.523-26.54-18.639 3.099-27.586 20.002-19.952 37.766 8.071 18.736 31.136 30.741 50.148 26.004 16.825-4.169 24.588-20.31 17.327-37.23zm-23.47 22.111l1.686 3.715-3.533.73-1.573-3.553c-3.646.665-7.812.568-11.653-.438l-1.054-6.278c3.161.487 7.099.941 10.098.324l2.026-.665c3.582-1.768 2.48-6.278-2.853-7.348-3.955-.876-14.474-.227-18.396-8.955-2.205-4.932-.568-10.074 5.77-12.426l-1.751-3.877 3.518-.73 1.685 3.715c2.577-.422 5.592-.584 9.126-.276l1.41 6.213c-2.739-.341-5.722-.665-8.299-.13l-.972.26c-5.009 1.33-3.404 6.083 1.037 7.235 7.342 1.703 16.111 2.255 19.58 9.928 2.787 6.245-.454 10.512-5.852 12.556zm91.48-78.143l39.176 84.534c-69.356 37.052-159.993-5.515-243.125 40.572l-37.49-82.165c62.775-43.703 149.068-.568 241.439-42.941zM457.311 179c-100.151 64.954-210.822-5.159-290.956 72.254L227.38 384.6c85.871-72.87 202.912-3.86 290.972-72.27L457.311 179z" fill="#fff"/></svg>