<svg width="650" height="650" viewBox="0 0 650 650" fill="none" xmlns="http://www.w3.org/2000/svg">
<path d="M0 325C0 81.25 81.25 0 325 0C568.75 0 650 81.25 650 325C650 568.75 568.75 650 325 650C81.25 650 0 568.75 0 325Z" fill="#266DD3"/>
<path d="M169.139 381.782C155.258 396.577 143.504 400.989 125 396.046L169.006 472.093C173.279 453.948 182.556 443.764 202.34 439.17L431.508 383.576C444.489 380.427 450.794 365.682 444.103 354.122L365.349 218.042C358.728 206.601 343.025 204.616 333.765 214.051L169.139 381.782ZM357.334 426.68L349.571 461.81C348.008 468.079 343.07 472.989 336.786 474.598L287.709 487.435C281.641 489.011 275.19 487.236 270.785 482.791L244.617 454.396L271.3 447.844L282.04 460.615C284.966 463.551 289.222 464.729 293.245 463.7L319.812 456.651C324.001 455.59 327.276 452.322 328.307 448.159L331 433.132L357.334 426.68ZM502.288 239.805L457.666 266.559L445.098 245.627L489.753 218.89L502.288 239.805ZM429.204 220.549L407.01 210.332L429.321 162L451.515 172.234L429.204 220.549ZM522.62 322.669L469.387 319.783L470.734 295.418L524 298.321L522.62 322.669Z" fill="white"/>
</svg>
