<svg width="650" height="650" fill="none" xmlns="http://www.w3.org/2000/svg"><path d="M0 325C0 81.25 81.25 0 325 0s325 81.25 325 325-81.25 325-325 325S0 568.75 0 325z" fill="#266DD3"/><path d="M169.139 381.782c-13.881 14.795-25.635 19.207-44.139 14.264l44.006 76.047c4.273-18.145 13.55-28.329 33.334-32.923l229.168-55.594c12.981-3.149 19.286-17.894 12.595-29.454l-78.754-136.08c-6.621-11.441-22.324-13.426-31.584-3.991L169.139 381.782zm188.195 44.898l-7.763 35.13c-1.563 6.269-6.501 11.179-12.785 12.788l-49.077 12.837a17.607 17.607 0 01-16.924-4.644l-26.168-28.395 26.683-6.552 10.74 12.771a11.715 11.715 0 0011.205 3.085l26.567-7.049c4.189-1.061 7.464-4.329 8.495-8.492L331 433.132l26.334-6.452zm144.954-186.875l-44.622 26.754-12.568-20.932 44.655-26.737 12.535 20.915zm-73.084-19.256l-22.194-10.217L429.321 162l22.194 10.234-22.311 48.315zm93.416 102.12l-53.233-2.886 1.347-24.365L524 298.321l-1.38 24.348z" fill="#fff"/></svg>