<svg width="650" height="650" fill="none" xmlns="http://www.w3.org/2000/svg"><path d="M0 325C0 81.25 81.25 0 325 0s325 81.25 325 325-81.25 325-325 325S0 568.75 0 325z" fill="#266DD3"/><path fill-rule="evenodd" clip-rule="evenodd" d="M249.424 526h-.017c-4.455 0-8.157-3.618-8.157-8.157v-8.593c-18.492 0-33.5-15.008-33.5-33.5V258c0-18.492 15.008-33.5 33.5-33.5h33.5v-83.75c0-9.246 7.504-16.75 16.75-16.75h67c9.263 0 16.75 7.521 16.75 16.75v83.75h33.5c18.509 0 33.5 15.008 33.5 33.5v217.75c0 18.492-14.991 33.5-33.5 33.5v8.174a8.56 8.56 0 01-8.576 8.576h-.017c-4.438 0-8.157-3.584-8.157-8.157v-8.593H258v8.174a8.571 8.571 0 01-8.576 8.576zm-8.174-50.25h167.5V258h-167.5v217.75zm33.634-167.5h-8.509a8.378 8.378 0 01-8.375-8.375 8.378 8.378 0 018.375-8.375h117.25a8.367 8.367 0 018.375 8.375 8.367 8.367 0 01-8.375 8.375h-75.911c4.389 5.092 7.755 11.139 9.682 16.8l21.59.05 59.094 59.329-47.452 47.285-59.111-59.345.05-24.723c-10.167-6.951-17.889-22.01-16.683-39.396zm61.004 54.789l30.501 30.502-5.929 5.913-30.485-30.485 5.913-5.93zm11.457 29.229l-5.93 5.913-20.334-20.335 5.929-5.912 20.335 20.334zm-2.58-38.106l30.502 30.502-5.913 5.912-30.502-30.485 5.913-5.929zm-26.331-12.161c-1.541 4.59-5.578 7.739-10.15 9.028.703 6.985 9.229 10.051 14.237 5.076 4.707-4.657 2.328-12.646-4.087-14.104zm-35.125-33.751c-.887 11.507 2.613 21.557 8.275 28.174l.033-11.424 16.801.033c-3.166-7.269-7.806-12.964-12.797-16.783h-12.312zM358.5 224.5v-58.625a8.367 8.367 0 00-8.375-8.375h-50.25a8.378 8.378 0 00-8.375 8.375V224.5h67z" fill="#fff"/></svg>