<svg xmlns="http://www.w3.org/2000/svg" width="650" height="650" fill="none" viewBox="0 0 650 650"><path fill="#266DD3" d="M0 325C0 81.25 81.25 0 325 0C568.75 0 650 81.25 650 325C650 568.75 568.75 650 325 650C81.25 650 0 568.75 0 325Z"/><g clip-path="url(#clip0)"><path fill="#fff" fill-rule="evenodd" d="M160 461.583H324.5V489H160V461.583ZM310.792 447.875H173.708C173.708 432.727 185.977 420.458 201.125 420.458H283.375C298.523 420.458 310.792 432.727 310.792 447.875ZM398.1 271.874L367.311 301.991C367.311 301.991 453.55 377.949 479.336 399.923C485.847 405.475 489 412.658 489 419.745C489 433.659 476.827 445.599 462.269 444.681C455.14 444.242 448.821 440.527 444.16 435.126C421.966 409.423 347.242 322.046 347.242 322.046L316.467 352.15L236.177 271.874L317.838 191.584L398.1 271.874V271.874ZM229.501 284.568C226.828 281.922 223.223 280.428 219.453 280.428C215.697 280.428 212.092 281.922 209.419 284.568C206.773 287.241 205.265 290.846 205.265 294.616C205.265 298.372 206.773 301.977 209.419 304.65L284.993 380.197C287.652 382.87 291.257 384.364 295.027 384.364C298.797 384.364 302.402 382.87 305.062 380.197C307.721 377.551 309.215 373.932 309.215 370.162C309.215 366.406 307.721 362.801 305.062 360.142L229.501 284.568V284.568ZM349.915 164.154C347.242 161.494 343.637 160 339.881 160C331.985 160 325.693 166.402 325.693 174.188C325.693 177.958 327.173 181.577 329.846 184.223L405.42 259.797C408.08 262.442 411.671 263.95 415.441 263.95C423.282 263.95 429.643 257.59 429.643 249.762C429.643 245.992 428.149 242.373 425.476 239.728L349.915 164.154V164.154Z" clip-rule="evenodd"/></g><defs><clipPath id="clip0"><rect width="329" height="329" fill="#fff" transform="translate(160 160)"/></clipPath></defs></svg>