<svg xmlns="http://www.w3.org/2000/svg" width="650" height="650" fill="none" viewBox="0 0 650 650"><path fill="#4772FF" d="M0 325C0 81.25 81.25 0 325 0C568.75 0 650 81.25 650 325C650 568.75 568.75 650 325 650C81.25 650 0 568.75 0 325Z"/><path fill="#fff" d="M176 205.75C170.477 205.75 166 210.227 166 215.75V434.25C166 439.773 170.477 444.25 176 444.25H474C479.523 444.25 484 439.773 484 434.25V215.75C484 210.227 479.523 205.75 474 205.75H176ZM451.113 232.25L331.296 329.345C327.626 332.32 322.374 332.32 318.704 329.345L198.887 232.25H451.113ZM192.5 417.75V261.175L318.704 363.45C322.374 366.425 327.626 366.425 331.296 363.45L457.5 261.175V417.75H192.5Z"/></svg>