<svg xmlns="http://www.w3.org/2000/svg" width="650" height="650" fill="none" viewBox="0 0 650 650"><path fill="#266DD3" d="M0 325C0 81.25 81.25 0 325 0C568.75 0 650 81.25 650 325C650 568.75 568.75 650 325 650C81.25 650 0 568.75 0 325Z"/><path fill="#fff" d="M411.853 245C331.864 245 300.017 378.333 237.16 378.333C209.062 378.333 190.919 357.293 190.919 325C190.919 292.707 209.075 271.667 237.16 271.667C259.304 271.667 275.201 285.92 290.553 303.6L307.088 282.787C287.164 262.347 266.548 245 237.16 245C194.667 245 165 277.733 165 325C165 372.267 194.667 405 237.16 405C316.95 405 348.904 271.667 411.853 271.667C439.938 271.667 458.095 292.707 458.095 325C458.095 357.293 439.951 378.333 411.853 378.333C389.736 378.333 373.839 364.093 358.487 346.44L341.952 367.253C361.876 387.667 382.492 405 411.853 405C454.346 405 484 372.267 484 325C484 277.733 454.346 245 411.853 245Z"/></svg>