<svg width="650" height="650" viewBox="0 0 650 650" fill="none" xmlns="http://www.w3.org/2000/svg">
<path d="M0 325C0 81.25 81.25 0 325 0C568.75 0 650 81.25 650 325C650 568.75 568.75 650 325 650C81.25 650 0 568.75 0 325Z" fill="#266DD3"/>
<path d="M467.068 427.062L403.956 364.022C416.193 344.769 423.269 321.944 423.269 297.51C423.269 228.859 367.359 173 298.628 173C229.897 173 174 228.859 174 297.51C174 366.162 229.897 422.021 298.641 422.021C321.897 422.021 343.683 415.624 362.324 404.503L425.995 468.101C453.183 495.22 494.269 454.219 467.068 427.062ZM212.639 297.51C212.639 250.151 251.227 211.607 298.641 211.607C346.055 211.607 384.643 250.138 384.643 297.51C384.643 344.883 346.055 383.414 298.641 383.414C251.227 383.414 212.639 344.87 212.639 297.51V297.51ZM238.127 275.167C263.286 216.914 347.995 223.665 363.947 284.654C331.814 246.984 275.27 242.931 238.127 275.167Z" fill="white"/>
</svg>
