<svg width="650" height="650" viewBox="0 0 650 650" fill="none" xmlns="http://www.w3.org/2000/svg">
<path d="M0 325C0 81.25 81.25 0 325 0C568.75 0 650 81.25 650 325C650 568.75 568.75 650 325 650C81.25 650 0 568.75 0 325Z" fill="#266DD3"/>
<path d="M249.049 225.545C233.881 263.573 230.539 311.46 259.952 362.404C288.508 411.865 329.669 434.707 371.029 441.095C314.347 463.645 248.032 441.758 216.651 387.404C184.901 332.411 199.823 263.058 249.049 225.545ZM249.904 195C178.273 236.356 153.644 328.273 195 399.904C236.356 471.535 328.273 496.164 399.904 454.808C420.407 442.97 439.717 427.015 450.667 408.482C409.456 423.427 328.19 430.596 281.603 349.904C234.384 268.119 286.641 198.082 315.405 174.201C292.306 177.693 270.407 183.163 249.904 195ZM318.648 314.068C336.941 309.828 356.157 314.986 369.869 327.811C365.651 309.505 370.798 290.295 383.606 276.578C365.317 280.801 346.113 275.665 332.369 262.859C336.613 281.135 331.466 300.345 318.648 314.068ZM405.267 264.072C417.469 261.257 430.258 264.683 439.424 273.234C436.58 261.033 440.023 248.221 448.558 239.078C436.373 241.899 423.566 238.467 414.407 229.928C417.223 242.13 413.802 254.93 405.267 264.072ZM338.192 172.894C342.442 191.182 337.284 210.398 324.494 224.119C342.811 219.894 361.992 225.043 375.743 237.86C371.486 219.562 376.644 200.346 389.413 186.637C371.169 190.863 351.936 185.7 338.192 172.894Z" fill="white"/>
</svg>
