<svg width="650" height="650" fill="none" xmlns="http://www.w3.org/2000/svg"><path d="M0 325C0 81.25 81.25 0 325 0s325 81.25 325 325-81.25 325-325 325S0 568.75 0 325z" fill="#266DD3"/><g clip-path="url(#clip0)"><path fill-rule="evenodd" clip-rule="evenodd" d="M223.125 464.805l38.618-16.54-45.779-124.964-22.05 61.754 29.211 79.75zm-36.64-58.958l-23.778 66.576c-2.936 8.22 5.331 15.993 13.355 12.556l34.068-14.595-23.645-64.537zm88.253 36.852l41.442-17.769-49.183-129.117-20.208-17.963c-5.298-4.71-13.679-2.564-16.062 4.112l-7.334 20.547 51.345 140.19zm91.788-39.335c6.735-2.887 8.181-11.798 2.704-16.666l-79.379-70.559 39.338 103.226 37.337-16.001zm2.807-76.871l31.089-20.411c3.249-2.147 4.167-6.525 2.02-9.788-2.147-3.277-6.54-4.167-9.775-2.02l-31.089 20.41c-3.263 2.133-4.167 6.512-2.034 9.775a7.04 7.04 0 005.904 3.192 7.01 7.01 0 003.885-1.158zm-42.276-60.907l15.707-33.731c1.652-3.531.113-7.74-3.419-9.379-3.545-1.638-7.74-.127-9.393 3.419l-15.693 33.73c-1.652 3.531-.113 7.727 3.419 9.379l2.98.664a7.046 7.046 0 006.399-4.082zm-37.107 10.015c21.739-41.853 23.222-80.937 4.436-116.136a7.062 7.062 0 00-6.244-3.743c-5.226 0-8.771 5.621-6.215 10.396 16.47 30.849 14.945 65.497-4.52 102.971a7.066 7.066 0 003.023 9.52 7.037 7.037 0 003.249.805 7.085 7.085 0 006.271-3.813zm91.883 86.091c28.491-20.255 63.04-23.165 102.717-8.658 4.619 1.681 9.492-1.738 9.492-6.639a7.086 7.086 0 00-4.633-6.639c-44.296-16.201-83.252-12.712-115.768 10.425-3.164 2.26-3.913 6.667-1.653 9.859a7.074 7.074 0 005.749 2.952 7.077 7.077 0 004.096-1.3zm53.068-95.442l-23.97.198 13.249 19.986-7.218 22.855 23.095-6.427 19.506 13.927 1.031-23.956 19.281-14.252-22.473-8.362-7.599-22.741-14.902 18.772zM331.69 317.439c3.898-.127 6.949-3.39 6.822-7.303-.791-22.981 5.085-27.36 19.45-28.97 23.857-2.698 25.213-18.532 26.018-27.996.749-8.998 1.003-12.02 10.919-12.755 8.899-.65 18.8-2.26 24.86-9.308 6.512-7.599 6.582-19.182 5.678-30.567-.296-3.898-3.757-6.751-7.585-6.483a7.048 7.048 0 00-6.483 7.585c.875 11.116.155 17.374-2.331 20.255-2.104 2.458-6.78 3.828-15.17 4.436-21.936 1.61-23.222 16.653-23.97 25.651-.805 9.435-1.158 13.743-13.504 15.127-29.309 3.306-32.699 22.869-32.007 43.505.141 3.814 3.263 6.823 7.062 6.823h.241zm110.768-122.535c0 14.21 11.554 25.764 25.778 25.764 14.21 0 25.764-11.554 25.764-25.764 0-14.223-11.554-25.778-25.764-25.778-14.224 0-25.778 11.555-25.778 25.778zm-93.55-40.129c15.594 0 28.25 12.67 28.25 28.25 0 15.594-12.656 28.25-28.25 28.25-15.58 0-28.25-12.656-28.25-28.25 0-15.58 12.67-28.25 28.25-28.25z" fill="#fff"/></g><defs><clipPath id="clip0"><path fill="#fff" transform="translate(155 155)" d="M0 0h339v339H0z"/></clipPath></defs></svg>