<svg width="650" height="650" fill="none" xmlns="http://www.w3.org/2000/svg"><path d="M0 325C0 81.25 81.25 0 325 0s325 81.25 325 325-81.25 325-325 325S0 568.75 0 325z" fill="#266DD3"/><path d="M453.465 449.637c-34.349-53.724-81.766-102.05-84.23-168.637h-29.568c2.537 76.443 51.509 125.239 87.31 181.221 2.098 4.43-.997 9.446-5.529 9.446h-18.539L333.477 369h-51.626c12.804-24.42 27.133-50.072 28.394-88h-29.48c-2.478 66.631-50.174 115.339-84.23 168.637-2.42 5.09-3.535 10.37-3.535 15.503 0 18.817 15.004 35.86 35.537 35.86h192.911C441.981 501 457 483.957 457 465.125c0-5.133-1.115-10.398-3.535-15.488zm-69.798-227.304c0 16.207-13.142 29.334-29.334 29.334S325 238.54 325 222.333C325 206.127 338.141 193 354.333 193s29.334 13.127 29.334 29.333zm-73.334-22c0 12.159-9.856 22-22 22s-22-9.841-22-22c0-12.158 9.856-22 22-22s22 9.842 22 22zm0 51.334c0 8.096-6.556 14.666-14.666 14.666-8.111 0-14.667-6.57-14.667-14.666S287.556 237 295.667 237c8.11 0 14.666 6.571 14.666 14.667zm44-88c0 8.096-6.556 14.666-14.666 14.666-8.111 0-14.667-6.57-14.667-14.666S331.556 149 339.667 149c8.11 0 14.666 6.571 14.666 14.667z" fill="#fff"/></svg>