<svg xmlns="http://www.w3.org/2000/svg" width="650" height="650" fill="none" viewBox="0 0 650 650"><path fill="#266DD3" d="M0 325C0 81.25 81.25 0 325 0C568.75 0 650 81.25 650 325C650 568.75 568.75 650 325 650C81.25 650 0 568.75 0 325Z"/><path fill="#fff" d="M477.337 172.535C472.071 172.178 466.92 172 461.858 172C352.208 172 289.772 255.602 267.064 322.871L327.333 383.14C396.54 358.354 478 298.225 478 189.748C478 184.138 477.783 178.401 477.337 172.535V172.535ZM333.555 353.305L296.797 316.547C312.365 280.094 356.607 202.498 452.334 197.717C449.134 271.348 400.811 324.35 333.555 353.305V353.305ZM403.311 372.915C396.336 377.67 389.413 381.967 382.553 385.805C380.169 397.165 374.113 409.29 365.328 419.618C365.303 412.274 363.263 404.879 359.68 397.458C353.369 400.327 347.363 402.788 341.651 404.955C350.066 426.745 341.498 442.835 329.985 457.919C346.509 456.669 363.849 448.586 377.517 434.905C392.243 420.179 402.597 398.912 403.311 372.915V372.915ZM252.606 290.435C245.223 286.865 237.841 284.85 230.523 284.812C240.761 276.129 252.759 270.111 264.004 267.663C268.008 260.625 272.508 253.676 277.251 246.842C251.254 247.544 229.974 257.897 215.235 272.636C201.58 286.291 193.484 303.657 192.234 320.168C207.33 308.642 223.421 300.074 245.211 308.514C247.416 302.509 249.877 296.478 252.606 290.435ZM351.265 298.888C346.28 293.903 346.28 285.845 351.265 280.86C356.25 275.874 364.308 275.874 369.293 280.86C374.279 285.858 374.279 293.916 369.293 298.901C364.308 303.886 356.238 303.873 351.265 298.888V298.888ZM414.365 235.763C404.42 225.818 388.265 225.818 378.308 235.763C368.35 245.72 368.35 261.887 378.308 271.832C388.265 281.79 404.42 281.79 414.378 271.832C424.323 261.887 424.323 245.733 414.365 235.763V235.763ZM390.038 260.128C386.557 256.647 386.557 250.973 390.038 247.505C393.493 244.025 399.179 244.025 402.66 247.505C406.128 250.973 406.115 256.647 402.66 260.128C399.167 263.596 393.506 263.596 390.038 260.128ZM304.014 395.916C284.991 444.493 230.025 475.067 172 478C174.792 423.315 205.877 367.381 256.66 348.549L266.924 358.826C211.704 393.952 207.598 426.987 207.445 442.657C223.612 442.466 259.133 438.271 293.864 385.741L304.014 395.916Z"/></svg>