<svg xmlns="http://www.w3.org/2000/svg" width="650" height="650" fill="none" viewBox="0 0 650 650"><path fill="#266DD3" d="M0 325C0 81.25 81.25 0 325 0C568.75 0 650 81.25 650 325C650 568.75 568.75 650 325 650C81.25 650 0 568.75 0 325Z"/><path fill="#fff" d="M325 186.667C401.277 186.667 463.333 248.723 463.333 325C463.333 401.277 401.277 463.333 325 463.333C248.723 463.333 186.667 401.277 186.667 325C186.667 248.723 248.723 186.667 325 186.667ZM325 159C233.327 159 159 233.327 159 325C159 416.673 233.327 491 325 491C416.673 491 491 416.673 491 325C491 233.327 416.673 159 325 159ZM325.014 352.667C292.755 352.667 267.675 375.298 254.561 391.359L261.076 399.382C278.866 388.052 298.869 381.288 325.014 381.288C351.159 381.288 371.162 388.052 388.951 399.382L395.467 391.359C382.353 375.298 357.273 352.667 325.014 352.667V352.667ZM276.583 269.667C265.129 269.667 255.833 278.949 255.833 290.417C255.833 301.884 265.129 311.167 276.583 311.167C288.037 311.167 297.333 301.884 297.333 290.417C297.333 278.949 288.037 269.667 276.583 269.667ZM373.417 269.667C361.963 269.667 352.667 278.949 352.667 290.417C352.667 301.884 361.963 311.167 373.417 311.167C384.871 311.167 394.167 301.884 394.167 290.417C394.167 278.949 384.871 269.667 373.417 269.667Z"/></svg>