<svg width="650" height="650" viewBox="0 0 650 650" fill="none" xmlns="http://www.w3.org/2000/svg">
<path d="M0 325C0 81.25 81.25 0 325 0C568.75 0 650 81.25 650 325C650 568.75 568.75 650 325 650C81.25 650 0 568.75 0 325Z" fill="#266DD3"/>
<path fill-rule="evenodd" clip-rule="evenodd" d="M213.146 230.368C231.455 234.778 411.616 283.404 483.557 302.624C489.852 304.47 493.458 309.444 493.951 314.981C494.077 316.39 493.951 317.771 493.683 319.18C481.529 369.61 466.839 419.434 453.403 469.568C451.53 475.909 446.502 479.46 441.037 479.939C439.615 480.08 438.249 479.967 436.84 479.699C346.154 457.845 256.566 431.538 166.444 407.443C160.021 405.555 156.529 400.511 156.05 395.086C155.923 393.677 156.05 392.282 156.303 390.901C168.472 340.443 183.161 290.619 196.583 240.499C198.794 233.101 205.47 228.944 213.146 230.368V230.368ZM187.344 383.856L429.812 448.686L462.642 326.211C395.251 308.19 220.188 261.409 220.188 261.409C209.231 302.215 198.287 343.05 187.344 383.856V383.856ZM414.771 432.877L418.405 419.307L380.139 409.205L376.491 422.802L414.771 432.877V432.877ZM344.084 414.207L357.689 417.898L363.942 394.536L350.351 390.845L344.084 414.207ZM424.475 395.494L428.122 381.897L389.842 371.794L386.181 385.392L424.475 395.494ZM242.102 345.628L272.749 333.383L244.581 305.202L254.285 301.313L301.903 321.716L326.197 312.008C332.62 309.401 342.718 311.05 344.661 315.897L344.985 318.433C344.591 323.196 339.309 329.283 333.972 331.453L309.677 341.147L289.269 388.759L279.537 392.634L280.523 352.8L249.863 365.045L242.623 379.22L235.807 381.925L235.286 359.592L220.286 343.078L227.075 340.358L242.102 345.628V345.628ZM353.999 377.219L367.604 380.911L374.688 354.491L361.069 350.813L353.999 377.219V377.219ZM430.742 371.104L434.39 357.492L396.096 347.403L392.462 361.001L430.742 371.104V371.104ZM437.291 346.192L440.939 332.594L402.659 322.491L399.011 336.103L437.291 346.192V346.192ZM364.717 337.202L378.336 340.88L384.589 317.517L370.984 313.84L364.717 337.202V337.202ZM257.102 217.503C317.085 201.651 377.28 186.504 437.207 170.483C439.221 169.99 440.136 169.99 441.418 170.004C447.431 170.398 452.192 173.808 454.262 179.74C463.811 212.106 472.29 244.754 480.74 277.402L448.967 268.891L430.897 201.341L313.747 232.664L257.102 217.503V217.503Z" fill="white"/>
</svg>
