<svg width="650" height="650" fill="none" xmlns="http://www.w3.org/2000/svg"><path d="M0 325C0 81.25 81.25 0 325 0s325 81.25 325 325-81.25 325-325 325S0 568.75 0 325z" fill="#266DD3"/><g clip-path="url(#clip0)"><path d="M452.289 277.6c-12.689 21.203-32.481 42.81-57.188 41.931-5.765 9.854-11.892 23.408-18.69 39.125l-18.313 7.719c13.065-32.704 31.141-69.247 51.618-97.625-9.352 7.384-24.372 22.85-37.157 38.846-15.327-25.515-4.188-51.52 13.581-72.29.293 8.948 5.011 16.694 8.389 20.589-1.214-7.398-1.591-20.784 2.722-32.816 10.022-10.218 19.039-17.741 29.494-24.567-1.159 6.672 1.116 14.321 3.657 18.997.335-6.839 3.127-19.96 7.272-25.683 12.898-10.148 32.551-19.165 54.326-20.868-1.131 13.582-6.086 35.943-14.293 50.306-7.189 5.639-17.043 9.492-25 11.627 6.882 1.243 14.391 1.075 20.854-.013-3.755 10.371-7.705 19.932-13.93 31.769-9.478 6.532-22.027 10.217-30.751 11.515 6.421 2.611 17.755 3.42 23.409 1.438zm-193.198 53.111l9.003 10.902 66.624-38.958-9.325-10.72-66.302 38.776zm97.15-3.322l-9.324-10.706-67.07 39.195 9.003 10.902 67.391-39.391zm65.311.098c-5.876 2.834-11.878 4.76-17.95 5.556-1.675 3.224-3.434 6.895-5.262 10.789l4.159 4.774c8.696 9.659 6.407 23.785-5.248 31.253-10.79 6.937-74.552 47.123-89.138 56.322-1.033-10.064-4.997-19.416-11.53-27.191-6.546-7.775-85.355-102.957-105.008-128.11-6.547-8.375-8.026-17.378-4.118-25.348 3.741-7.663 11.753-12.814 19.96-12.814 12.828 0 19.654 9.143 21.622 16.96 2.233 8.947-.489 17.182-8.696 23.519l18.551 22.669 108.819-62.059c19.848-14.67 25.432-41.749 12.981-62.994C352.068 166.115 336.141 157 319.126 157c-16.582 0-11.069-.223-133.511 62.464C168.39 227.713 157 244.407 157 264.158c0 12.144 4.299 24.511 12.409 34.715 19.918 25.041 105.539 128.207 106.307 129.212 5.178 6.881 5.96 15.619 2.093 23.352-3.866 7.747-11.334 12.367-19.946 12.367-12.828 0-19.653-9.143-21.622-16.973-2.177-8.78.168-16.862 8.431-23.087l-17.824-21.566c-11.474 9.282-17.825 20.882-19.221 34.086C204.389 467.042 228.913 492 258.058 492c8.319 0 18.3-2.471 25.698-7.119l131.585-82.996c13.358-9.268 20.826-24.86 20.826-40.437 0-10.399-3.35-20.296-9.604-27.959l-5.011-6.002zM310.821 187.038a20.36 20.36 0 018.5-1.87c7.426 0 13.917 3.922 17.351 10.497 4.355 8.319 3.154 20.504-7.649 26.688l-71.146 40.312c-.712-15.201-8.082-29.048-20.31-38.135l73.254-37.492zm29.27 186.805l5.039-12.633 3.476-8.5-48.142 28.154 9.003 10.901 30.624-17.922z" fill="#fff"/></g><defs><clipPath id="clip0"><path fill="#fff" transform="translate(157 157)" d="M0 0h335v335H0z"/></clipPath></defs></svg>