<svg width="737" height="553" viewBox="0 0 737 553" fill="none" xmlns="http://www.w3.org/2000/svg">
<path d="M411.865 290.587C427.093 289.77 449.395 285.478 466.832 275.734C479.482 256.274 487.846 240.395 496.078 223.067C484.769 223.91 471.724 222.949 460.099 219.683C474.144 217.274 491.765 212.244 505.099 203.673C521.602 180.183 533.831 142.328 538 119.023C500.207 118.391 464.807 130.742 440.874 146.199C432.8 155.416 425.804 177.655 424.147 189.426C420.505 180.92 417.848 167.306 420.965 155.956C401.792 166.055 385.026 177.589 366.037 193.613C356.569 213.732 355.07 236.932 355.938 249.914C350.797 242.633 343.906 228.452 344.866 212.929C310.807 245.898 287.308 289.086 309.598 335.696C334.306 310.139 362.71 285.886 380.003 274.615C340.079 320.357 302.865 380.568 275 435L307.928 424.651C322.182 398.594 335.003 376.144 346.497 360.068C388.958 365.637 426.659 331.522 452.065 296.933C441.939 299.435 422.53 296.169 411.865 290.587Z" fill="#266DD3"/>
</svg>
