<svg xmlns="http://www.w3.org/2000/svg" width="737" height="553" fill="none" viewBox="0 0 737 553"><g opacity=".1"><path stroke="#266DD3" stroke-linecap="round" stroke-miterlimit="10" stroke-width="14" d="M617.492 287.645C617.362 316.384 604.227 350.833 567.044 390.64" data-ignore="true"/><path stroke="#266DD3" stroke-linecap="round" stroke-miterlimit="10" stroke-width="14" d="M617.259 293.733C617.718 282.496 660.163 282.733 649.233 317.342C639.782 347.266 615.341 346.575 606.339 336.692" data-ignore="true"/><path stroke="#266DD3" stroke-linecap="round" stroke-miterlimit="10" stroke-width="14" d="M316.233 349.698C269.296 355.936 242.534 388.047 237.946 412.743C237.421 415.568 238.383 418.444 240.433 420.456C248.165 428.039 269.468 444.554 292.975 424.775C303.41 420.507 338.033 408.124 360.492 403.748C364.623 402.943 368.91 403.841 372.393 406.201C410.872 432.279 438.396 434.961 473.42 437.226C478.394 437.548 483.095 439.599 486.703 443.039C502.308 457.921 549.88 498.298 596.726 487.507C598.638 487.066 600.192 485.664 600.934 483.847L614.457 450.714C614.457 450.714 559.321 402.262 552.704 359.957" data-ignore="true"/><path stroke="#266DD3" stroke-linecap="round" stroke-miterlimit="10" stroke-width="14" d="M238.743 342.657C238.743 342.657 233.496 345.424 227.856 349.698C221.354 354.623 214.329 361.547 214.2 368.544C213.958 381.614 237.145 397.969 241.526 399.472" data-ignore="true"/><path stroke="#266DD3" stroke-linecap="round" stroke-miterlimit="10" stroke-width="14" d="M227.855 349.698C227.855 349.698 256.362 372.968 255.329 379.122C255.329 379.122 293.837 416.771 292.975 424.775" data-ignore="true"/><path stroke="#266DD3" stroke-linecap="round" stroke-miterlimit="10" stroke-width="14" d="M571.818 487.818C571.818 487.818 585.583 432.691 597.448 433.983C597.448 433.983 615.711 401.134 623.798 401.134" data-ignore="true"/><path stroke="#266DD3" stroke-linecap="round" stroke-miterlimit="10" stroke-width="14" d="M592.268 363.095C592.268 363.095 630.391 405.274 630.63 413.222C630.739 416.829 626.219 447.039 614.457 450.714" data-ignore="true"/><path stroke="#266DD3" stroke-linecap="round" stroke-miterlimit="10" stroke-width="14" d="M319.645 122.636C306.926 126.218 297.525 127.953 290.105 128.618C279.994 129.525 273.561 128.448 267.421 127.361C264.213 126.793 262.743 123.005 264.72 120.416C319.202 49.034 340.383 112.914 340.383 112.914L342.202 119.099" data-ignore="true"/><path stroke="#266DD3" stroke-linecap="round" stroke-miterlimit="10" stroke-width="14" d="M291.397 161.335C291.397 161.335 294.751 128.286 288.223 128.619" data-ignore="true"/><path stroke="#266DD3" stroke-linecap="round" stroke-linejoin="round" stroke-miterlimit="10" stroke-width="14" d="M204.567 205.842C204.567 205.842 228.267 217.002 228.267 256.379" data-ignore="true"/><path fill="#266DD3" stroke="#266DD3" d="M195.328 245.943C195.616 245.943 195.958 245.799 196.34 245.396C196.722 244.991 197.098 244.369 197.427 243.546C198.084 241.902 198.506 239.586 198.506 236.994C198.506 234.402 198.084 232.086 197.427 230.442C197.098 229.619 196.722 228.997 196.34 228.592C195.958 228.189 195.616 228.045 195.328 228.045C195.039 228.045 194.696 228.189 194.314 228.592C193.931 228.997 193.556 229.619 193.226 230.443C192.569 232.086 192.147 234.402 192.147 236.994C192.147 239.586 192.569 241.902 193.226 243.546C193.556 244.369 193.931 244.991 194.314 245.396C194.696 245.799 195.039 245.943 195.328 245.943Z" data-ignore="true"/><path fill="#266DD3" stroke="#266DD3" d="M207.536 253.586C208.036 253.586 208.579 253.336 209.144 252.739C209.71 252.141 210.25 251.239 210.718 250.07C211.652 247.735 212.244 244.464 212.244 240.816C212.244 237.169 211.652 233.897 210.718 231.562C210.25 230.393 209.71 229.491 209.144 228.893C208.579 228.296 208.036 228.046 207.536 228.046C207.036 228.046 206.493 228.296 205.928 228.893C205.363 229.491 204.822 230.393 204.355 231.562C203.421 233.897 202.828 237.169 202.828 240.816C202.828 244.464 203.421 247.735 204.355 250.07C204.822 251.239 205.363 252.141 205.928 252.739C206.493 253.336 207.036 253.586 207.536 253.586Z" data-ignore="true"/><path stroke="#266DD3" stroke-linecap="round" stroke-miterlimit="10" stroke-width="14" d="M211.145 312.337C211.145 312.337 257.04 330.329 280.711 297.866" data-ignore="true"/><path stroke="#266DD3" stroke-linecap="round" stroke-miterlimit="10" stroke-width="14" d="M336.76 137.371C336.76 137.371 278.11 154.587 275.738 186.956C274.024 210.367 242.32 228.022 209.769 206.641C189.192 193.125 144.646 285.535 211.145 312.338C212.592 312.921 213.244 314.584 212.507 315.958C212.507 315.958 211.766 324.127 230.138 336.856C230.138 336.856 245.254 348.471 272.637 364.705" data-ignore="true"/><path stroke="#266DD3" stroke-linecap="round" stroke-miterlimit="10" stroke-width="14" d="M467.606 172.298C461.416 166.67 458.014 163.043 458.014 163.043C451.852 157.281 448.075 153.027 444.511 145.85C427.727 112.055 405.222 47.7892 343.717 117.256C340.602 120.773 338.204 124.959 337.235 129.556C329.834 164.672 411.418 133.21 411.418 133.21" data-ignore="true"/><path stroke="#266DD3" stroke-linecap="round" stroke-miterlimit="10" stroke-width="14" d="M617.492 287.645C617.453 283.457 616.913 278.953 616.06 274.395" data-ignore="true"/><path stroke="#266DD3" stroke-linecap="round" stroke-miterlimit="10" stroke-width="14" d="M400.479 269.282C400.479 269.282 513.604 71.9764 626.062 74.0159C638.531 74.2416 646.32 87.6743 640.316 98.6036C621.921 132.092 583.957 183.67 552.103 186.796" data-ignore="true"/><path stroke="#266DD3" stroke-linecap="round" stroke-miterlimit="10" stroke-width="14" d="M624.704 125.087C634.919 124.289 643.371 124.711 649.818 125.499C659.842 126.724 667.612 135.298 667.473 145.395C667.243 162.048 657.543 177.152 644.253 190.07C614.589 218.905 567.043 236.854 567.043 236.854" data-ignore="true"/><path stroke="#266DD3" stroke-linecap="round" stroke-miterlimit="10" stroke-width="14" d="M638.368 195.457C658.023 187.465 672.18 185.873 681.423 186.28C689.55 186.639 695.679 193.942 694.876 202.037C686.189 289.759 515.677 287.232 515.677 287.232" data-ignore="true"/><path stroke="#266DD3" stroke-linecap="round" stroke-miterlimit="10" stroke-width="14" d="M292.989 213.527C292.989 213.527 322.391 173.557 316.69 225.964" data-ignore="true"/></g><path stroke="#266DD3" stroke-linecap="round" stroke-miterlimit="10" stroke-width="14" d="M617.492 287.645C617.362 316.384 604.227 350.833 567.044 390.64"/><path stroke="#266DD3" stroke-linecap="round" stroke-miterlimit="10" stroke-width="14" d="M617.259 293.733C617.718 282.496 660.163 282.733 649.233 317.342C639.782 347.266 615.341 346.575 606.339 336.692"/><path stroke="#266DD3" stroke-linecap="round" stroke-miterlimit="10" stroke-width="14" d="M316.233 349.698C269.296 355.936 242.534 388.047 237.946 412.743C237.421 415.568 238.383 418.444 240.433 420.456C248.165 428.039 269.468 444.554 292.975 424.775C303.41 420.507 338.033 408.124 360.492 403.748C364.623 402.943 368.91 403.841 372.393 406.201C410.872 432.279 438.396 434.961 473.42 437.226C478.394 437.548 483.095 439.599 486.703 443.039C502.308 457.921 549.88 498.298 596.726 487.507C598.638 487.066 600.192 485.664 600.934 483.847L614.457 450.714C614.457 450.714 559.321 402.262 552.704 359.957"/><path stroke="#266DD3" stroke-linecap="round" stroke-miterlimit="10" stroke-width="14" d="M238.743 342.657C238.743 342.657 233.496 345.424 227.856 349.698C221.354 354.623 214.329 361.547 214.2 368.544C213.958 381.614 237.145 397.969 241.526 399.472"/><path stroke="#266DD3" stroke-linecap="round" stroke-miterlimit="10" stroke-width="14" d="M227.855 349.698C227.855 349.698 256.362 372.968 255.329 379.122C255.329 379.122 293.837 416.771 292.975 424.775"/><path stroke="#266DD3" stroke-linecap="round" stroke-miterlimit="10" stroke-width="14" d="M571.818 487.818C571.818 487.818 585.583 432.691 597.448 433.983C597.448 433.983 615.711 401.134 623.798 401.134"/><path stroke="#266DD3" stroke-linecap="round" stroke-miterlimit="10" stroke-width="14" d="M592.268 363.095C592.268 363.095 630.391 405.274 630.63 413.222C630.739 416.829 626.219 447.039 614.457 450.714"/><path stroke="#266DD3" stroke-linecap="round" stroke-miterlimit="10" stroke-width="14" d="M319.645 122.636C306.926 126.218 297.525 127.953 290.105 128.618C279.994 129.525 273.561 128.448 267.421 127.361C264.213 126.793 262.743 123.005 264.72 120.416C319.202 49.034 340.383 112.914 340.383 112.914L342.202 119.099"/><path stroke="#266DD3" stroke-linecap="round" stroke-miterlimit="10" stroke-width="14" d="M291.397 161.335C291.397 161.335 294.751 128.286 288.223 128.619"/><path stroke="#266DD3" stroke-linecap="round" stroke-linejoin="round" stroke-miterlimit="10" stroke-width="14" d="M204.567 205.842C204.567 205.842 228.267 217.002 228.267 256.379"/><path fill="#266DD3" stroke="#266DD3" d="M195.328 245.943C195.616 245.943 195.958 245.799 196.34 245.396C196.722 244.991 197.098 244.369 197.427 243.546C198.084 241.902 198.506 239.586 198.506 236.994C198.506 234.402 198.084 232.086 197.427 230.442C197.098 229.619 196.722 228.997 196.34 228.592C195.958 228.189 195.616 228.045 195.328 228.045C195.039 228.045 194.696 228.189 194.314 228.592C193.931 228.997 193.556 229.619 193.226 230.443C192.569 232.086 192.147 234.402 192.147 236.994C192.147 239.586 192.569 241.902 193.226 243.546C193.556 244.369 193.931 244.991 194.314 245.396C194.696 245.799 195.039 245.943 195.328 245.943Z"/><path fill="#266DD3" stroke="#266DD3" d="M207.536 253.586C208.036 253.586 208.579 253.336 209.144 252.739C209.71 252.141 210.25 251.239 210.718 250.07C211.652 247.735 212.244 244.464 212.244 240.816C212.244 237.169 211.652 233.897 210.718 231.562C210.25 230.393 209.71 229.491 209.144 228.893C208.579 228.296 208.036 228.046 207.536 228.046C207.036 228.046 206.493 228.296 205.928 228.893C205.363 229.491 204.822 230.393 204.355 231.562C203.421 233.897 202.828 237.169 202.828 240.816C202.828 244.464 203.421 247.735 204.355 250.07C204.822 251.239 205.363 252.141 205.928 252.739C206.493 253.336 207.036 253.586 207.536 253.586Z"/><path stroke="#266DD3" stroke-linecap="round" stroke-miterlimit="10" stroke-width="14" d="M211.145 312.337C211.145 312.337 257.04 330.329 280.711 297.866"/><path stroke="#266DD3" stroke-linecap="round" stroke-miterlimit="10" stroke-width="14" d="M336.76 137.371C336.76 137.371 278.11 154.587 275.738 186.956C274.024 210.367 242.32 228.022 209.769 206.641C189.192 193.125 144.646 285.535 211.145 312.338C212.592 312.921 213.244 314.584 212.507 315.958C212.507 315.958 211.766 324.127 230.138 336.856C230.138 336.856 245.254 348.471 272.637 364.705"/><path stroke="#266DD3" stroke-linecap="round" stroke-miterlimit="10" stroke-width="14" d="M467.606 172.298C461.416 166.67 458.014 163.043 458.014 163.043C451.852 157.281 448.075 153.027 444.511 145.85C427.727 112.055 405.222 47.7892 343.717 117.256C340.602 120.773 338.204 124.959 337.235 129.556C329.834 164.672 411.418 133.21 411.418 133.21"/><path stroke="#266DD3" stroke-linecap="round" stroke-miterlimit="10" stroke-width="14" d="M617.492 287.645C617.453 283.457 616.913 278.953 616.06 274.395"/><path stroke="#266DD3" stroke-linecap="round" stroke-miterlimit="10" stroke-width="14" d="M400.479 269.282C400.479 269.282 513.604 71.9764 626.062 74.0159C638.531 74.2416 646.32 87.6743 640.316 98.6036C621.921 132.092 583.957 183.67 552.103 186.796"/><path stroke="#266DD3" stroke-linecap="round" stroke-miterlimit="10" stroke-width="14" d="M624.704 125.087C634.919 124.289 643.371 124.711 649.818 125.499C659.842 126.724 667.612 135.298 667.473 145.395C667.243 162.048 657.543 177.152 644.253 190.07C614.589 218.905 567.043 236.854 567.043 236.854"/><path stroke="#266DD3" stroke-linecap="round" stroke-miterlimit="10" stroke-width="14" d="M638.368 195.457C658.023 187.465 672.18 185.873 681.423 186.28C689.55 186.639 695.679 193.942 694.876 202.037C686.189 289.759 515.677 287.232 515.677 287.232"/><path stroke="#266DD3" stroke-linecap="round" stroke-miterlimit="10" stroke-width="14" d="M292.989 213.527C292.989 213.527 322.391 173.557 316.69 225.964"/></svg>