<svg width="737" height="553" viewBox="0 0 737 553" fill="none" xmlns="http://www.w3.org/2000/svg">
<path d="M564.743 383.091L499.331 317.562C512.014 297.549 519.348 273.823 519.348 248.425C519.348 177.064 461.401 119 390.167 119C318.933 119 261 177.064 261 248.425C261 319.787 318.933 377.851 390.181 377.851C414.284 377.851 436.864 371.202 456.184 359.642L522.174 425.75C550.352 453.939 592.934 411.32 564.743 383.091ZM301.046 248.425C301.046 199.196 341.04 159.131 390.181 159.131C439.321 159.131 479.315 199.183 479.315 248.425C479.315 297.668 439.321 337.72 390.181 337.72C341.04 337.72 301.046 297.654 301.046 248.425V248.425ZM327.463 225.2C353.538 164.648 441.332 171.665 457.866 235.061C424.562 195.905 365.958 191.691 327.463 225.2Z" fill="#266DD3"/>
</svg>
