<svg id="fd9111fe-dc42-4748-81e1-ea44658428e6" data-name="Layer 1" xmlns="http://www.w3.org/2000/svg" viewBox="0 0 1620 450"><title>bugsnag-logo-full</title><path d="M1018.27,99.16c-51,1.52-91,44.71-91,95.77V311.51a5,5,0,0,0,5,5h28.26a5,5,0,0,0,5-5v-117c0-30,22.94-55.66,52.8-57.14a55.64,55.64,0,0,1,58.31,52.83c0,.93.07,1.85.07,2.77V311.57a5,5,0,0,0,5,5h28.25a5,5,0,0,0,5-5V193a94,94,0,0,0-94.11-93.87C1020,99.12,1019.12,99.13,1018.27,99.16Zm238.51,1.06a108.55,108.55,0,1,0,65.59,191v20.22a5,5,0,0,0,5,5h28.28a5,5,0,0,0,5-5V210.89C1360.59,152.39,1315.21,102.72,1256.78,100.22ZM1252.06,279a70.34,70.34,0,1,1,70.31-70.36v0A70.41,70.41,0,0,1,1252.06,279Zm254-178.77a108.55,108.55,0,1,0,65.59,191v42.92c0,39.43-32.26,72.93-71.69,72.21a69.84,69.84,0,0,1-56-29.6,4.94,4.94,0,0,0-6.6-1.28l-24,14.88a5,5,0,0,0-1.59,6.92,1.37,1.37,0,0,0,.13.2,107.8,107.8,0,0,0,87.38,47.1c60.85,1.16,110.67-49.86,110.67-110.73V211C1609.92,152.39,1564.54,102.72,1506.11,100.22ZM1501.37,279a70.34,70.34,0,1,1,70.33-70.34h0A70.42,70.42,0,0,1,1501.37,279ZM594.91,100.22a108.55,108.55,0,1,0,65.62,191v42.92c0,39.43-32.26,72.95-71.7,72.21a69.87,69.87,0,0,1-56-29.6,4.93,4.93,0,0,0-6.6-1.28l-24,14.88a5,5,0,0,0-1.6,6.92c.05.07.09.14.14.2A107.78,107.78,0,0,0,588,444.62c60.86,1.16,110.68-49.86,110.68-110.73V211C698.75,152.39,653.37,102.72,594.91,100.22ZM590.19,279a70.34,70.34,0,1,1,70.34-70.34h0A70.43,70.43,0,0,1,590.19,279Zm-149-177.37-28.28.44A5,5,0,0,0,408,107V219.79a55.65,55.65,0,0,1-55.69,55.59c-.9,0-1.79,0-2.69-.07-29.86-1.46-52.79-27.24-52.79-57.14v-111a5,5,0,0,0-5-5H263.57a5,5,0,0,0-5,5V217.85c0,51,40,94.26,91,95.78a94,94,0,0,0,96.62-91.3c0-.83,0-1.65,0-2.48V106.6a5,5,0,0,0-5-5Zm379.1,88.81c-27.7-7.7-44.52-13.44-44.52-28.44,0-21.7,23.74-29.57,39.7-29.57,18.2,0,29.22,4.19,43.54,13a5,5,0,0,0,6.76-1.56l13.12-20.35a5,5,0,0,0-1.49-6.89l-.15-.09A121.63,121.63,0,0,0,814.14,99c-36,0-73.06,23.7-73.06,63.35,0,40.48,36,50.2,67.66,58.78,30,8.1,48.16,14.38,48.16,33.28,0,17.36-17.84,30.46-41.48,30.46-22.76,0-41.38-10.28-54-20a4.94,4.94,0,0,0-6.88.78l-15.58,19a5,5,0,0,0,.72,7c20.48,17.18,47.76,26.58,77.44,26.58,43.1,0,74.36-27.38,74.36-65.12C891.58,210.25,852,199.25,820.26,190.43Zm-689-89.59a108.13,108.13,0,0,0-83,25.24V10.32a5,5,0,0,0-5-5,4.93,4.93,0,0,0-2.56.72L12.38,23.28A5,5,0,0,0,10,27.54V206.45C10,265,55.38,314.63,113.81,317.13a108.58,108.58,0,0,0,17.44-216.29ZM118.55,279a70.34,70.34,0,1,1,70.34-70.34A70.33,70.33,0,0,1,118.55,279Z" fill="#000d47"/></svg>