<svg data-name="Layer 1" xmlns="http://www.w3.org/2000/svg" viewBox="0 0 1620 450"><path d="M1018.27 99.16c-51 1.52-91 44.71-91 95.77v116.58a5 5 0 005 5h28.26a5 5 0 005-5v-117c0-30 22.94-55.66 52.8-57.14a55.64 55.64 0 0158.31 52.83c0 .93.07 1.85.07 2.77v118.6a5 5 0 005 5h28.25a5 5 0 005-5V193a94 94 0 00-94.11-93.87c-.85-.01-1.73 0-2.58.03zm238.51 1.06a108.55 108.55 0 1065.59 191v20.22a5 5 0 005 5h28.28a5 5 0 005-5V210.89c-.06-58.5-45.44-108.17-103.87-110.67zM1252.06 279a70.34 70.34 0 1170.31-70.36 70.41 70.41 0 01-70.31 70.36zm254-178.77a108.55 108.55 0 1065.59 191v42.92c0 39.43-32.26 72.93-71.69 72.21a69.84 69.84 0 01-56-29.6 4.94 4.94 0 00-6.6-1.28l-24 14.88a5 5 0 00-1.59 6.92 1.37 1.37 0 00.13.2 107.8 107.8 0 0087.38 47.1c60.85 1.16 110.67-49.86 110.67-110.73V211c-.03-58.61-45.41-108.28-103.84-110.78zM1501.37 279a70.34 70.34 0 1170.33-70.34 70.42 70.42 0 01-70.33 70.34zM594.91 100.22a108.55 108.55 0 1065.62 191v42.92c0 39.43-32.26 72.95-71.7 72.21a69.87 69.87 0 01-56-29.6 4.93 4.93 0 00-6.6-1.28l-24 14.88a5 5 0 00-1.6 6.92c.05.07.09.14.14.2A107.78 107.78 0 00588 444.62c60.86 1.16 110.68-49.86 110.68-110.73V211c.07-58.61-45.31-108.28-103.77-110.78zM590.19 279a70.34 70.34 0 1170.34-70.34A70.43 70.43 0 01590.19 279zm-149-177.37l-28.28.44A5 5 0 00408 107v112.79a55.65 55.65 0 01-55.69 55.59c-.9 0-1.79 0-2.69-.07-29.86-1.46-52.79-27.24-52.79-57.14v-111a5 5 0 00-5-5h-28.26a5 5 0 00-5 5v110.68c0 51 40 94.26 91 95.78a94 94 0 0096.62-91.3V106.6a5 5 0 00-5-5zm379.1 88.81c-27.7-7.7-44.52-13.44-44.52-28.44 0-21.7 23.74-29.57 39.7-29.57 18.2 0 29.22 4.19 43.54 13a5 5 0 006.76-1.56l13.12-20.35a5 5 0 00-1.49-6.89l-.15-.09A121.63 121.63 0 00814.14 99c-36 0-73.06 23.7-73.06 63.35 0 40.48 36 50.2 67.66 58.78 30 8.1 48.16 14.38 48.16 33.28 0 17.36-17.84 30.46-41.48 30.46-22.76 0-41.38-10.28-54-20a4.94 4.94 0 00-6.88.78l-15.58 19a5 5 0 00.72 7c20.48 17.18 47.76 26.58 77.44 26.58 43.1 0 74.36-27.38 74.36-65.12.1-42.86-39.48-53.86-71.22-62.68zm-689-89.59a108.13 108.13 0 00-83 25.24V10.32a5 5 0 00-5-5 4.93 4.93 0 00-2.56.72L12.38 23.28A5 5 0 0010 27.54v178.91C10 265 55.38 314.63 113.81 317.13a108.58 108.58 0 0017.44-216.29zM118.55 279a70.34 70.34 0 1170.34-70.34A70.33 70.33 0 01118.55 279z" fill="#000d47"/></svg>