<svg xmlns="http://www.w3.org/2000/svg" width="140" height="27" fill="none" viewBox="0 0 140 27"><path fill="#1738FA" d="M23.886 5.12a7.98 7.98 0 0 0-7.91 6.869V1.016a.12.12 0 0 0-.207-.083l-4.672 4.813a7.982 7.982 0 0 0-3.11-.626C3.578 5.12 0 8.685 0 13.083s3.576 7.963 7.988 7.963a7.98 7.98 0 0 0 7.91-6.868V25.15c0 .108.131.16.206.083l4.673-4.813a7.982 7.982 0 0 0 3.109.626c4.411 0 7.987-3.565 7.987-7.963S28.297 5.12 23.886 5.12z"/><path fill="#1738FA" fill-rule="evenodd" d="M62.06 1.784a1.784 1.784 0 1 1-3.569 0 1.784 1.784 0 0 1 3.569 0zM83.063.264V20.79c0 .108.088.195.196.195h2.51a.196.196 0 0 0 .197-.195V.264A.196.196 0 0 0 85.77.07h-2.511a.196.196 0 0 0-.196.195zm-30.433 7.2V.27c0-.108.088-.196.196-.196h2.511c.108 0 .196.088.196.196v20.525a.196.196 0 0 1-.196.196h-2.51a.196.196 0 0 1-.197-.196v-1.77c-1.204 1.37-2.91 2.215-5.005 2.215-4.32 0-7.834-3.586-7.834-7.994 0-4.409 3.514-7.995 7.834-7.995 2.094 0 3.801.844 5.005 2.214zm-9.655 5.782c0 2.776 2.09 5.035 4.81 5.035 2.722 0 4.563-2.26 4.563-5.036S50.507 8.21 47.786 8.21s-4.811 2.26-4.811 5.036zM92.16 7.463c1.204-1.37 2.91-2.215 5.005-2.215 4.32 0 7.834 3.587 7.834 7.995 0 4.408-3.514 7.995-7.834 7.995-2.094 0-3.801-.844-5.005-2.214v7.37a.196.196 0 0 1-.196.196h-2.511a.196.196 0 0 1-.196-.196V5.87c0-.108.087-.196.196-.196h2.51c.109 0 .197.088.197.196v1.594zm.282 5.78c0 2.777 1.841 5.036 4.562 5.036s4.811-2.26 4.811-5.036c0-2.777-2.09-5.036-4.81-5.036-2.722 0-4.563 2.26-4.563 5.036zM76.87 7.465V5.87c0-.108.087-.196.195-.196h2.511c.109 0 .196.088.196.196v14.926a.196.196 0 0 1-.196.196h-2.51a.196.196 0 0 1-.197-.196v-1.769c-1.204 1.37-2.91 2.215-5.005 2.215-4.32 0-7.834-3.587-7.834-7.995 0-4.409 3.514-7.995 7.834-7.995 2.094 0 3.8.844 5.005 2.214zm-9.656 5.78c0 2.777 2.09 5.036 4.811 5.036s4.562-2.26 4.562-5.036-1.84-5.035-4.562-5.035c-2.721 0-4.81 2.26-4.81 5.036zm52.205-7.376v1.596c-1.204-1.37-2.911-2.214-5.005-2.214-4.32 0-7.834 3.586-7.834 7.995 0 4.408 3.514 7.995 7.834 7.995 2.094 0 3.801-.845 5.005-2.215v1.77c0 .108.088.195.196.195h2.511a.196.196 0 0 0 .196-.196V5.87a.196.196 0 0 0-.196-.196h-2.511a.196.196 0 0 0-.196.196zm-4.844 12.412c-2.722 0-4.811-2.259-4.811-5.035 0-2.777 2.089-5.036 4.811-5.036 2.721 0 4.562 2.259 4.562 5.035 0 2.777-1.841 5.036-4.562 5.036zM137.097.27v7.195c-1.204-1.37-2.911-2.214-5.005-2.214-4.32 0-7.834 3.586-7.834 7.995 0 4.408 3.514 7.994 7.834 7.994 2.094 0 3.801-.844 5.005-2.214v1.769c0 .108.088.196.196.196h2.511a.196.196 0 0 0 .196-.196V.27a.196.196 0 0 0-.196-.196h-2.511a.196.196 0 0 0-.196.196zm-4.844 18.011c-2.721 0-4.811-2.259-4.811-5.035 0-2.777 2.09-5.036 4.811-5.036s4.562 2.259 4.562 5.035c0 2.777-1.841 5.036-4.562 5.036zM58.824 20.79V5.869c0-.108.088-.196.196-.196h2.511c.108 0 .196.088.196.196v14.92a.196.196 0 0 1-.196.196H59.02a.196.196 0 0 1-.196-.195z" clip-rule="evenodd"/></svg>