<svg version="1.1" id="Layer_1" xmlns="http://www.w3.org/2000/svg" x="0" y="0" viewBox="0 0 195.1 79.9" xml:space="preserve"><style>.st0{fill:#174722}.st1{fill:#231f20}.st2{fill:#05b259}</style><path class="st0" d="M48.3 49.4l.7-8.1-7.8-4.8-.2 7.9z"/><path class="st1" d="M48.3 49.8c-.1 0-.1 0-.2-.1l-7.2-5c-.1-.1-.1-.2-.1-.3l.2-7.9c0-.1.1-.2.2-.3.1-.1.2-.1.3 0l7.8 4.9c.1.1.2.2.2.3l-.7 8.1c0 .1-.1.2-.2.3h-.3m-6.9-5.6l6.6 4.6.6-7.3-7.1-4.4-.1 7.1z"/><path class="st0" d="M37.9 57.7v-8.4l-7.9-6 .6 8.3z"/><path class="st1" d="M37.9 58c-.1 0-.2 0-.2-.1l-7.3-6.1c-.1-.1-.1-.1-.1-.2l-.6-8.3c0-.1.1-.3.2-.3.1-.1.3-.1.4 0l7.8 6c.1.1.1.2.1.3l.1 8.4c0 .1-.1.3-.2.3h-.2M31 51.4l6.6 5.6-.1-7.5-7.1-5.5.6 7.4z"/><path class="st0" d="M25.3 67.7l-1.2-8.6-7.7-7.5 1.8 8.5z"/><path class="st1" d="M25.3 68.1c-.1 0-.2 0-.2-.1L18 60.4s-.1-.1-.1-.2l-1.8-8.5c0-.1 0-.3.2-.4.1-.1.3 0 .4.1l7.7 7.5c.1.1.1.1.1.2l1.3 8.6c0 .1-.1.3-.2.4h-.3M18.5 60l6.3 6.7-1.1-7.4-6.7-6.7 1.5 7.4z"/><path class="st0" d="M23.4 54.7l-1.6-11.4-8.6-7.1 2.3 11z"/><path class="st1" d="M23.4 55c-.1 0-.2 0-.2-.1l-7.9-7.5c-.1 0-.1-.1-.1-.2l-2.3-11c0-.1 0-.3.2-.4.1-.1.3-.1.4 0L22 43c.1.1.1.1.1.2l1.7 11.4c0 .1-.1.3-.2.3-.1.1-.1.1-.2.1m-7.6-8l7.1 6.7-1.5-10.3-7.7-6.4 2.1 10z"/><path class="st0" d="M21 37.9l-2.3-15.6-9.6-5.9 3 14.6z"/><path class="st1" d="M21 38.2c-.1 0-.1 0-.2-.1L12 31.2c-.1 0-.1-.1-.1-.2l-3-14.6c0-.1 0-.3.1-.3 0-.1.2-.1.3 0l9.6 5.9.2.2 2.3 15.6c0 .1 0 .3-.2.3-.1.1-.2.1-.2.1m-8.5-7.4l8.1 6.3-2.1-14.6-8.8-5.4 2.8 13.7z"/><path d="M49 41.3l6.4-4.6-7.7-4.2-6.5 4z"/><path class="st1" d="M49 41.6h-.2L41 36.7c-.1-.1-.2-.2-.2-.3 0-.1.1-.2.2-.3l6.5-4c.1-.1.2-.1.3 0l7.7 4.3c.1.1.2.2.2.3 0 .1 0 .2-.1.3l-6.4 4.6H49m-7.2-5.1l7.1 4.4 5.8-4.1-7-3.9-5.9 3.6z"/><path d="M37.9 49.3l7.9-5.7-7.8-5.2-8 4.9z"/><path class="st1" d="M37.9 49.6c-.1 0-.1 0-.2-.1l-7.8-6c-.1-.1-.1-.2-.1-.3 0-.1.1-.2.2-.3l8-4.9c.1-.1.3-.1.4 0l7.8 5.2c.1.1.1.2.2.3 0 .1-.1.2-.1.3l-7.9 5.7c-.4.1-.5.1-.5.1m-7.3-6.3l7.2 5.5 7.3-5.2-7.1-4.8-7.4 4.5z"/><path d="M26.3 45.5l-3.9 2.4 1 6.8-4.7-4.5-2.3 1.4 7.7 7.5 10.1-7.2z"/><path class="st1" d="M24.1 59.5c-.1 0-.2 0-.2-.1l-7.7-7.5c-.1-.1-.1-.2-.1-.3 0-.1.1-.2.2-.2l2.3-1.4c.1-.1.3-.1.4 0l4 3.8-.9-5.8c0-.1 0-.3.2-.3l3.9-2.4c.1-.1.3-.1.4 0l7.8 6.4c.1.1.1.2.1.3 0 .1-.1.2-.1.3l-10.1 7.2h-.2M17 51.7l7.1 7 9.5-6.8-7.3-5.9-3.5 2.2 1 6.5c0 .1-.1.3-.2.3-.1.1-.3 0-.4-.1l-4.5-4.3-1.7 1.1z"/><path d="M24.7 30.7l-4.5 2.2.8 5-4.3-3.4-3.5 1.7 8.6 7.1 11.7-6.7z"/><path class="st1" d="M21.8 43.6c-.1 0-.2 0-.2-.1l-8.6-7c-.1-.1-.1-.2-.1-.3 0-.1.1-.2.2-.3l3.5-1.7c.1-.1.3 0 .4 0l3.6 2.8-.6-4.2c0-.1.1-.3.2-.4l4.5-2.1c.1-.1.2 0 .3 0l8.8 5.9c.1.1.2.2.1.3 0 .1-.1.2-.2.3L22 43.5c-.1.1-.2.1-.2.1m-8-7.3l7.9 6.6 11.1-6.3-8.2-5.5-4.1 2 .7 4.8c0 .1 0 .3-.2.3-.1.1-.3.1-.4 0L16.5 35l-2.7 1.3z"/><path d="M18.7 22.3l14-5.4-10-4.8-13.6 4.3z"/><path class="st1" d="M18.7 22.7c-.1 0-.1 0-.2-.1l-9.6-5.9c-.1-.1-.2-.2-.2-.3 0-.1.1-.2.2-.3l13.6-4.2h.2l10 4.8c.1.1.2.2.2.3 0 .1-.1.3-.2.3l-14 5.4c.1-.1 0 0 0 0m-8.8-6.2l8.8 5.5 13.1-5-9.1-4.4-12.8 3.9z"/><path class="st2" d="M54.3 44.6l-6 4.8.7-8.1 6.4-4.6z"/><path class="st1" d="M48.3 49.8h-.2c-.1-.1-.2-.2-.2-.3l.7-8.1c0-.1.1-.2.1-.2l6.4-4.6c.1-.1.3-.1.4 0 .1.1.2.2.2.3l-1.1 7.9c0 .1-.1.2-.1.2l-6 4.8c-.1-.1-.1 0-.2 0m1-8.3l-.6 7.2 5.3-4.2.9-7-5.6 4z"/><path class="st2" d="M45.3 51.8l-7.4 5.9v-8.4l7.9-5.7z"/><path class="st1" d="M37.9 58h-.1c-.1-.1-.2-.2-.2-.3l-.1-8.4c0-.1.1-.2.1-.3l7.9-5.7c.1-.1.2-.1.4 0 .1.1.2.2.2.3l-.5 8.2c0 .1-.1.2-.1.2l-7.4 5.9c0 .1-.1.1-.2.1m.3-8.6l.1 7.5 6.7-5.3.4-7.4-7.2 5.2z"/><path class="st2" d="M34.5 60.4l-9.2 7.3-1.2-8.6 10.1-7.2z"/><path class="st1" d="M25.3 68.1h-.1c-.1 0-.2-.1-.2-.3l-1.3-8.6c0-.1 0-.2.1-.3L34 51.6c.1-.1.2-.1.3 0 .1.1.2.2.2.3l.4 8.5c0 .1 0 .2-.1.3L25.5 68s-.1.1-.2.1m-.9-8.8l1.1 7.8 8.6-6.9-.3-7.7-9.4 6.8z"/><path class="st2" d="M32.7 16.9l.6 14.6L21 37.9l-2.3-15.6z"/><path class="st1" d="M21 38.2h-.2c-.1 0-.2-.1-.2-.3l-2.3-15.6c0-.2.1-.3.2-.4l14-5.4h.3c.1.1.1.2.2.3l.6 14.5c0 .1-.1.3-.2.3L21.1 38c0 .2-.1.2-.1.2m-1.9-15.7l2.2 14.8L33 31.2l-.6-13.8-13.3 5.1z"/><path class="st2" d="M33.5 36.6l.5 11-10.6 7.1-1.6-11.4z"/><path class="st1" d="M23.4 55h-.1c-.1 0-.2-.1-.2-.3l-1.7-11.4c0-.1 0-.3.2-.3l11.7-6.7c.1-.1.2-.1.3 0 .1.1.2.2.2.3l.5 10.9c0 .1-.1.2-.1.3l-10.6 7.1c-.1.1-.1.1-.2.1m-1.3-11.5l1.6 10.6 10-6.7-.4-10.2-11.2 6.3z"/><g><path class="st1" d="M71 25.5l5.1-1.2v24.3c0 2.7.8 4.3 2.4 4.8-.8 1.5-2.1 2.2-4 2.2-2.3 0-3.4-1.6-3.4-4.8V25.5zM83.7 55.2V37.7h-2.8v-4.1h7.9v21.6h-5.1zm2.6-30c.8 0 1.5.3 2.1.9.6.6.9 1.3.9 2.1s-.3 1.5-.9 2.1c-.6.6-1.3.9-2.1.9s-1.5-.3-2.1-.9c-.6-.6-.9-1.3-.9-2.1s.3-1.5.9-2.1c.6-.7 1.3-.9 2.1-.9M108.6 55.2V42.7c0-1.8-.4-3.2-1.1-4-.7-.8-1.9-1.3-3.5-1.3-.7 0-1.5.2-2.4.6-.8.4-1.5.9-2 1.6v15.6h-5.1V33.5h3.6l.9 2c1.4-1.6 3.4-2.4 6.1-2.4 2.6 0 4.6.8 6.1 2.3 1.5 1.5 2.2 3.7 2.2 6.5v13.3h-4.8zM117.7 44.3c0-3.3 1-6 2.9-8.1 1.9-2.1 4.4-3.1 7.5-3.1 3.3 0 5.8 1 7.7 3 1.8 2 2.7 4.7 2.7 8.2 0 3.4-.9 6.2-2.8 8.2-1.9 2-4.4 3.1-7.6 3.1-3.3 0-5.8-1-7.7-3.1-1.8-2-2.7-4.8-2.7-8.2m5.3 0c0 4.8 1.7 7.2 5.2 7.2 1.6 0 2.8-.6 3.7-1.9.9-1.2 1.4-3 1.4-5.3 0-4.7-1.7-7.1-5.1-7.1-1.6 0-2.8.6-3.8 1.9-1 1.3-1.4 3-1.4 5.2M156.5 55.2v-1.3c-.4.5-1.1.9-2.1 1.2-1 .3-2 .5-3.1.5-3 0-5.4-1-7.1-2.9-1.7-1.9-2.6-4.6-2.6-8 0-3.4 1-6.2 3-8.4 2-2.1 4.5-3.2 7.5-3.2 1.6 0 3.1.3 4.5 1v-8.7l5.1-1.2v30.9h-5.2zm0-16.5c-1.1-.9-2.2-1.3-3.4-1.3-2 0-3.6.6-4.7 1.8-1.1 1.2-1.6 3-1.6 5.3 0 4.5 2.2 6.7 6.5 6.7.5 0 1.1-.1 1.8-.4.7-.3 1.2-.6 1.4-.9V38.7zM185.9 45.9h-15.5c.1 1.7.7 3.1 1.8 4 1.1 1 2.6 1.4 4.4 1.4 2.3 0 4.1-.6 5.3-1.8l2 3.9c-1.8 1.4-4.4 2.2-8 2.2-3.3 0-5.9-1-7.8-2.9-1.9-1.9-2.9-4.6-2.9-8.1 0-3.4 1.1-6.2 3.2-8.3 2.1-2.1 4.6-3.2 7.6-3.2 3.1 0 5.7.9 7.6 2.8 1.9 1.9 2.9 4.3 2.9 7.2-.2.6-.3 1.6-.6 2.8m-15.3-3.8h10.6c-.4-3.2-2.1-4.7-5.3-4.7-2.8 0-4.6 1.5-5.3 4.7"/></g></svg>