<svg width="500" height="500" viewBox="0 0 500 500" fill="none" xmlns="http://www.w3.org/2000/svg">
<path d="M0 30C0 13.4315 13.4315 0 30 0H470C486.569 0 500 13.4315 500 30V470C500 486.569 486.569 500 470 500H30C13.4315 500 0 486.569 0 470V30Z" fill="#5299D3"/>
<g opacity="0.2">
<path d="M230.101 309.757C230.011 309.757 229.923 309.739 229.841 309.702C229.759 309.666 229.685 309.612 229.626 309.546C229.563 309.483 229.513 309.409 229.479 309.328C229.445 309.246 229.427 309.158 229.427 309.07C229.427 308.982 229.445 308.894 229.479 308.812C229.513 308.731 229.563 308.657 229.626 308.595L270.652 270.099L252.076 249.284L232.091 270.592C232.029 270.655 231.954 270.705 231.873 270.739C231.791 270.773 231.704 270.79 231.615 270.79C231.527 270.79 231.439 270.773 231.358 270.739C231.276 270.705 231.202 270.655 231.14 270.592C231.017 270.464 230.949 270.294 230.949 270.116C230.949 269.939 231.017 269.769 231.14 269.641L251.636 247.787C251.698 247.718 251.774 247.664 251.859 247.628C251.944 247.591 252.036 247.574 252.129 247.575C252.222 247.578 252.314 247.6 252.399 247.639C252.484 247.678 252.559 247.735 252.622 247.804L272.096 269.694C272.158 269.754 272.208 269.827 272.242 269.907C272.276 269.987 272.293 270.073 272.293 270.16C272.293 270.247 272.276 270.333 272.242 270.414C272.208 270.494 272.158 270.566 272.096 270.627L230.559 309.598C230.431 309.707 230.268 309.763 230.101 309.757Z" fill="#FFFBEE"/>
<path d="M274.508 346.404C274.353 346.404 274.203 346.348 274.086 346.245L229.678 309.598C229.543 309.482 229.459 309.318 229.442 309.141C229.426 308.963 229.479 308.786 229.59 308.647C229.715 308.526 229.883 308.458 230.057 308.458C230.231 308.458 230.399 308.526 230.524 308.647L274.931 345.312C275.065 345.425 275.149 345.586 275.166 345.76C275.182 345.935 275.13 346.109 275.019 346.245C274.949 346.305 274.868 346.35 274.78 346.378C274.692 346.405 274.6 346.414 274.508 346.404Z" fill="#FFFBEE"/>
<path d="M227.072 385.798C226.975 385.801 226.879 385.782 226.79 385.743C226.702 385.703 226.624 385.643 226.562 385.569C226.439 385.441 226.371 385.27 226.371 385.093C226.371 384.916 226.439 384.746 226.562 384.618L273.98 345.224C274.108 345.101 274.278 345.033 274.456 345.033C274.633 345.033 274.803 345.101 274.931 345.224C275.042 345.36 275.094 345.534 275.078 345.708C275.061 345.883 274.977 346.044 274.843 346.157L227.407 385.569C227.324 385.681 227.207 385.761 227.072 385.798Z" fill="#FFFBEE"/>
<path d="M256.302 408.955C256.152 408.953 256.008 408.897 255.897 408.796L226.667 385.657C226.596 385.605 226.537 385.539 226.492 385.463C226.447 385.388 226.418 385.304 226.407 385.216C226.395 385.129 226.401 385.04 226.425 384.956C226.449 384.871 226.489 384.792 226.544 384.723C226.658 384.586 226.821 384.497 226.998 384.478C227.176 384.458 227.354 384.508 227.495 384.618L256.724 407.757C256.861 407.868 256.949 408.028 256.968 408.202C256.988 408.377 256.938 408.553 256.83 408.691C256.77 408.774 256.691 408.842 256.599 408.888C256.506 408.934 256.405 408.957 256.302 408.955Z" fill="#FFFBEE"/>
<path d="M228.692 346.404C228.594 346.406 228.496 346.385 228.407 346.343C228.318 346.3 228.241 346.236 228.182 346.157C228.071 346.021 228.019 345.847 228.035 345.672C228.052 345.498 228.136 345.337 228.27 345.224L272.061 308.577L231.14 270.627C231.018 270.502 230.95 270.335 230.95 270.16C230.95 269.986 231.018 269.819 231.14 269.694C231.201 269.629 231.274 269.577 231.356 269.541C231.438 269.506 231.526 269.488 231.615 269.488C231.704 269.488 231.793 269.506 231.874 269.541C231.956 269.577 232.03 269.629 232.091 269.694L273.505 308.119C273.575 308.185 273.631 308.264 273.671 308.351C273.71 308.439 273.732 308.534 273.734 308.63C273.718 308.82 273.63 308.996 273.487 309.123L229.133 346.245C229.008 346.347 228.853 346.402 228.692 346.404Z" fill="#FFFBEE"/>
<path d="M225.329 429.136C225.233 429.136 225.138 429.116 225.05 429.076C224.962 429.037 224.883 428.979 224.819 428.907C224.756 428.845 224.706 428.771 224.672 428.689C224.638 428.608 224.62 428.52 224.62 428.432C224.62 428.343 224.638 428.256 224.672 428.174C224.706 428.093 224.756 428.019 224.819 427.956L256.619 400.766C256.747 400.644 256.917 400.575 257.094 400.575C257.271 400.575 257.442 400.644 257.57 400.766C257.691 400.891 257.759 401.059 257.759 401.233C257.759 401.407 257.691 401.575 257.57 401.7L225.752 428.89C225.647 429.022 225.496 429.11 225.329 429.136Z" fill="#FFFBEE"/>
<path d="M267.641 392.965C267.545 392.963 267.451 392.941 267.363 392.902C267.275 392.863 267.196 392.806 267.131 392.736C267.012 392.606 266.946 392.437 266.946 392.261C266.946 392.085 267.012 391.915 267.131 391.785L274.913 385.146L228.27 346.245C228.161 346.126 228.098 345.971 228.094 345.81C228.09 345.648 228.144 345.491 228.247 345.366C228.35 345.242 228.495 345.159 228.655 345.132C228.814 345.106 228.978 345.139 229.115 345.224L276.445 384.618C276.522 384.679 276.584 384.756 276.627 384.845C276.67 384.933 276.692 385.03 276.692 385.128C276.692 385.225 276.671 385.32 276.632 385.408C276.592 385.496 276.535 385.575 276.463 385.639L268.082 392.806C267.959 392.911 267.802 392.967 267.641 392.965Z" fill="#FFFBEE"/>
<path d="M252.903 449.141C252.764 449.147 252.627 449.103 252.516 449.018L224.924 429.013C224.779 428.908 224.682 428.75 224.654 428.573C224.626 428.396 224.67 428.216 224.775 428.071C224.88 427.926 225.038 427.829 225.215 427.801C225.391 427.773 225.572 427.816 225.717 427.921L253.291 447.926C253.362 447.977 253.423 448.042 253.47 448.116C253.517 448.191 253.549 448.273 253.563 448.36C253.578 448.447 253.576 448.535 253.556 448.621C253.536 448.707 253.5 448.788 253.449 448.86C253.388 448.948 253.307 449.02 253.212 449.069C253.116 449.118 253.011 449.143 252.903 449.141Z" fill="#FFFBEE"/>
<path d="M6.33821 499.612C6.16331 499.614 5.98969 499.582 5.82743 499.517C5.66517 499.451 5.5175 499.354 5.393 499.232C5.2685 499.109 5.16965 498.962 5.10218 498.801C5.03472 498.64 4.99998 498.466 5 498.291V468.794C5 468.439 5.14099 468.099 5.39195 467.848C5.64292 467.597 5.98329 467.456 6.33821 467.456H36.2719V409.747C36.2719 409.392 36.4128 409.052 36.6638 408.801C36.9148 408.55 37.2551 408.409 37.6101 408.409H47.8051V324.902C47.8051 324.547 47.9461 324.206 48.1971 323.955C48.448 323.704 48.7884 323.563 49.1433 323.563H76.2949C76.6498 323.563 76.9902 323.704 77.2411 323.955C77.4921 324.206 77.6331 324.547 77.6331 324.902V376.517C77.6331 376.872 77.4921 377.212 77.2411 377.463C76.9902 377.714 76.6498 377.855 76.2949 377.855C75.94 377.855 75.5996 377.714 75.3486 377.463C75.0977 377.212 74.9567 376.872 74.9567 376.517V326.24H50.4287V409.747C50.4287 410.102 50.2877 410.443 50.0368 410.694C49.7858 410.945 49.4454 411.086 49.0905 411.086H38.8954V468.794C38.8954 469.149 38.7545 469.49 38.5035 469.741C38.2525 469.992 37.9122 470.133 37.5572 470.133H7.6236V498.309C7.61917 498.65 7.48286 498.976 7.24324 499.219C7.00362 499.462 6.67929 499.603 6.33821 499.612Z" fill="#FFFBEE"/>
<path d="M102.707 489.222C102.531 489.222 102.357 489.188 102.195 489.12C102.032 489.053 101.885 488.954 101.761 488.83C101.636 488.706 101.538 488.558 101.471 488.396C101.403 488.234 101.369 488.06 101.369 487.884V416.633L92.5647 411.579C92.3583 411.464 92.187 411.295 92.0692 411.09C91.9513 410.886 91.8913 410.653 91.8956 410.417V291.636H61.9619V324.902C61.9643 325.077 61.9318 325.25 61.8665 325.412C61.8012 325.575 61.7043 325.722 61.5814 325.847C61.4586 325.971 61.3122 326.07 61.1508 326.138C60.9894 326.205 60.8163 326.24 60.6413 326.24C60.2864 326.24 59.946 326.099 59.6951 325.848C59.4441 325.597 59.3031 325.257 59.3031 324.902V290.227C59.3031 290.051 59.3377 289.877 59.405 289.715C59.4723 289.553 59.5708 289.405 59.6951 289.281C59.8193 289.157 59.9669 289.058 60.1292 288.991C60.2916 288.923 60.4656 288.889 60.6413 288.889H93.1986C93.3743 288.889 93.5483 288.923 93.7107 288.991C93.8731 289.058 94.0206 289.157 94.1449 289.281C94.2691 289.405 94.3677 289.553 94.4349 289.715C94.5022 289.877 94.5368 290.051 94.5368 290.227V409.571L103.341 414.625C103.544 414.745 103.712 414.914 103.829 415.118C103.946 415.322 104.009 415.553 104.01 415.788V487.725C104.032 487.911 104.015 488.099 103.96 488.278C103.905 488.457 103.813 488.622 103.69 488.763C103.568 488.904 103.417 489.018 103.247 489.097C103.078 489.176 102.894 489.219 102.707 489.222Z" fill="#FFFBEE"/>
<path d="M85.0989 489.222C84.744 489.222 84.4036 489.081 84.1527 488.83C83.9017 488.579 83.7607 488.239 83.7607 487.884V378.507H55.8696V487.796C55.8696 488.151 55.7286 488.491 55.4776 488.742C55.2267 488.993 54.8863 489.134 54.5314 489.134C54.1765 489.134 53.8361 488.993 53.5851 488.742C53.3342 488.491 53.1932 488.151 53.1932 487.796V377.169C53.1932 376.814 53.3342 376.473 53.5851 376.222C53.8361 375.971 54.1765 375.83 54.5314 375.83H85.0989C85.2746 375.83 85.4487 375.865 85.611 375.932C85.7734 375.999 85.9209 376.098 86.0452 376.222C86.1694 376.346 86.268 376.494 86.3353 376.656C86.4025 376.819 86.4371 376.993 86.4371 377.169V487.796C86.4492 487.979 86.4235 488.162 86.3617 488.335C86.2998 488.508 86.2032 488.666 86.0777 488.8C85.9522 488.933 85.8006 489.04 85.6322 489.112C85.4638 489.185 85.2823 489.223 85.0989 489.222Z" fill="#FFFBEE"/>
<path d="M191.645 452.663C191.29 452.663 190.95 452.522 190.699 452.271C190.448 452.02 190.307 451.68 190.307 451.325V342.917H144.966V449.423C144.966 449.778 144.825 450.119 144.574 450.37C144.323 450.621 143.983 450.762 143.628 450.762C143.273 450.762 142.933 450.621 142.682 450.37C142.431 450.119 142.29 449.778 142.29 449.423V341.578C142.29 341.223 142.431 340.883 142.682 340.632C142.933 340.381 143.273 340.24 143.628 340.24H191.698C192.053 340.24 192.393 340.381 192.644 340.632C192.895 340.883 193.036 341.223 193.036 341.578V451.325C193.036 451.505 193 451.684 192.929 451.85C192.859 452.016 192.756 452.166 192.626 452.291C192.496 452.416 192.342 452.513 192.173 452.577C192.005 452.641 191.825 452.671 191.645 452.663Z" fill="#FFFBEE"/>
<path d="M225.012 443.031H203.073C202.718 443.031 202.377 442.89 202.126 442.639C201.875 442.388 201.734 442.047 201.734 441.692V348.446L191.011 342.758C190.706 342.597 190.475 342.322 190.37 341.993C190.265 341.664 190.293 341.306 190.448 340.997C190.612 340.695 190.887 340.467 191.215 340.363C191.543 340.258 191.899 340.283 192.209 340.434L203.636 346.509C203.853 346.622 204.034 346.791 204.161 346.999C204.289 347.207 204.357 347.445 204.358 347.689V440.389H223.727L231.562 236.499C231.576 236.156 231.721 235.831 231.966 235.592C232.212 235.353 232.54 235.217 232.883 235.213H270.3C270.508 235.213 270.712 235.261 270.899 235.352C271.085 235.444 271.248 235.577 271.374 235.741L280.178 247.294C280.335 247.51 280.427 247.766 280.442 248.033L288.295 392.261C288.31 392.612 288.188 392.955 287.955 393.217C287.722 393.48 287.396 393.642 287.045 393.669C286.869 393.681 286.692 393.658 286.525 393.6C286.358 393.542 286.204 393.452 286.073 393.333C285.942 393.215 285.835 393.072 285.76 392.912C285.685 392.752 285.643 392.578 285.637 392.401L277.801 248.579L269.666 237.89H234.168L226.35 441.675C226.353 441.852 226.32 442.028 226.254 442.192C226.188 442.357 226.089 442.506 225.965 442.632C225.84 442.759 225.692 442.859 225.528 442.927C225.365 442.995 225.19 443.031 225.012 443.031Z" fill="#FFFBEE"/>
<path d="M225.734 424.064C225.381 424.046 225.049 423.891 224.808 423.631C224.568 423.371 224.439 423.027 224.449 422.673L231.246 244.441C231.268 244.089 231.425 243.759 231.684 243.52C231.943 243.28 232.284 243.15 232.637 243.155C232.812 243.16 232.984 243.199 233.144 243.271C233.303 243.342 233.447 243.445 233.567 243.573C233.686 243.701 233.779 243.851 233.84 244.015C233.901 244.179 233.929 244.354 233.922 244.529L227.072 422.814C227.054 423.155 226.905 423.476 226.655 423.709C226.406 423.942 226.076 424.07 225.734 424.064Z" fill="#FFFBEE"/>
<path d="M276.287 393.634C275.943 393.634 275.612 393.5 275.365 393.26C275.119 393.02 274.975 392.693 274.966 392.349L268.962 236.569C268.948 236.214 269.075 235.868 269.317 235.607C269.558 235.346 269.892 235.192 270.247 235.178C270.602 235.164 270.948 235.291 271.209 235.532C271.47 235.773 271.624 236.108 271.638 236.463L277.625 392.243C277.632 392.419 277.605 392.594 277.544 392.759C277.483 392.924 277.39 393.076 277.271 393.205C277.151 393.334 277.008 393.439 276.848 393.512C276.688 393.586 276.515 393.627 276.34 393.634H276.287Z" fill="#FFFBEE"/>
<path d="M270.758 249.618H232.584C232.229 249.618 231.888 249.477 231.637 249.226C231.387 248.975 231.246 248.635 231.246 248.28C231.246 247.925 231.387 247.584 231.637 247.333C231.888 247.082 232.229 246.941 232.584 246.941H270.758C271.113 246.941 271.453 247.082 271.704 247.333C271.955 247.584 272.096 247.925 272.096 248.28C272.096 248.635 271.955 248.975 271.704 249.226C271.453 249.477 271.113 249.618 270.758 249.618Z" fill="#FFFBEE"/>
<path d="M492.601 500C492.247 500 491.906 499.859 491.655 499.608C491.404 499.357 491.263 499.016 491.263 498.661V397.508L473.233 367.923L455.184 397.508V490.842C455.184 491.197 455.043 491.538 454.792 491.789C454.542 492.04 454.201 492.181 453.846 492.181H435.622C435.267 492.181 434.927 492.04 434.676 491.789C434.425 491.538 434.284 491.197 434.284 490.842V446.341H423.719C423.364 446.341 423.024 446.2 422.773 445.949C422.522 445.698 422.381 445.358 422.381 445.003V364.965L415.514 360.703H379.399V473.778C379.399 474.133 379.259 474.473 379.008 474.724C378.757 474.975 378.416 475.116 378.061 475.116H367.373C367.021 475.112 366.685 474.969 366.438 474.718C366.191 474.468 366.053 474.13 366.053 473.778V461.451H352.424C352.069 461.451 351.729 461.31 351.478 461.059C351.227 460.808 351.086 460.467 351.086 460.113V395.765H347.564C347.209 395.765 346.869 395.624 346.618 395.373C346.367 395.122 346.226 394.782 346.226 394.427V365.123H340.01C339.692 365.123 339.385 365.009 339.142 364.803C338.9 364.596 338.74 364.31 338.69 363.996L336.594 350.877L335.221 363.926C335.186 364.256 335.03 364.561 334.783 364.782C334.535 365.004 334.215 365.125 333.883 365.123H326.84V393.3C326.839 393.5 326.793 393.698 326.704 393.878C326.616 394.058 326.487 394.215 326.329 394.339L323.283 396.786V457.119C323.283 457.474 323.142 457.814 322.891 458.065C322.64 458.316 322.299 458.457 321.944 458.457H305.199C304.844 458.457 304.504 458.316 304.253 458.065C304.002 457.814 303.861 457.474 303.861 457.119V416.316H300.339C299.985 416.316 299.644 416.175 299.393 415.924C299.142 415.673 299.001 415.333 299.001 414.978V403.302H296.571C296.396 403.302 296.223 403.267 296.062 403.2C295.9 403.132 295.754 403.034 295.631 402.909C295.508 402.785 295.411 402.637 295.346 402.475C295.281 402.312 295.248 402.139 295.251 401.964V393.634H264.472L257.64 402.439V414.995C257.64 415.35 257.499 415.691 257.248 415.942C256.997 416.193 256.657 416.334 256.302 416.334H254.242V469.27C254.242 469.625 254.101 469.965 253.85 470.216C253.599 470.467 253.258 470.608 252.903 470.608C252.549 470.608 252.208 470.467 251.957 470.216C251.706 469.965 251.565 469.625 251.565 469.27V414.978C251.565 414.623 251.706 414.282 251.957 414.031C252.208 413.78 252.549 413.639 252.903 413.639H254.981V401.964C254.977 401.672 255.07 401.387 255.245 401.154L262.764 391.468C262.89 391.308 263.05 391.179 263.233 391.091C263.416 391.002 263.617 390.957 263.82 390.957H296.571C296.747 390.957 296.921 390.992 297.083 391.059C297.246 391.126 297.393 391.225 297.518 391.349C297.642 391.474 297.74 391.621 297.808 391.784C297.875 391.946 297.91 392.12 297.91 392.296V400.625H300.339C300.691 400.63 301.027 400.773 301.274 401.024C301.522 401.274 301.66 401.612 301.66 401.964V413.639H305.182C305.537 413.639 305.877 413.78 306.128 414.031C306.379 414.282 306.52 414.623 306.52 414.978V455.763H320.606V396.135C320.606 395.933 320.65 395.734 320.735 395.552C320.82 395.369 320.945 395.207 321.099 395.078L324.163 392.63V363.785C324.163 363.43 324.304 363.089 324.555 362.838C324.806 362.587 325.146 362.446 325.501 362.446H332.703L334.992 340.575C335.026 340.251 335.177 339.95 335.417 339.73C335.657 339.509 335.969 339.384 336.295 339.377C336.62 339.365 336.938 339.473 337.189 339.681C337.439 339.889 337.603 340.182 337.651 340.504L341.172 362.446H347.582C347.937 362.446 348.277 362.587 348.528 362.838C348.779 363.089 348.92 363.43 348.92 363.785V393.088H352.442C352.797 393.088 353.137 393.229 353.388 393.48C353.639 393.731 353.78 394.072 353.78 394.427V458.757H367.391C367.746 458.757 368.086 458.898 368.337 459.149C368.588 459.4 368.729 459.74 368.729 460.095V472.422H376.741V359.365C376.741 359.19 376.775 359.017 376.843 358.855C376.91 358.694 377.009 358.547 377.134 358.425C377.258 358.302 377.406 358.205 377.568 358.139C377.73 358.074 377.904 358.042 378.079 358.044H415.954C416.203 358.037 416.448 358.104 416.658 358.238L424.494 363.08C424.687 363.202 424.847 363.371 424.958 363.571C425.069 363.771 425.127 363.996 425.127 364.225V443.665H435.692C436.047 443.665 436.388 443.806 436.639 444.057C436.89 444.308 437.031 444.648 437.031 445.003V489.539H452.578V397.121C452.581 396.879 452.647 396.642 452.772 396.434L472.141 364.736C472.269 364.554 472.44 364.406 472.637 364.304C472.835 364.201 473.054 364.148 473.277 364.148C473.499 364.148 473.718 364.201 473.916 364.304C474.114 364.406 474.284 364.554 474.412 364.736L493.781 396.434C493.906 396.642 493.973 396.879 493.975 397.121V498.661C493.975 498.84 493.939 499.017 493.87 499.182C493.8 499.346 493.699 499.495 493.571 499.62C493.443 499.745 493.291 499.843 493.124 499.908C492.958 499.973 492.78 500.004 492.601 500Z" fill="#FFFBEE"/>
<path d="M415.954 495.051C415.779 495.053 415.605 495.021 415.443 494.956C415.281 494.89 415.133 494.793 415.009 494.671C414.884 494.548 414.785 494.401 414.718 494.24C414.65 494.078 414.616 493.905 414.616 493.73V359.365C414.616 359.01 414.757 358.669 415.007 358.418C415.258 358.167 415.599 358.026 415.954 358.026C416.309 358.026 416.649 358.167 416.9 358.418C417.151 358.669 417.292 359.01 417.292 359.365V493.73C417.292 493.905 417.257 494.078 417.19 494.24C417.122 494.401 417.023 494.548 416.899 494.671C416.774 494.793 416.627 494.89 416.465 494.956C416.302 495.021 416.129 495.053 415.954 495.051Z" fill="#FFFBEE"/>
<path d="M473.233 420.402C473.044 420.403 472.857 420.365 472.684 420.289C472.511 420.213 472.356 420.101 472.229 419.961L452.86 398.019C452.631 397.748 452.515 397.398 452.538 397.043C452.561 396.689 452.721 396.357 452.983 396.117C453.252 395.889 453.599 395.774 453.95 395.797C454.302 395.82 454.631 395.979 454.867 396.24L473.233 417.02L491.598 396.205C491.709 396.059 491.849 395.938 492.009 395.848C492.169 395.759 492.346 395.703 492.529 395.685C492.711 395.667 492.896 395.686 493.07 395.742C493.245 395.798 493.406 395.89 493.544 396.011C493.682 396.132 493.794 396.28 493.872 396.446C493.95 396.612 493.994 396.792 493.999 396.975C494.005 397.159 493.973 397.341 493.905 397.512C493.837 397.682 493.735 397.837 493.605 397.966L474.236 419.908C474.115 420.059 473.963 420.181 473.789 420.267C473.616 420.352 473.426 420.398 473.233 420.402Z" fill="#FFFBEE"/>
<path d="M139.825 462.173H117.991C117.815 462.173 117.641 462.138 117.479 462.071C117.316 462.004 117.169 461.905 117.044 461.781C116.92 461.657 116.822 461.509 116.754 461.347C116.687 461.184 116.652 461.01 116.652 460.835V447.416H102.707C102.352 447.416 102.012 447.275 101.761 447.024C101.51 446.773 101.369 446.432 101.369 446.077C101.369 445.722 101.51 445.382 101.761 445.131C102.012 444.88 102.352 444.739 102.707 444.739H117.991C118.346 444.739 118.686 444.88 118.937 445.131C119.188 445.382 119.329 445.722 119.329 446.077V459.496H138.486V449.423C138.486 449.068 138.627 448.728 138.878 448.477C139.129 448.226 139.47 448.085 139.825 448.085H183.493C183.68 448.063 183.87 448.081 184.05 448.138C184.23 448.195 184.395 448.29 184.536 448.415C184.677 448.541 184.79 448.695 184.867 448.867C184.944 449.039 184.984 449.226 184.984 449.414C184.984 449.603 184.944 449.79 184.867 449.962C184.79 450.134 184.677 450.288 184.536 450.413C184.395 450.539 184.23 450.633 184.05 450.69C183.87 450.747 183.68 450.766 183.493 450.744H141.233V460.835C141.234 461.016 141.197 461.196 141.125 461.364C141.054 461.531 140.949 461.681 140.817 461.807C140.685 461.932 140.529 462.029 140.358 462.092C140.188 462.155 140.006 462.182 139.825 462.173Z" fill="#FFFBEE"/>
<path d="M241.969 237.854C241.614 237.854 241.273 237.713 241.023 237.462C240.772 237.212 240.631 236.871 240.631 236.516V175.338C240.631 174.983 240.772 174.643 241.023 174.392C241.273 174.141 241.614 174 241.969 174C242.324 174 242.664 174.141 242.915 174.392C243.166 174.643 243.307 174.983 243.307 175.338V236.516C243.307 236.871 243.166 237.212 242.915 237.462C242.664 237.713 242.324 237.854 241.969 237.854Z" fill="#FFFBEE"/>
<path d="M237.69 236.516V212.408H246.248V236.516" fill="#FFFBEE"/>
<path d="M256.953 237.854C256.598 237.854 256.258 237.713 256.007 237.462C255.756 237.212 255.615 236.871 255.615 236.516V175.338C255.615 174.983 255.756 174.643 256.007 174.392C256.258 174.141 256.598 174 256.953 174C257.308 174 257.649 174.141 257.899 174.392C258.15 174.643 258.291 174.983 258.291 175.338V236.516C258.291 236.871 258.15 237.212 257.899 237.462C257.649 237.713 257.308 237.854 256.953 237.854Z" fill="#FFFBEE"/>
<path d="M252.674 236.516V212.408H261.232V236.516" fill="#FFFBEE"/>
<path d="M69.7095 291.636C69.5277 291.636 69.3477 291.599 69.1806 291.528C69.0135 291.456 68.8627 291.351 68.7374 291.219C68.6122 291.088 68.5152 290.932 68.4522 290.761C68.3893 290.59 68.3617 290.409 68.3713 290.227V253.457C68.3713 253.102 68.5123 252.762 68.7632 252.511C69.0142 252.26 69.3546 252.119 69.7095 252.119C70.0644 252.119 70.4048 252.26 70.6558 252.511C70.9067 252.762 71.0477 253.102 71.0477 253.457V290.227C71.0573 290.409 71.0297 290.59 70.9668 290.761C70.9038 290.932 70.8068 291.088 70.6816 291.219C70.5563 291.351 70.4056 291.456 70.2384 291.528C70.0713 291.599 69.8913 291.636 69.7095 291.636Z" fill="#FFFBEE"/>
<path d="M82.7923 291.636C82.4373 291.636 82.097 291.495 81.846 291.244C81.595 290.993 81.454 290.653 81.454 290.298V253.457C81.454 253.102 81.595 252.762 81.846 252.511C82.097 252.26 82.4373 252.119 82.7923 252.119C83.1472 252.119 83.4875 252.26 83.7385 252.511C83.9895 252.762 84.1305 253.102 84.1305 253.457V290.227C84.14 290.409 84.1125 290.59 84.0495 290.761C83.9866 290.932 83.8895 291.088 83.7643 291.219C83.6391 291.351 83.4883 291.456 83.3212 291.528C83.154 291.599 82.9741 291.636 82.7923 291.636Z" fill="#FFFBEE"/>
<path d="M156.253 450.075C156.166 450.077 156.079 450.062 155.998 450.03C155.917 449.999 155.843 449.951 155.781 449.89C155.718 449.829 155.669 449.757 155.635 449.677C155.601 449.596 155.584 449.51 155.584 449.423V351.334C155.584 351.157 155.654 350.987 155.78 350.861C155.905 350.736 156.076 350.665 156.253 350.665C156.43 350.665 156.601 350.736 156.726 350.861C156.852 350.987 156.922 351.157 156.922 351.334V449.423C156.922 449.51 156.905 449.596 156.871 449.677C156.837 449.757 156.787 449.829 156.725 449.89C156.663 449.951 156.589 449.999 156.508 450.03C156.427 450.062 156.34 450.077 156.253 450.075Z" fill="#FFFBEE"/>
<path d="M167.857 450.075C167.77 450.077 167.683 450.062 167.602 450.03C167.521 449.999 167.447 449.951 167.385 449.89C167.322 449.829 167.273 449.757 167.239 449.677C167.205 449.596 167.188 449.51 167.188 449.423V351.334C167.188 351.157 167.258 350.987 167.383 350.861C167.509 350.736 167.679 350.665 167.857 350.665C168.034 350.665 168.204 350.736 168.33 350.861C168.455 350.987 168.526 351.157 168.526 351.334V449.423C168.526 449.51 168.508 449.596 168.475 449.677C168.441 449.757 168.391 449.829 168.329 449.89C168.266 449.951 168.192 449.999 168.111 450.03C168.03 450.062 167.944 450.077 167.857 450.075Z" fill="#FFFBEE"/>
<path d="M178.967 450.075C178.88 450.077 178.794 450.062 178.713 450.03C178.631 449.999 178.558 449.951 178.495 449.89C178.433 449.829 178.383 449.757 178.349 449.677C178.316 449.596 178.298 449.51 178.298 449.423V351.334C178.298 351.157 178.369 350.987 178.494 350.861C178.62 350.736 178.79 350.665 178.967 350.665C179.145 350.665 179.315 350.736 179.44 350.861C179.566 350.987 179.636 351.157 179.636 351.334V449.423C179.636 449.51 179.619 449.596 179.585 449.677C179.551 449.757 179.502 449.829 179.439 449.89C179.377 449.951 179.303 449.999 179.222 450.03C179.141 450.062 179.054 450.077 178.967 450.075Z" fill="#FFFBEE"/>
<path d="M265.616 470.326C265.439 470.326 265.269 470.256 265.143 470.13C265.018 470.005 264.947 469.835 264.947 469.657V416.14C264.947 415.962 265.018 415.792 265.143 415.667C265.269 415.541 265.439 415.471 265.616 415.471C265.794 415.471 265.964 415.541 266.09 415.667C266.215 415.792 266.286 415.962 266.286 416.14V469.657C266.286 469.745 266.268 469.832 266.235 469.913C266.201 469.994 266.152 470.068 266.09 470.13C266.027 470.193 265.954 470.242 265.872 470.275C265.791 470.309 265.704 470.326 265.616 470.326Z" fill="#FFFBEE"/>
<path d="M278.576 470.326C278.398 470.326 278.228 470.256 278.103 470.13C277.977 470.005 277.907 469.835 277.907 469.657V416.14C277.907 415.962 277.977 415.792 278.103 415.667C278.228 415.541 278.398 415.471 278.576 415.471C278.753 415.471 278.924 415.541 279.049 415.667C279.174 415.792 279.245 415.962 279.245 416.14V469.657C279.245 469.745 279.228 469.832 279.194 469.913C279.16 469.994 279.111 470.068 279.049 470.13C278.987 470.193 278.913 470.242 278.832 470.275C278.751 470.309 278.664 470.326 278.576 470.326Z" fill="#FFFBEE"/>
<path d="M291.007 470.326C290.833 470.322 290.667 470.249 290.545 470.124C290.424 469.999 290.356 469.832 290.356 469.657V416.14C290.34 416.044 290.345 415.946 290.371 415.853C290.397 415.759 290.443 415.672 290.506 415.598C290.569 415.525 290.647 415.465 290.735 415.424C290.823 415.384 290.919 415.363 291.016 415.363C291.113 415.363 291.209 415.384 291.297 415.424C291.385 415.465 291.463 415.525 291.526 415.598C291.589 415.672 291.635 415.759 291.661 415.853C291.687 415.946 291.692 416.044 291.676 416.14V469.657C291.676 469.745 291.659 469.832 291.625 469.913C291.592 469.995 291.542 470.068 291.48 470.13C291.418 470.193 291.344 470.242 291.263 470.275C291.182 470.309 291.095 470.326 291.007 470.326Z" fill="#FFFBEE"/>
<path d="M300.339 416.316H256.319C255.964 416.316 255.624 416.175 255.373 415.924C255.122 415.673 254.981 415.333 254.981 414.978C254.981 414.623 255.122 414.282 255.373 414.031C255.624 413.78 255.964 413.639 256.319 413.639H300.339C300.694 413.639 301.035 413.78 301.286 414.031C301.537 414.282 301.678 414.623 301.678 414.978C301.678 415.333 301.537 415.673 301.286 415.924C301.035 416.175 300.694 416.316 300.339 416.316Z" fill="#FFFBEE"/>
<path d="M296.571 403.302L256.302 403.302C255.947 403.302 255.606 403.161 255.355 402.91C255.105 402.659 254.964 402.319 254.964 401.964C254.964 401.609 255.105 401.268 255.355 401.017C255.606 400.766 255.947 400.625 256.302 400.625H296.571C296.926 400.625 297.267 400.766 297.518 401.017C297.769 401.268 297.909 401.609 297.909 401.964C297.909 402.319 297.769 402.659 297.518 402.91C297.267 403.161 296.926 403.302 296.571 403.302Z" fill="#FFFBEE"/>
<path d="M347.582 381.096H325.501C325.326 381.096 325.152 381.061 324.989 380.994C324.827 380.927 324.679 380.828 324.555 380.704C324.431 380.579 324.332 380.432 324.265 380.269C324.198 380.107 324.163 379.933 324.163 379.757C324.163 379.582 324.198 379.407 324.265 379.245C324.332 379.083 324.431 378.935 324.555 378.811C324.679 378.687 324.827 378.588 324.989 378.521C325.152 378.454 325.326 378.419 325.501 378.419H347.582C347.758 378.419 347.932 378.454 348.094 378.521C348.256 378.588 348.404 378.687 348.528 378.811C348.652 378.935 348.751 379.083 348.818 379.245C348.885 379.407 348.92 379.582 348.92 379.757C348.92 379.933 348.885 380.107 348.818 380.269C348.751 380.432 348.652 380.579 348.528 380.704C348.404 380.828 348.256 380.927 348.094 380.994C347.932 381.061 347.758 381.096 347.582 381.096Z" fill="#FFFBEE"/>
<path d="M352.424 397.473H321.944C321.59 397.473 321.249 397.332 320.998 397.081C320.747 396.83 320.606 396.49 320.606 396.135C320.606 395.78 320.747 395.439 320.998 395.188C321.249 394.937 321.59 394.796 321.944 394.796H352.424C352.779 394.796 353.119 394.937 353.37 395.188C353.621 395.439 353.762 395.78 353.762 396.135C353.762 396.49 353.621 396.83 353.37 397.081C353.119 397.332 352.779 397.473 352.424 397.473Z" fill="#FFFBEE"/>
<path d="M329.745 477.617C329.567 477.617 329.397 477.547 329.272 477.421C329.146 477.296 329.076 477.125 329.076 476.948V401.964C329.076 401.786 329.146 401.616 329.272 401.491C329.397 401.365 329.567 401.295 329.745 401.295C329.922 401.295 330.093 401.365 330.218 401.491C330.343 401.616 330.414 401.786 330.414 401.964V476.895C330.421 476.987 330.409 477.08 330.379 477.167C330.349 477.255 330.301 477.335 330.238 477.403C330.175 477.471 330.099 477.525 330.014 477.562C329.929 477.598 329.837 477.617 329.745 477.617Z" fill="#FFFBEE"/>
<path d="M337.175 477.617C336.998 477.617 336.828 477.547 336.702 477.421C336.577 477.296 336.506 477.125 336.506 476.948V401.964C336.506 401.786 336.577 401.616 336.702 401.491C336.828 401.365 336.998 401.295 337.175 401.295C337.353 401.295 337.523 401.365 337.649 401.491C337.774 401.616 337.845 401.786 337.845 401.964V476.895C337.852 476.987 337.84 477.08 337.81 477.167C337.779 477.255 337.731 477.335 337.668 477.403C337.605 477.471 337.529 477.525 337.444 477.562C337.359 477.598 337.268 477.617 337.175 477.617Z" fill="#FFFBEE"/>
<path d="M344.624 477.617C344.53 477.62 344.436 477.603 344.349 477.567C344.262 477.531 344.184 477.477 344.119 477.409C344.054 477.341 344.005 477.26 343.973 477.172C343.942 477.083 343.929 476.989 343.937 476.895V401.964C343.937 401.786 344.007 401.616 344.133 401.491C344.258 401.365 344.429 401.295 344.606 401.295C344.783 401.295 344.954 401.365 345.079 401.491C345.205 401.616 345.275 401.786 345.275 401.964V476.895C345.282 476.986 345.271 477.077 345.242 477.163C345.212 477.249 345.166 477.329 345.105 477.396C345.044 477.464 344.97 477.518 344.887 477.556C344.804 477.594 344.715 477.615 344.624 477.617Z" fill="#FFFBEE"/>
<path d="M460.308 491.547C460.131 491.547 459.961 491.476 459.835 491.351C459.71 491.225 459.639 491.055 459.639 490.878V404.447C459.639 404.269 459.71 404.099 459.835 403.974C459.961 403.848 460.131 403.778 460.308 403.778C460.486 403.778 460.656 403.848 460.781 403.974C460.907 404.099 460.977 404.269 460.977 404.447V490.878C460.977 491.055 460.907 491.225 460.781 491.351C460.656 491.476 460.486 491.547 460.308 491.547Z" fill="#FFFBEE"/>
<path d="M466.77 491.547C466.593 491.547 466.423 491.476 466.297 491.351C466.172 491.225 466.101 491.055 466.101 490.878V411.737C466.101 411.56 466.172 411.39 466.297 411.264C466.423 411.139 466.593 411.068 466.77 411.068C466.948 411.068 467.118 411.139 467.244 411.264C467.369 411.39 467.44 411.56 467.44 411.737V490.878C467.44 491.055 467.369 491.225 467.244 491.351C467.118 491.476 466.948 491.547 466.77 491.547Z" fill="#FFFBEE"/>
<path d="M473.233 491.547C473.055 491.547 472.885 491.476 472.759 491.351C472.634 491.225 472.564 491.055 472.564 490.878V418.57C472.564 418.393 472.634 418.222 472.759 418.097C472.885 417.971 473.055 417.901 473.233 417.901C473.41 417.901 473.58 417.971 473.706 418.097C473.831 418.222 473.902 418.393 473.902 418.57V490.878C473.902 491.055 473.831 491.225 473.706 491.351C473.58 491.476 473.41 491.547 473.233 491.547Z" fill="#FFFBEE"/>
<path d="M479.695 491.547C479.517 491.547 479.347 491.476 479.222 491.351C479.096 491.225 479.026 491.055 479.026 490.878V411.737C479.026 411.56 479.096 411.39 479.222 411.264C479.347 411.139 479.517 411.068 479.695 411.068C479.872 411.068 480.042 411.139 480.168 411.264C480.293 411.39 480.364 411.56 480.364 411.737V490.878C480.364 491.055 480.293 491.225 480.168 491.351C480.042 491.476 479.872 491.547 479.695 491.547Z" fill="#FFFBEE"/>
<path d="M486.157 491.547C485.979 491.547 485.809 491.476 485.684 491.351C485.558 491.225 485.488 491.055 485.488 490.878V404.429C485.488 404.252 485.558 404.081 485.684 403.956C485.809 403.83 485.979 403.76 486.157 403.76C486.334 403.76 486.505 403.83 486.63 403.956C486.756 404.081 486.826 404.252 486.826 404.429V490.878C486.826 491.055 486.756 491.225 486.63 491.351C486.505 491.476 486.334 491.547 486.157 491.547Z" fill="#FFFBEE"/>
<path d="M473.233 366.691C472.878 366.691 472.537 366.55 472.286 366.299C472.035 366.048 471.894 365.707 471.894 365.352V345.734C471.894 345.379 472.035 345.039 472.286 344.788C472.537 344.537 472.878 344.396 473.233 344.396C473.408 344.396 473.581 344.431 473.742 344.498C473.904 344.566 474.05 344.665 474.173 344.789C474.296 344.914 474.392 345.061 474.458 345.224C474.523 345.386 474.556 345.56 474.553 345.734V365.352C474.556 365.527 474.523 365.701 474.458 365.863C474.392 366.025 474.296 366.173 474.173 366.297C474.05 366.422 473.904 366.521 473.742 366.588C473.581 366.656 473.408 366.691 473.233 366.691Z" fill="#FFFBEE"/>
</g>
<path d="M95.5 348L97.8077 352.758L103 353.514L99.2407 357.215L100.134 362.464L95.5 359.991L90.866 362.464L91.7593 357.215L88 353.514L93.1923 352.758L95.5 348Z" fill="#EA442B"/>
<path d="M403.5 348L405.808 352.758L411 353.514L407.241 357.215L408.134 362.464L403.5 359.991L398.866 362.464L399.759 357.215L396 353.514L401.192 352.758L403.5 348Z" fill="#EA442B"/>
<path d="M141.17 361.92H132.29L130.64 366H124.58L133.85 345H139.7L149 366H142.82L141.17 361.92ZM139.43 357.54L136.73 350.82L134.03 357.54H139.43ZM171.864 360.42H168.624V366H162.684V345H172.284C174.184 345 175.834 345.32 177.234 345.96C178.634 346.58 179.714 347.48 180.474 348.66C181.234 349.82 181.614 351.19 181.614 352.77C181.614 354.29 181.254 355.62 180.534 356.76C179.834 357.88 178.824 358.76 177.504 359.4L182.034 366H175.674L171.864 360.42ZM175.614 352.77C175.614 351.79 175.304 351.03 174.684 350.49C174.064 349.95 173.144 349.68 171.924 349.68H168.624V355.83H171.924C173.144 355.83 174.064 355.57 174.684 355.05C175.304 354.51 175.614 353.75 175.614 352.77ZM207.361 366.42C205.161 366.42 203.181 365.96 201.421 365.04C199.681 364.1 198.311 362.8 197.311 361.14C196.311 359.48 195.811 357.6 195.811 355.5C195.811 353.4 196.311 351.52 197.311 349.86C198.311 348.2 199.681 346.91 201.421 345.99C203.181 345.05 205.161 344.58 207.361 344.58C209.281 344.58 211.011 344.92 212.551 345.6C214.091 346.28 215.371 347.26 216.391 348.54L212.611 351.96C211.251 350.32 209.601 349.5 207.661 349.5C206.521 349.5 205.501 349.75 204.601 350.25C203.721 350.75 203.031 351.46 202.531 352.38C202.051 353.28 201.811 354.32 201.811 355.5C201.811 356.68 202.051 357.73 202.531 358.65C203.031 359.55 203.721 360.25 204.601 360.75C205.501 361.25 206.521 361.5 207.661 361.5C209.601 361.5 211.251 360.68 212.611 359.04L216.391 362.46C215.371 363.74 214.091 364.72 212.551 365.4C211.011 366.08 209.281 366.42 207.361 366.42ZM251.019 345V366H245.079V357.81H236.979V366H231.039V345H236.979V352.89H245.079V345H251.019ZM267.209 345H273.149V366H267.209V345ZM310.675 345L301.675 366H295.825L286.855 345H293.275L298.975 358.68L304.795 345H310.675ZM341.204 361.41V366H324.344V345H340.814V349.59H330.224V353.13H339.554V357.57H330.224V361.41H341.204ZM363.88 366.42C362.18 366.42 360.53 366.21 358.93 365.79C357.33 365.37 356.03 364.81 355.03 364.11L356.98 359.73C357.92 360.35 359.01 360.85 360.25 361.23C361.49 361.61 362.71 361.8 363.91 361.8C366.19 361.8 367.33 361.23 367.33 360.09C367.33 359.49 367 359.05 366.34 358.77C365.7 358.47 364.66 358.16 363.22 357.84C361.64 357.5 360.32 357.14 359.26 356.76C358.2 356.36 357.29 355.73 356.53 354.87C355.77 354.01 355.39 352.85 355.39 351.39C355.39 350.11 355.74 348.96 356.44 347.94C357.14 346.9 358.18 346.08 359.56 345.48C360.96 344.88 362.67 344.58 364.69 344.58C366.07 344.58 367.43 344.74 368.77 345.06C370.11 345.36 371.29 345.81 372.31 346.41L370.48 350.82C368.48 349.74 366.54 349.2 364.66 349.2C363.48 349.2 362.62 349.38 362.08 349.74C361.54 350.08 361.27 350.53 361.27 351.09C361.27 351.65 361.59 352.07 362.23 352.35C362.87 352.63 363.9 352.92 365.32 353.22C366.92 353.56 368.24 353.93 369.28 354.33C370.34 354.71 371.25 355.33 372.01 356.19C372.79 357.03 373.18 358.18 373.18 359.64C373.18 360.9 372.83 362.04 372.13 363.06C371.43 364.08 370.38 364.9 368.98 365.52C367.58 366.12 365.88 366.42 363.88 366.42Z" fill="#FEFBED"/>
<path d="M237.137 181V319H200.169V264.961H154.968V319H118V181H155.022V231.913H200.223V181H237.137Z" fill="#FEFBED"/>
<path d="M255.007 248.651C255.048 231.481 261.637 214.969 273.437 202.469C279.711 195.91 287.208 190.637 295.509 186.947C305.647 182.679 316.594 180.665 327.591 181.045C338.588 181.426 349.37 184.191 359.187 189.148C368.339 194.082 375.84 201.584 380.762 210.726L352.068 231.037C350.949 227.961 349.201 225.149 346.937 222.78C344.918 220.665 342.547 218.915 339.929 217.606C337.413 216.357 334.741 215.45 331.983 214.909C329.344 214.415 326.667 214.157 323.982 214.139C319.153 214.034 314.374 215.131 310.077 217.331C306.285 219.314 303 222.139 300.475 225.588C297.965 229.045 296.096 232.922 294.957 237.037C293.762 241.189 293.15 245.487 293.136 249.807C293.128 254.42 293.835 259.006 295.233 263.403C296.564 267.585 298.659 271.486 301.413 274.907C304.094 278.229 307.464 280.933 311.291 282.834C315.368 284.854 319.871 285.873 324.423 285.806C327.075 285.798 329.719 285.522 332.314 284.981C335.025 284.381 337.643 283.419 340.094 282.118C342.593 280.751 344.864 279.005 346.826 276.944C348.874 274.681 350.466 272.046 351.517 269.183L382.086 287.347C379.947 292.422 376.771 296.996 372.761 300.778C368.519 304.764 363.725 308.119 358.525 310.741C353.102 313.486 347.355 315.539 341.419 316.851C335.6 318.251 329.637 318.971 323.651 318.998C314.115 319.077 304.684 317.007 296.061 312.943C287.858 309.06 280.492 303.62 274.375 296.925C268.306 290.34 263.516 282.687 260.249 274.357C256.898 266.193 255.119 257.472 255.007 248.651V248.651Z" fill="#FEFBED"/>
<path d="M353.119 159.456C352.801 159.878 352.571 160.359 352.444 160.872C352.13 161.722 351.596 163.106 350.874 165.041C351.647 165.03 352.418 164.961 353.182 164.837H353.668C353.763 163.751 353.825 163.138 353.841 162.98L354.077 161.942L354.265 161.124L354.469 158.795H354.029C353.653 158.701 353.354 158.937 353.119 159.456Z" fill="#FFFBEE"/>
<path d="M409.675 161.926C409.424 161.438 409.157 161.202 408.89 161.187C408.642 161.185 408.396 161.234 408.167 161.328L407.853 161.486L407.539 161.753L408.529 163.641C409.424 163.059 409.816 162.666 409.706 162.445C409.596 162.225 409.706 162.288 409.706 162.068L409.675 161.926Z" fill="#FFFBEE"/>
<path d="M407.901 157.521L407.053 155.948C406.722 155.369 406.253 154.882 405.687 154.532C405.155 154.499 404.622 154.569 404.117 154.736L403.63 154.988C404.698 156.561 405.702 158.386 406.66 160.211C407.013 160.002 407.306 159.704 407.508 159.346C407.795 159.074 407.969 158.703 407.995 158.308C407.93 158.05 407.899 157.786 407.901 157.521Z" fill="#FFFBEE"/>
<path d="M414.26 151.448L418.766 143C406.786 151.228 387.803 158.732 370.689 153.195C342.426 144.117 335.345 149.293 335.345 149.293L330.321 162.162L326.568 171.932C338.328 165.718 369.244 189.363 398.684 173.804C423.256 160.809 425.376 155.35 425.376 155.35C421.388 157.364 414.26 151.448 414.26 151.448ZM345.928 164.333V164.553C345.844 164.795 345.718 165.251 345.551 165.922L345.221 167.039C345.084 167.486 344.99 167.944 344.938 168.408C344.938 168.534 344.64 168.549 344.169 168.408C343.891 168.373 343.618 168.31 343.353 168.219C343.164 168.219 343.117 167.967 343.211 167.653C343.229 167.569 343.261 167.489 343.306 167.417C343.306 167.118 343.541 166.489 343.855 165.482C343.975 165.099 344.074 164.711 344.153 164.317C343.402 164.184 342.64 164.116 341.877 164.113L340.778 163.971C340.699 164.412 340.448 165.293 340.055 166.614C339.927 166.976 339.753 167.32 339.537 167.637H339.396C338.47 167.354 338.03 167.118 338.093 166.929C338.218 166.504 338.281 166.253 338.297 166.158L338.878 164.491L339.066 163.641L339.302 162.87L340.872 158.056C341.406 156.31 341.751 155.145 341.908 154.532C341.908 154.312 342.458 154.359 343.368 154.626C343.604 154.705 343.682 154.815 343.635 154.988C343.588 155.161 343.525 155.303 343.51 155.287V155.476L342.536 158.622C342.159 159.818 341.783 160.998 341.359 162.194C342.065 162.316 342.778 162.395 343.494 162.43C344.232 162.524 344.64 162.587 344.734 162.618C344.923 162.178 345.08 161.706 345.237 161.218L346.116 158.323C346.289 157.615 346.414 157.128 346.509 156.845C346.542 156.474 346.6 156.106 346.681 155.743C346.76 155.523 347.231 155.539 348.11 155.743C348.393 155.838 348.456 156.105 348.314 156.577L347.875 158.528L346.901 161.674C346.619 162.398 346.32 163.248 345.928 164.333ZM356.008 161.092C356.008 161.313 355.819 162.131 355.505 163.578L355.223 166.929C355.223 167.37 355.129 167.779 355.081 168.172C354.952 168.925 354.883 169.688 354.877 170.453C354.896 170.783 354.896 171.114 354.877 171.444C354.877 171.617 354.281 171.617 353.197 171.444C353.056 171.444 353.04 170.815 353.197 169.682C353.26 169.147 353.307 168.691 353.339 168.313C353.339 168.203 353.339 167.889 353.496 167.354V166.551C353.354 166.551 352.616 166.63 351.282 166.803H350.858C350.623 166.789 350.387 166.789 350.151 166.803L349.884 167.904C349.68 168.597 349.539 169.069 349.476 169.352C349.476 169.352 349.476 169.493 349.476 169.698V169.981C349.476 170.217 348.989 170.249 348.204 170.06C347.906 170.06 347.733 169.902 347.67 169.761C347.985 168.628 348.283 167.48 348.581 166.315C349.225 164.616 349.539 163.704 349.57 163.594C349.958 162.808 350.284 161.992 350.544 161.155C350.699 160.822 350.8 160.466 350.842 160.101C351.007 159.8 351.144 159.484 351.25 159.157C351.329 159.157 351.423 158.968 351.549 158.67L351.878 158.229C352.308 157.589 352.637 157.275 352.868 157.285C353.541 157.009 354.286 156.965 354.987 157.159C355.267 157.21 355.526 157.341 355.732 157.536C355.938 157.732 356.083 157.984 356.149 158.26C356.19 158.505 356.19 158.755 356.149 159L356.008 161.092ZM364.973 163.248C364.973 163.452 364.848 163.531 364.675 163.499L363.56 163.342C363.372 163.342 363.293 163.138 363.293 162.839C363.293 162.54 363.293 162.367 363.435 161.769C363.415 161.542 363.315 161.33 363.152 161.171L362.383 160.872H362.1C361.425 161.014 361.064 161.202 361.032 161.423C361.001 161.643 360.828 161.706 360.561 162.304C360.311 162.718 360.146 163.178 360.075 163.657C359.87 164.947 359.666 166.253 359.462 167.606C359.441 168.091 359.483 168.578 359.588 169.053C359.588 169.588 359.682 169.934 359.713 170.091C359.745 170.249 360.075 170.689 360.341 170.736C360.517 170.81 360.685 170.9 360.844 171.004L361.566 171.114C361.705 171.093 361.835 171.031 361.938 170.935C362.042 170.84 362.114 170.716 362.147 170.579C362.188 170.483 362.219 170.382 362.241 170.28L362.335 169.604L362.461 168.927C362.454 168.828 362.454 168.728 362.461 168.628C362.489 168.558 362.54 168.499 362.606 168.462C362.671 168.425 362.748 168.411 362.822 168.424L363.874 168.581C363.926 168.582 363.976 168.594 364.022 168.618C364.068 168.641 364.109 168.674 364.14 168.714C364.172 168.755 364.194 168.802 364.205 168.853C364.216 168.903 364.216 168.955 364.204 169.006L364.063 169.792L363.906 170.752C363.817 171.207 363.63 171.637 363.356 172.011C362.934 172.446 362.384 172.733 361.786 172.829C361.786 172.829 361.692 172.829 361.519 172.829L360.263 172.687C359.211 172.231 358.693 171.885 358.583 171.633C358.107 171.097 357.854 170.399 357.876 169.682C357.71 169.138 357.657 168.565 357.719 167.999C357.719 167.999 357.719 167.543 357.814 166.662L358.347 163.169C358.514 162.413 358.795 161.686 359.18 161.014C359.298 160.869 359.374 160.695 359.399 160.51C359.684 160.167 360.005 159.856 360.357 159.582L361.174 159.267C361.44 159.168 361.722 159.12 362.006 159.126C362.237 159.137 362.468 159.164 362.697 159.204C363.391 159.349 364.036 159.675 364.565 160.148C364.908 160.607 365.12 161.151 365.177 161.722L364.973 163.248ZM373.986 161.171C373.795 161.787 373.542 162.383 373.232 162.949C373.105 163.443 372.904 163.915 372.636 164.349C372.406 164.886 372.149 165.411 371.866 165.922C371.653 166.271 371.464 166.633 371.301 167.008L370.5 168.581C370.783 169.084 371.16 169.745 371.631 170.532C371.725 170.783 371.866 171.098 372.055 171.491C372.259 171.901 372.442 172.322 372.604 172.75C372.857 173.339 373.072 173.943 373.248 174.559C373.248 174.764 372.824 174.953 372.055 175.126H371.866C371.709 175.126 371.411 174.528 370.971 173.379C370.569 172.274 370.043 171.218 369.401 170.233C369.21 169.894 368.989 169.573 368.742 169.273V169.965C368.742 170.28 368.742 170.453 368.742 170.485L368.569 172.058C368.605 172.487 368.605 172.919 368.569 173.348C368.569 173.458 368.38 173.505 368.176 173.474L367.03 173.348C366.842 173.348 366.763 173.08 366.81 172.624C366.823 172.536 366.823 172.445 366.81 172.357C366.81 172.215 366.81 171.664 366.983 170.705C366.983 170.327 366.983 170.138 366.983 170.107L367.784 162.508C367.765 161.788 367.801 161.067 367.894 160.353C367.915 160.281 367.962 160.219 368.026 160.179C368.089 160.138 368.165 160.122 368.239 160.133L369.291 160.258C369.558 160.258 369.668 160.4 369.652 160.589C369.631 160.809 369.631 161.03 369.652 161.25C369.606 161.377 369.575 161.509 369.558 161.643V162.603C369.354 164.632 369.166 166.473 368.961 168.14C369.029 167.911 369.141 167.697 369.291 167.511C369.919 166.284 370.233 165.639 370.233 165.608C370.466 165.288 370.656 164.939 370.798 164.569C371.246 163.714 371.639 162.831 371.976 161.926C372.127 161.626 372.223 161.301 372.259 160.966C372.4 160.699 372.541 160.557 372.714 160.573C373.687 160.856 374.159 161.061 374.143 161.187L373.986 161.171ZM387.489 171.948C387.232 172.504 386.802 172.962 386.264 173.253C386.264 173.253 386.264 173.348 386.029 173.379L384.82 173.631C383.674 173.552 383.014 173.411 382.873 173.191C382.255 172.851 381.789 172.288 381.57 171.617C381.212 171.155 380.965 170.617 380.847 170.044C380.847 170.044 380.659 169.619 380.486 168.754L379.827 165.293C379.711 164.521 379.711 163.736 379.827 162.964C379.876 162.79 379.876 162.604 379.827 162.43C379.977 162.008 380.177 161.607 380.423 161.234L381.083 160.652C381.304 160.475 381.554 160.337 381.821 160.243L382.496 160.085C383.198 159.998 383.911 160.09 384.568 160.353C385.259 160.935 385.62 161.36 385.668 161.611L385.982 163.185C385.997 163.219 386.003 163.255 386.002 163.292C386 163.33 385.989 163.366 385.971 163.398C385.953 163.43 385.927 163.457 385.896 163.478C385.865 163.498 385.83 163.511 385.793 163.515L384.678 163.735C384.49 163.735 384.364 163.657 384.27 163.374C384.167 163.028 384.088 162.676 384.035 162.319C384.035 162.162 383.846 162.021 383.579 161.847H382.465C381.868 162.209 381.601 162.492 381.632 162.713C381.547 163.036 381.499 163.369 381.491 163.704C381.396 164.182 381.396 164.673 381.491 165.151C381.727 166.41 381.978 167.716 382.229 169.069C382.376 169.534 382.581 169.978 382.841 170.39C382.978 170.715 383.135 171.03 383.312 171.334C383.4 171.468 383.522 171.575 383.666 171.644C383.81 171.714 383.97 171.742 384.129 171.727C384.311 171.705 384.496 171.705 384.678 171.727L385.385 171.586C385.513 171.522 385.619 171.419 385.686 171.292C385.754 171.165 385.78 171.02 385.762 170.878C385.769 170.778 385.769 170.678 385.762 170.579L385.636 169.918L385.526 169.226C385.481 169.137 385.449 169.041 385.432 168.943C385.431 168.867 385.458 168.793 385.507 168.735C385.556 168.678 385.624 168.64 385.699 168.628L386.751 168.424C386.799 168.407 386.851 168.401 386.902 168.407C386.953 168.413 387.002 168.43 387.046 168.457C387.089 168.484 387.126 168.52 387.154 168.564C387.182 168.607 387.2 168.656 387.206 168.707L387.332 169.493L387.505 170.453C387.632 170.953 387.637 171.477 387.52 171.979L387.489 171.948ZM394.79 170.831C394.684 170.895 394.567 170.937 394.445 170.957C392.874 171.397 392.105 171.617 392.089 171.586L391.775 171.665C391.587 171.665 391.43 171.523 391.304 171.082C391.304 170.988 391.053 170.374 390.629 169.257C390.214 167.65 389.689 166.073 389.059 164.538L388.667 163.169C388.577 162.875 388.472 162.586 388.352 162.304C387.834 160.526 387.52 159.488 387.442 159.157C387.363 158.827 387.567 158.827 387.96 158.701C388.698 158.481 389.09 158.449 389.138 158.591C389.231 158.906 389.305 159.226 389.357 159.551C389.561 160.164 389.766 160.809 389.938 161.47C390.027 161.748 390.132 162.022 390.252 162.288L390.802 164.255C390.802 164.255 391.006 164.538 391.21 165.151C391.594 166.179 391.914 167.23 392.168 168.298L392.529 169.43C392.534 169.459 392.546 169.487 392.562 169.511C392.579 169.535 392.601 169.556 392.626 169.571C392.652 169.586 392.68 169.595 392.709 169.598C392.739 169.601 392.768 169.597 392.796 169.588L393.911 169.116C394.225 168.959 394.602 168.785 395.026 168.612C395.449 168.439 395.387 168.691 395.481 169.021C395.575 169.352 395.748 169.824 395.811 170.06C395.873 170.296 395.528 170.595 394.806 170.862L394.79 170.831ZM401.903 168.487L400.804 168.959C400.296 169.115 399.763 169.173 399.233 169.132C398.873 169.057 398.535 168.901 398.244 168.675C397.729 168.278 397.306 167.773 397.004 167.196L395.905 164.695C395.716 164.05 395.606 163.672 395.559 163.562C395.151 162.513 394.9 161.774 394.806 161.344L393.707 158.795L393.487 158.308C393.487 158.072 393.565 157.867 393.989 157.678C394.202 157.531 394.435 157.414 394.68 157.332C394.884 157.254 395.026 157.332 395.088 157.427C395.11 157.509 395.142 157.588 395.183 157.663L395.449 158.434L396.58 161.108C396.69 161.407 396.815 161.753 396.941 162.178C397.067 162.603 397.192 162.933 397.302 163.2C397.427 163.533 397.527 163.875 397.601 164.223L398.637 166.567C399.092 167.165 399.39 167.464 399.532 167.432C399.673 167.401 399.83 167.432 400.333 167.354L400.992 167.071C401.125 166.835 401.195 166.57 401.196 166.3C401.244 165.847 401.185 165.389 401.023 164.962L400.395 163.562C400.286 163.26 400.202 162.95 400.144 162.634C400.123 162.532 400.091 162.431 400.05 162.335C400.05 162.209 399.767 161.564 399.202 160.4C398.825 159.236 398.59 158.528 398.496 158.26C398.087 157.269 397.789 156.687 397.632 156.357C397.475 156.026 397.899 155.885 398.653 155.507C398.919 155.413 399.076 155.507 399.155 155.617L399.814 157.096L400.27 158.371C400.474 158.905 400.631 159.377 400.741 159.771C401.212 160.825 401.479 161.454 401.557 161.659C401.738 162.113 401.88 162.581 401.981 163.059L402.656 164.553C402.734 164.859 402.792 165.169 402.829 165.482C402.955 167.165 402.656 168.219 401.934 168.518L401.903 168.487ZM411.229 163.405C410.792 164.18 410.121 164.796 409.314 165.167L408.764 165.45C408.126 165.796 407.78 165.922 407.728 165.828L407.618 165.686L405.797 162.272L405.294 161.47C404.123 159.206 402.834 157.006 401.432 154.878C401.386 154.788 401.362 154.688 401.362 154.587C401.362 154.486 401.386 154.386 401.432 154.296C401.471 154.18 401.524 154.069 401.589 153.966L403.065 153.21C403.986 152.745 405.034 152.596 406.048 152.786C406.581 152.982 407.068 153.287 407.477 153.682C407.992 154.246 408.43 154.875 408.78 155.554L409.11 156.184C409.439 156.847 409.637 157.569 409.69 158.308C409.646 158.711 409.551 159.108 409.408 159.488C409.972 159.668 410.462 160.027 410.805 160.51C411.03 160.86 411.234 161.223 411.418 161.596C411.569 162.21 411.513 162.857 411.261 163.436L411.229 163.405Z" fill="#FFFBEE"/>
<path d="M320.335 191.959L319 191.44L335.361 149.277L336.727 149.702L320.335 191.959Z" fill="#FFFBEE"/>
</svg>
